<svg width="1056" height="1192" viewBox="0 0 1056 1192" fill="none" xmlns="http://www.w3.org/2000/svg">
<path fill-rule="evenodd" clip-rule="evenodd" d="M1055.11 529.92C1055.11 728.488 945.783 901.52 784.036 992.106C900.412 916.986 977.454 786.164 977.454 637.347C977.454 404.315 788.544 215.406 555.513 215.406C514.916 215.406 475.658 221.139 438.505 231.84C425.895 235.472 412.255 229.923 406.512 218.124L332.636 66.3275C326.136 52.9715 332.167 36.8374 346.139 31.7984C402.219 11.5749 462.694 0.552246 525.744 0.552246C818.106 0.552246 1055.11 237.558 1055.11 529.92ZM148.788 171.748L283.083 286.389C287.192 289.897 293.307 289.656 297.127 285.836L304.732 278.231C308.516 274.447 308.794 268.404 305.373 264.29L192.369 128.357C188.474 123.672 181.394 123.346 177.085 127.655L148.19 156.551C143.919 160.822 144.195 167.826 148.788 171.748ZM21.8558 400.368L195.479 432.504C200.791 433.487 205.967 430.221 207.365 425.002L210.149 414.614C211.534 409.445 208.753 404.073 203.733 402.22L37.9028 341.001C32.1863 338.891 25.8924 342.149 24.3153 348.035L13.7387 387.507C12.1755 393.341 15.9169 399.269 21.8558 400.368ZM191.3 611.731L24.8697 670.712C19.1768 672.73 12.9726 669.467 11.4094 663.633L0.832845 624.161C-0.744293 618.275 3.0773 612.306 9.0831 611.275L183.306 581.377C188.579 580.472 193.674 583.734 195.059 588.903L197.842 599.291C199.241 604.51 196.392 609.926 191.3 611.731ZM142.474 880.74L249.001 774.833C252.847 771.009 253.091 764.864 249.559 760.748L246.367 757.027C242.867 752.947 236.826 752.225 232.462 755.364L110.397 843.16C105.471 846.703 104.634 853.703 108.585 858.308L127.315 880.139C131.234 884.707 138.207 884.983 142.474 880.74ZM320.295 901.85L278.898 988.696C276.299 994.148 269.605 996.228 264.374 993.208L251.558 985.808C246.281 982.761 244.763 975.839 248.281 970.863L303.88 892.229C306.728 888.2 312.177 887.005 316.45 889.472C320.765 891.963 322.439 897.353 320.295 901.85ZM482.313 653.375C474.278 655.919 466.514 663.794 463.118 672.85C457.478 687.882 461.079 713.09 471.948 734.671C485.094 760.771 502.55 776.627 528.919 786.421L534.972 788.668L534.218 815.227C533.76 831.322 532.672 852.217 531.376 871.361H509.513C506.861 866.618 503.986 861.681 500.884 856.565C483.27 827.511 457.146 790.682 419.81 747.597L420.057 747.697C384.485 709.241 362.77 657.947 362.77 601.617C362.769 482.315 460.175 385.601 580.331 385.601C700.486 385.601 797.892 482.315 797.892 601.617C797.892 655.745 777.841 705.224 744.711 743.129L744.796 743.229C706.665 787.052 680.081 824.473 662.234 853.912C658.549 859.989 655.184 865.814 652.134 871.361H621.825C620.529 852.217 619.441 831.322 618.984 815.227L618.229 788.668L624.282 786.421C650.651 776.627 668.107 760.771 681.253 734.671C692.122 713.09 695.723 687.882 690.083 672.85C684.869 658.949 670.854 649.943 657.773 652.089C638.849 655.194 617.322 676.691 607.373 702.423C600.683 719.727 599.121 727.942 595.593 764.377L594.976 770.748L585.788 771.607C580.735 772.078 572.466 772.078 567.413 771.607L558.225 770.748L557.558 763.761C554.751 734.371 552.87 723.044 548.749 710.72C542.649 692.479 535.917 681.137 524.102 669.196C509.222 654.157 495.844 649.094 482.313 653.375ZM436.67 894.944C447.995 913.625 454.137 926.765 457.074 934.16C457.208 944.206 465.392 952.308 475.469 952.308H685.194C694.111 952.308 701.545 945.965 703.232 937.545L703.908 937.705C704.802 933.991 710.461 918.661 726.448 892.29C741.913 866.781 766.009 832.644 801.828 791.516L801.731 791.433C846.041 740.527 872.842 674.18 872.842 601.617C872.842 441.215 741.88 311.183 580.331 311.183C418.781 311.183 287.819 441.215 287.819 601.617C287.819 675.475 315.586 742.894 361.32 794.144L361.29 794.17C397.109 835.298 421.205 869.434 436.67 894.944ZM557.499 811.564C556.539 832.966 555.371 853.525 554.147 871.361H599.01C597.834 854.194 596.706 833.931 595.689 811.302C594.894 793.576 594.81 793.15 592.222 793.667C585.67 794.976 575.269 795.336 567.142 794.534L558.301 793.663L557.499 811.564ZM485.798 677.769C476.578 691.802 490.687 732.048 511.31 750.541C517.374 755.978 530.265 763.551 533.457 763.551C534.441 763.551 534.612 760.917 534.037 754.619C531.185 723.397 523.974 702.625 510.806 687.705C499.853 675.293 489.996 671.378 485.798 677.769ZM654.714 676.884C649.381 679.505 638.461 691.385 633.789 699.648C625.991 713.439 621.323 730.989 619.164 754.619C618.56 761.24 618.737 763.551 619.846 763.551C622.854 763.551 636.34 755.519 642.293 750.18C662.522 732.041 676.526 691.656 667.403 677.769C665.123 674.298 660.612 673.983 654.714 676.884ZM692.552 1128.76C698.648 1128.76 703.59 1133.7 703.59 1139.8V1180.43C703.59 1186.53 698.648 1191.47 692.552 1191.47H468.109C462.013 1191.47 457.071 1186.53 457.071 1180.43V1148.59C457.071 1144.99 458.823 1141.62 461.767 1139.56L552.438 1075.91C561.265 1069.72 556.881 1055.84 546.096 1055.84H468.109C462.013 1055.84 457.071 1050.9 457.071 1044.8V1003.82C457.071 997.723 462.013 992.781 468.109 992.781H692.552C698.648 992.781 703.59 997.723 703.59 1003.82V1036.01C703.59 1039.61 701.837 1042.98 698.893 1045.05L608.223 1108.69C599.395 1114.89 603.78 1128.76 614.564 1128.76H692.552Z" fill="white"/>
</svg>
