<svg width="1843" height="558" viewBox="0 0 1843 558" fill="none" xmlns="http://www.w3.org/2000/svg">
<path fill-rule="evenodd" clip-rule="evenodd" d="M321.125 183.218C321.125 108.12 259.811 47.2407 184.175 47.2407C108.539 47.2407 47.2245 108.12 47.2245 183.218C47.2245 218.677 60.894 250.966 83.2861 275.173L83.1307 275.11C106.633 302.231 123.077 325.414 134.165 343.703C136.117 346.924 137.927 350.031 139.597 353.017H153.359C154.175 340.966 154.86 327.813 155.148 317.681L155.623 300.963L151.813 299.548C135.214 293.384 124.225 283.402 115.95 266.973C109.108 253.388 106.842 237.52 110.392 228.058C112.53 222.358 117.417 217.4 122.475 215.799C130.992 213.104 139.414 216.291 148.78 225.758C156.218 233.274 160.455 240.414 164.295 251.897C166.889 259.654 168.073 266.784 169.84 285.284L170.26 289.683L176.043 290.223C179.224 290.52 184.429 290.52 187.611 290.223L193.394 289.683L193.782 285.672C196.003 262.737 196.987 257.566 201.198 246.673C207.46 230.476 221.011 216.944 232.924 214.989C241.157 213.638 249.98 219.307 253.262 228.058C256.812 237.52 254.546 253.388 247.704 266.973C239.429 283.402 228.44 293.384 211.841 299.548L208.031 300.963L208.506 317.681C208.794 327.813 209.479 340.966 210.295 353.017H229.374C231.294 349.525 233.412 345.858 235.731 342.033C246.966 323.502 263.7 299.946 287.703 272.36L287.649 272.298C308.504 248.437 321.125 217.291 321.125 183.218ZM261.54 394.679L261.965 394.779C262.527 392.441 266.089 382.791 276.153 366.191C285.888 350.134 301.056 328.646 323.603 302.756L323.542 302.703C351.434 270.659 368.305 228.895 368.305 183.218C368.305 82.2484 285.867 0.396229 184.175 0.39624C82.4827 0.396251 0.0449113 82.2484 0.0449221 183.218C0.0449271 229.71 17.5234 272.149 46.3119 304.41L46.293 304.426C68.8408 330.316 84.0086 351.804 93.7434 367.862C100.874 379.624 104.741 387.897 106.589 392.551C106.675 398.873 111.826 403.971 118.168 403.971H250.186C255.798 403.971 260.478 399.978 261.54 394.679ZM167.693 353.017H195.933C195.193 342.21 194.483 329.455 193.843 315.21C193.342 304.053 193.289 303.784 191.66 304.11C187.536 304.934 180.989 305.16 175.873 304.655L170.308 304.107L169.803 315.376C169.198 328.848 168.464 341.789 167.693 353.017ZM140.728 276.963C127.746 265.322 118.865 239.988 124.668 231.155C127.311 227.131 133.516 229.596 140.41 237.409C148.699 246.8 153.239 259.876 155.034 279.53C155.396 283.495 155.288 285.153 154.669 285.153C152.659 285.153 144.545 280.385 140.728 276.963ZM217.826 244.927C220.767 239.725 227.641 232.247 230.997 230.597C234.71 228.771 237.55 228.969 238.985 231.155C244.728 239.896 235.913 265.317 223.179 276.736C219.432 280.096 210.942 285.153 209.049 285.153C208.351 285.153 208.24 283.698 208.62 279.53C209.979 264.655 212.917 253.608 217.826 244.927ZM1673 545.282C1671.31 550.681 1666.31 554.356 1660.65 554.356H1625.59C1616.74 554.356 1610.5 545.664 1613.33 537.275L1685.9 322.186C1687.67 316.924 1692.61 313.381 1698.16 313.381H1757.12C1762.67 313.381 1767.61 316.924 1769.38 322.186L1841.95 537.275C1844.78 545.664 1838.54 554.356 1829.69 554.356H1794.62C1788.97 554.356 1783.97 550.685 1782.27 545.29L1769.23 503.76H1686.01L1673 545.282ZM1728.8 374.993L1755.34 459.519H1699.87L1726.36 374.994C1726.53 374.459 1727.02 374.095 1727.58 374.095C1728.14 374.095 1728.64 374.459 1728.8 374.993ZM1727.79 290.437C1718.41 290.437 1712.15 280.766 1715.98 272.203L1728.15 245.023C1730.24 240.367 1734.86 237.37 1739.97 237.37H1758.29C1768.64 237.37 1774.8 248.915 1769.04 257.515L1750.84 284.695C1748.44 288.283 1744.4 290.437 1740.09 290.437H1727.79ZM1526.04 382.871C1528.77 388.047 1533.68 392.098 1539.53 392.098H1574.01C1581.75 392.098 1587.86 385.286 1585.72 377.839C1583.82 371.229 1581.16 364.961 1577.74 359.034C1571.93 348.994 1564.36 340.326 1555.03 333.031C1545.77 325.736 1535.1 320.088 1523.02 316.087C1511.02 312.087 1498.04 310.086 1484.08 310.086C1468 310.086 1452.97 312.832 1439.01 318.323C1425.13 323.814 1412.89 331.893 1402.3 342.561C1391.79 353.23 1383.59 366.251 1377.71 381.626C1371.83 396.922 1368.88 414.454 1368.88 434.221C1368.88 459.637 1373.75 481.6 1383.47 500.113C1393.2 518.547 1406.77 532.745 1424.19 542.707C1441.6 552.669 1461.8 557.65 1484.78 557.65C1505.49 557.65 1523.81 553.532 1539.73 545.296C1555.73 537.059 1568.28 525.254 1577.38 509.879C1586.56 494.504 1591.15 476.031 1591.15 454.459V435.516C1591.15 428.367 1585.36 422.573 1578.21 422.573H1500.2C1493.05 422.573 1487.25 428.367 1487.25 435.516V452.106C1487.25 459.254 1493.05 465.049 1500.2 465.049H1543.55C1538.81 465.622 1534.98 469.686 1533.91 474.579C1532.96 478.898 1531.41 482.859 1529.26 486.464C1525.42 492.896 1519.77 497.877 1512.32 501.407C1504.94 504.859 1495.92 506.584 1485.25 506.584C1473.17 506.584 1462.9 503.721 1454.43 497.995C1445.95 492.269 1439.48 483.954 1435.01 473.05C1430.54 462.147 1428.3 448.968 1428.3 433.515C1428.3 418.141 1430.62 405.08 1435.25 394.333C1439.87 383.508 1446.42 375.272 1454.9 369.624C1463.45 363.976 1473.57 361.152 1485.25 361.152C1491.06 361.152 1496.39 361.858 1501.26 363.27C1506.12 364.604 1510.43 366.604 1514.2 369.271C1517.96 371.938 1521.14 375.193 1523.73 379.037C1524.57 380.254 1525.34 381.532 1526.04 382.871ZM440.832 545.282C439.141 550.681 434.139 554.356 428.481 554.356H393.419C384.565 554.356 378.325 545.664 381.156 537.275L453.727 322.186C455.503 316.924 460.437 313.381 465.991 313.381H524.945C530.499 313.381 535.434 316.924 537.209 322.186L609.781 537.275C612.611 545.664 606.371 554.356 597.517 554.356H562.449C556.794 554.356 551.794 550.685 550.1 545.29L537.061 503.76H453.842L440.832 545.282ZM496.633 374.993L523.171 459.519H467.703L494.187 374.994C494.354 374.459 494.849 374.095 495.41 374.095C495.97 374.095 496.465 374.459 496.633 374.993ZM654.431 554.356C647.283 554.356 641.489 548.561 641.489 541.413V326.324C641.489 319.176 647.283 313.381 654.431 313.381H686.789C693.937 313.381 699.732 319.176 699.732 326.324V413.142C699.732 414.321 700.688 415.277 701.868 415.277C702.525 415.277 703.145 414.975 703.55 414.457L778.68 318.352C781.133 315.215 784.895 313.381 788.877 313.381H824.355C835.187 313.381 841.227 325.892 834.49 334.374L771.542 413.622C768.078 417.984 767.792 424.073 770.833 428.739L839.655 534.346C845.265 542.956 839.087 554.356 828.811 554.356H790.16C785.725 554.356 781.599 552.085 779.226 548.34L732.788 475.04C728.018 467.51 717.242 466.944 711.708 473.931L702.529 485.521C700.717 487.808 699.732 490.64 699.732 493.557V541.413C699.732 548.561 693.937 554.356 686.789 554.356H654.431ZM916.755 554.356C922.413 554.356 927.415 550.681 929.106 545.282L942.116 503.76H1025.34L1038.37 545.29C1040.07 550.685 1045.07 554.356 1050.72 554.356H1085.79C1094.65 554.356 1100.89 545.664 1098.05 537.275L1025.48 322.186C1023.71 316.924 1018.77 313.381 1013.22 313.381H954.265C948.711 313.381 943.777 316.924 942.001 322.186L869.43 537.275C866.599 545.664 872.839 554.356 881.693 554.356H916.755ZM1011.44 459.519L984.906 374.993C984.739 374.459 984.244 374.095 983.684 374.095C983.123 374.095 982.628 374.459 982.46 374.994L955.977 459.519H1011.44ZM1321.91 313.381C1329.05 313.381 1334.85 319.176 1334.85 326.324V541.413C1334.85 548.561 1329.05 554.356 1321.91 554.356H1292.23C1287.97 554.356 1283.99 552.264 1281.57 548.76L1189.83 415.711C1189.65 415.44 1189.34 415.277 1189.01 415.277C1188.45 415.277 1188.01 415.726 1188.01 416.28V541.413C1188.01 548.561 1182.21 554.356 1175.06 554.356H1142.71C1135.56 554.356 1129.76 548.561 1129.76 541.413V326.324C1129.76 319.176 1135.56 313.381 1142.71 313.381H1173.05C1177.33 313.381 1181.33 315.493 1183.74 319.024L1274.33 451.653C1274.58 452.01 1274.98 452.224 1275.41 452.224C1276.14 452.224 1276.72 451.638 1276.72 450.915V326.324C1276.72 319.176 1282.52 313.381 1289.67 313.381H1321.91ZM261.764 521.994C261.764 518.156 258.653 515.046 254.816 515.046H205.724C198.935 515.046 196.176 506.31 201.732 502.41L258.807 462.347C260.661 461.047 261.764 458.924 261.764 456.66V436.397C261.764 432.559 258.653 429.448 254.816 429.448H113.533C109.696 429.448 106.585 432.559 106.585 436.397V462.194C106.585 466.032 109.696 469.142 113.533 469.142H162.625C169.414 469.142 172.173 477.878 166.617 481.778L109.541 521.841C107.688 523.141 106.585 525.264 106.585 527.528V547.57C106.585 551.407 109.696 554.518 113.533 554.518H254.816C258.653 554.518 261.764 551.407 261.764 547.57V521.994Z" fill="white"/>
</svg>
