<svg width="1510" height="1056" viewBox="0 0 1510 1056" fill="none" xmlns="http://www.w3.org/2000/svg">
<path fill-rule="evenodd" clip-rule="evenodd" d="M672.638 50.7403L818.18 174.984C822.289 178.491 828.404 178.25 832.224 174.43L841.407 165.248C845.19 161.464 845.468 155.421 842.047 151.307L719.579 3.98959C715.683 -0.696258 708.604 -1.02162 704.295 3.28721L672.039 35.5434C667.768 39.8142 668.044 46.8189 672.638 50.7403ZM1040.29 413.932C1049.2 409.873 1060.39 409.78 1067.95 413.699C1080.69 420.301 1086.62 433.487 1086.48 454.889C1086.37 471.884 1083.06 484.817 1074.35 502.24C1068.47 514.011 1061.7 523.467 1042.66 546.522L1038.13 552.003L1044.08 559.183C1047.35 563.131 1053.26 569.04 1057.21 572.313L1064.39 578.262L1069.39 574.14C1098.01 550.566 1105.01 545.799 1122.18 538.186C1147.72 526.866 1178.5 526.85 1194.24 538.148C1205.13 545.957 1208.69 562.422 1202.46 576.103C1195.72 590.9 1175.1 606.38 1151.88 614.071C1123.79 623.371 1099.96 622.254 1074.1 610.427L1068.17 607.711L1049.69 627.272C1038.36 639.257 1023.99 655.216 1011.09 669.989L1034.6 693.5C1038.41 692.455 1042.36 691.422 1046.46 690.404C1079.86 682.105 1125.11 674.292 1183.09 670.086L1183.15 670.939C1233.52 667.259 1282.85 646.164 1321.36 607.652C1406.52 522.493 1406.52 384.422 1321.36 299.262C1236.2 214.103 1098.13 214.103 1012.97 299.262C973.543 338.69 952.37 389.459 949.451 441.068L950.384 441.136C946.178 499.113 938.365 544.368 930.066 577.767C929.309 580.813 928.543 583.78 927.771 586.666L946.404 605.3C961.177 592.406 977.136 578.029 989.121 566.705L1008.68 548.223L1005.97 542.288C994.139 516.433 993.022 492.603 1002.32 464.518C1010.01 441.295 1025.49 420.668 1040.29 413.932ZM849.04 595.615C852.034 587.669 855.805 576.061 859.725 560.287C866.101 534.626 872.504 499.421 876.621 453.968C876.491 379.441 904.857 304.873 961.719 248.011C1075.18 134.546 1259.15 134.546 1372.61 248.011C1486.08 361.476 1486.08 545.439 1372.61 658.904C1316.25 715.268 1242.49 743.633 1168.62 743.999C1123.96 748.12 1089.29 754.446 1063.94 760.745C1045.81 765.25 1033.19 769.557 1025.3 772.716L1019.68 778.329C1014.63 783.383 1006.43 783.383 1001.38 778.329L843.005 619.955C837.95 614.9 837.95 606.705 843.005 601.651L849.04 595.615ZM962.674 621.569C976.439 609.577 992.176 595.532 1008.38 580.716L1021.77 568.469L1027.47 575.41C1032.7 581.791 1040.39 588.965 1046.01 592.709C1048.23 594.188 1047.98 594.553 1035.85 607.817C1020.18 624.958 1006.33 640.444 994.791 653.687L962.674 621.569ZM1019.08 504.009C1017.59 476.028 1036.33 437.123 1052.97 433.66C1060.55 432.083 1064.79 441.929 1063.72 458.645C1062.45 478.739 1052.72 498.769 1032.4 523.169C1028.3 528.09 1026.29 529.855 1025.59 529.151C1023.31 526.87 1019.52 512.235 1019.08 504.009ZM1143.04 555.073C1152.3 552.493 1168.61 551.788 1174.3 553.72C1180.59 555.858 1183.59 559.306 1182.73 563.422C1179.31 579.885 1140.37 598.803 1112.93 597.341C1104.85 596.911 1089.46 593.027 1087.31 590.878C1086.52 590.086 1088.05 588.304 1093.22 583.994C1111.69 568.612 1127.6 559.379 1143.04 555.073ZM167.552 1042.45C168.857 1046.84 172.895 1049.86 177.478 1049.86H224.173C231.227 1049.86 236.216 1042.96 234.005 1036.26L158.564 807.647C157.164 803.404 153.199 800.538 148.731 800.538H86.0594C81.5911 800.538 77.6269 803.404 76.2266 807.647L0.785247 1036.26C-1.42544 1042.96 3.56367 1049.86 10.6181 1049.86H57.6685C62.2516 1049.86 66.2894 1046.84 67.5943 1042.45L73.8797 1021.29C75.1847 1016.9 79.2225 1013.88 83.8055 1013.88H151.341C155.924 1013.88 159.962 1016.9 161.267 1021.29L167.552 1042.45ZM106.302 959.033C99.3891 959.033 94.4176 952.389 96.3681 945.757L107.532 907.8C110.441 897.909 124.441 897.882 127.388 907.762L138.711 945.719C140.692 952.359 135.718 959.033 128.789 959.033H106.302ZM444.209 1049.86C452.406 1049.86 457.353 1040.78 452.913 1033.89L384.207 927.281C381.994 923.847 382.007 919.432 384.241 916.011L449.181 816.553C453.678 809.666 448.737 800.538 440.511 800.538H394.025C390.52 800.538 387.252 802.311 385.342 805.251L339.413 875.948C333.797 884.592 320.376 880.616 320.376 870.307V810.892C320.376 805.173 315.74 800.538 310.022 800.538H266.976C261.257 800.538 256.622 805.173 256.622 810.892V1039.5C256.622 1045.22 261.257 1049.86 266.976 1049.86H310.022C315.74 1049.86 320.376 1045.22 320.376 1039.5V973.662C320.376 963.325 333.857 959.369 339.443 968.067L388.91 1045.1C390.815 1048.06 394.097 1049.86 397.622 1049.86H444.209ZM650.169 1049.86C645.586 1049.86 641.548 1046.84 640.243 1042.45L633.957 1021.29C632.652 1016.9 628.615 1013.88 624.032 1013.88H556.496C551.913 1013.88 547.875 1016.9 546.57 1021.29L540.285 1042.45C538.98 1046.84 534.942 1049.86 530.359 1049.86H483.308C476.254 1049.86 471.265 1042.96 473.476 1036.26L548.917 807.647C550.317 803.404 554.282 800.538 558.75 800.538H621.422C625.89 800.538 629.854 803.404 631.254 807.647L706.696 1036.26C708.906 1042.96 703.917 1049.86 696.863 1049.86H650.169ZM569.059 945.757C567.108 952.389 572.08 959.033 578.992 959.033H601.48C608.409 959.033 613.383 952.359 611.402 945.719L600.078 907.762C597.131 897.882 583.131 897.909 580.222 907.8L569.059 945.757ZM1441.73 746.127C1447.16 739.347 1442.33 729.304 1433.65 729.304H1392.21C1388.44 729.304 1384.96 731.355 1383.14 734.657L1366.07 765.592C1362.27 772.493 1367.26 780.949 1375.14 780.949H1408.9C1412.04 780.949 1415.02 779.519 1416.98 777.063L1441.73 746.127ZM1443.02 1042.45C1444.32 1046.84 1448.36 1049.86 1452.94 1049.86H1499.64C1506.69 1049.86 1511.68 1042.96 1509.47 1036.26L1434.03 807.648C1432.63 803.404 1428.67 800.538 1424.2 800.538H1361.53C1357.06 800.538 1353.09 803.405 1351.69 807.648L1276.25 1036.26C1274.04 1042.96 1279.03 1049.86 1286.08 1049.86H1333.13C1337.72 1049.86 1341.76 1046.84 1343.06 1042.45L1349.35 1021.29C1350.65 1016.9 1354.69 1013.88 1359.27 1013.88H1426.81C1431.39 1013.88 1435.43 1016.9 1436.73 1021.29L1443.02 1042.45ZM1381.77 959.034C1374.85 959.034 1369.88 952.39 1371.83 945.758L1383 907.8C1385.91 897.91 1399.91 897.883 1402.85 907.762L1414.18 945.719C1416.16 952.36 1411.18 959.034 1404.25 959.034H1381.77ZM1272.5 917.387C1272.5 911.669 1267.86 907.033 1262.15 907.033H1157.13C1151.41 907.033 1146.77 911.669 1146.77 917.387V951.529C1146.77 957.247 1151.41 961.883 1157.13 961.883H1191.69C1199.1 961.883 1204.04 969.535 1199.33 975.265C1188.71 988.189 1172.26 994.651 1149.98 994.651C1127.42 994.651 1109.85 988.002 1097.27 974.705C1084.92 961.408 1078.74 945.143 1078.74 925.91C1078.74 905.964 1085.04 889.581 1097.62 876.758C1110.21 863.936 1126.35 857.525 1146.06 857.525C1158.17 857.525 1168.97 859.9 1178.47 864.649C1184.78 867.725 1190.09 871.449 1194.4 875.82C1198.29 879.756 1204.33 881.365 1209.13 878.618L1245.32 857.906C1250.43 854.979 1252.11 848.349 1248.51 843.684C1238.27 830.41 1225.14 819.471 1209.1 810.867C1189.87 800.419 1168.62 795.196 1145.35 795.196C1108.54 795.196 1077.68 807.78 1052.74 832.95C1027.81 858.119 1015.35 888.987 1015.35 925.554C1015.35 962.121 1027.81 992.87 1052.74 1017.8C1077.91 1042.73 1109.97 1055.2 1148.91 1055.2C1185.48 1055.2 1215.16 1043.92 1237.95 1021.36C1260.98 998.569 1272.5 968.888 1272.5 932.321V917.387ZM875.143 903.797C880.198 908.852 880.198 917.047 875.143 922.102L848.618 948.627C843.563 953.681 835.368 953.681 830.314 948.627L672.323 790.636C667.268 785.581 667.268 777.386 672.323 772.332L693.168 751.487C696.15 748.504 700.4 747.162 704.554 747.89L808.422 766.097C820.879 768.281 828.751 753.139 819.808 744.197L769.285 693.673C764.231 688.619 764.231 680.424 769.285 675.369L796.062 648.592C801.117 643.538 809.312 643.538 814.366 648.592L972.357 806.583C977.412 811.638 977.412 819.833 972.357 824.887L951.261 845.984C948.278 848.967 944.029 850.309 939.874 849.581L836.007 831.373C823.55 829.19 815.677 844.331 824.62 853.274L875.143 903.797ZM721.387 326.148L533.222 291.321C527.283 290.222 523.541 284.293 525.105 278.459L536.911 234.397C538.488 228.511 544.782 225.253 550.499 227.363L730.218 293.709C735.237 295.562 738.018 300.934 736.634 306.103L733.273 318.646C731.874 323.865 726.699 327.131 721.387 326.148ZM553.194 596.27L733.563 532.349C738.656 530.544 741.504 525.128 740.106 519.909L736.745 507.366C735.36 502.197 730.266 498.935 724.992 499.84L536.178 532.242C530.172 533.273 526.35 539.242 527.927 545.128L539.734 589.19C541.297 595.024 547.501 598.288 553.194 596.27Z" fill="white"/>
</svg>
