<svg width="1056" height="1192" viewBox="0 0 1056 1192" fill="none" xmlns="http://www.w3.org/2000/svg">
<path fill-rule="evenodd" clip-rule="evenodd" d="M1055.42 529.826C1055.42 728.394 946.094 901.426 784.348 992.012C900.723 916.892 977.765 786.069 977.765 637.252C977.765 404.221 788.856 215.311 555.824 215.311C515.227 215.311 475.97 221.045 438.817 231.746C426.207 235.378 412.566 229.828 406.824 218.029L332.947 66.2331C326.447 52.8771 332.478 36.743 346.451 31.704C402.53 11.4806 463.006 0.457886 526.055 0.457886C818.417 0.457886 1055.42 237.464 1055.42 529.826ZM149.101 171.653L283.396 286.295C287.505 289.802 293.62 289.561 297.44 285.741L305.045 278.136C308.828 274.353 309.106 268.31 305.686 264.195L192.682 128.263C188.786 123.577 181.707 123.252 177.398 127.561L148.502 156.456C144.231 160.727 144.507 167.732 149.101 171.653ZM22.1693 400.274L195.793 432.409C201.105 433.392 206.28 430.126 207.679 424.907L210.462 414.519C211.847 409.35 209.066 403.978 204.047 402.125L38.2162 340.906C32.4997 338.796 26.2059 342.054 24.6287 347.94L14.0522 387.412C12.489 393.246 16.2304 399.174 22.1693 400.274ZM191.613 611.637L25.1832 670.618C19.4903 672.636 13.2861 669.373 11.7229 663.539L1.14632 624.066C-0.430816 618.181 3.39078 612.212 9.39658 611.181L183.619 581.283C188.893 580.378 193.987 583.64 195.372 588.809L198.156 599.197C199.554 604.416 196.705 609.832 191.613 611.637ZM142.787 880.646L249.313 774.739C253.16 770.914 253.403 764.77 249.871 760.653L246.679 756.933C243.179 752.853 237.139 752.13 232.775 755.269L110.71 843.065C105.784 846.608 104.946 853.608 108.897 858.213L127.628 880.045C131.546 884.612 138.519 884.888 142.787 880.646ZM320.608 901.755L279.21 988.602C276.612 994.054 269.917 996.133 264.686 993.113L251.87 985.714C246.593 982.667 245.075 975.744 248.593 970.769L304.192 892.134C307.041 888.105 312.49 886.91 316.763 889.378C321.077 891.869 322.752 897.258 320.608 901.755ZM482.626 653.281C474.59 655.825 466.827 663.7 463.431 672.756C457.791 687.788 461.391 712.995 472.26 734.577C485.406 760.676 502.863 776.533 529.232 786.326L535.285 788.574L534.53 815.133C534.073 831.228 532.984 852.123 531.689 871.267H509.825C507.174 866.524 504.298 861.587 501.196 856.471C483.583 827.417 457.458 790.588 420.123 747.503L420.37 747.603C384.797 709.147 363.082 657.853 363.082 601.523C363.082 482.221 460.487 385.507 580.643 385.507C700.799 385.507 798.204 482.221 798.204 601.523C798.204 655.651 778.153 705.13 745.023 743.035L745.109 743.135C706.978 786.958 680.393 824.379 662.546 853.818C658.862 859.895 655.496 865.72 652.446 871.267H622.137C620.842 852.123 619.753 831.228 619.296 815.133L618.541 788.574L624.594 786.326C650.963 776.533 668.42 760.676 681.566 734.577C692.435 712.995 696.035 687.788 690.395 672.756C685.181 658.855 671.166 649.848 658.086 651.995C639.162 655.099 617.635 676.597 607.686 702.328C600.996 719.632 599.433 727.848 595.905 764.283L595.289 770.654L586.101 771.512C581.047 771.984 572.779 771.984 567.725 771.512L558.537 770.654L557.87 763.667C555.064 734.276 553.182 722.95 549.062 710.626C542.962 692.385 536.23 681.042 524.414 669.101C509.534 654.063 496.157 649 482.626 653.281ZM436.982 894.85C448.308 913.531 454.45 926.672 457.387 934.067C457.52 944.112 465.705 952.214 475.782 952.214H685.507C694.423 952.214 701.858 945.871 703.545 937.451L704.221 937.611C705.115 933.897 710.773 918.567 726.76 892.196C742.225 866.687 766.321 832.55 802.141 791.422L802.043 791.339C846.353 740.433 873.154 674.086 873.154 601.523C873.154 441.121 742.192 311.089 580.643 311.089C419.093 311.089 288.132 441.121 288.132 601.523C288.132 675.381 315.898 742.8 361.632 794.05L361.602 794.076C397.422 835.204 421.517 869.34 436.982 894.85ZM557.811 811.47C556.851 832.872 555.684 853.431 554.459 871.267H599.322C598.146 854.1 597.018 833.837 596.002 811.207C595.206 793.482 595.122 793.056 592.534 793.573C585.982 794.882 575.581 795.241 567.455 794.439L558.614 793.568L557.811 811.47ZM486.11 677.675C476.89 691.708 490.999 731.954 511.622 750.447C517.686 755.884 530.577 763.457 533.769 763.457C534.754 763.457 534.924 760.823 534.35 754.525C531.497 723.303 524.286 702.53 511.118 687.61C500.165 675.199 490.309 671.283 486.11 677.675ZM655.026 676.789C649.693 679.411 638.774 691.291 634.102 699.554C626.304 713.345 621.636 730.894 619.476 754.525C618.872 761.146 619.049 763.457 620.158 763.457C623.166 763.457 636.653 755.424 642.605 750.086C662.834 731.947 676.838 691.562 667.716 677.675C665.436 674.203 660.924 673.889 655.026 676.789ZM692.864 1128.67C698.96 1128.67 703.902 1133.61 703.902 1139.71V1180.34C703.902 1186.43 698.96 1191.37 692.864 1191.37H468.421C462.325 1191.37 457.383 1186.43 457.383 1180.34V1148.5C457.383 1144.9 459.136 1141.53 462.08 1139.46L552.75 1075.82C561.578 1069.62 557.194 1055.75 546.409 1055.75H468.422C462.325 1055.75 457.383 1050.8 457.383 1044.71V1003.73C457.383 997.629 462.325 992.687 468.421 992.687H692.864C698.96 992.687 703.902 997.629 703.902 1003.73V1035.92C703.902 1039.51 702.15 1042.88 699.206 1044.95L608.535 1108.6C599.708 1114.79 604.092 1128.67 614.877 1128.67H692.864Z" fill="url(#paint0_linear_45_168)"/>
<defs>
<linearGradient id="paint0_linear_45_168" x1="528.107" y1="0.457886" x2="528.107" y2="1191.37" gradientUnits="userSpaceOnUse">
<stop stop-color="#FF63B9"/>
<stop offset="1" stop-color="#8A05FE"/>
</linearGradient>
</defs>
</svg>
