<svg width="1843" height="558" viewBox="0 0 1843 558" fill="none" xmlns="http://www.w3.org/2000/svg">
<path fill-rule="evenodd" clip-rule="evenodd" d="M321.478 182.841C321.478 107.742 260.163 46.8632 184.527 46.8632C108.892 46.8632 47.5771 107.742 47.5771 182.841C47.5771 218.299 61.2465 250.588 83.6387 274.795L83.4832 274.732C106.985 301.853 123.43 325.037 134.518 343.326C136.47 346.546 138.28 349.654 139.949 352.639H153.712C154.527 340.589 155.213 327.436 155.5 317.304L155.975 300.585L152.165 299.171C135.567 293.006 124.578 283.025 116.303 266.595C109.461 253.01 107.195 237.143 110.745 227.68C112.882 221.98 117.77 217.023 122.828 215.421C131.345 212.726 139.766 215.914 149.133 225.38C156.57 232.896 160.808 240.036 164.648 251.519C167.242 259.277 168.426 266.406 170.193 284.907L170.613 289.305L176.396 289.846C179.577 290.143 184.782 290.143 187.963 289.846L193.747 289.305L194.135 285.295C196.356 262.359 197.339 257.188 201.551 246.296C207.813 230.098 221.364 216.566 233.276 214.612C241.51 213.26 250.332 218.93 253.615 227.68C257.165 237.143 254.898 253.01 248.056 266.595C239.781 283.025 228.793 293.006 212.194 299.171L208.384 300.585L208.859 317.304C209.147 327.436 209.832 340.589 210.647 352.639H229.726C231.646 349.148 233.765 345.481 236.084 341.655C247.318 323.124 264.053 299.568 288.055 271.983L288.002 271.92C308.856 248.059 321.478 216.913 321.478 182.841ZM261.891 394.301L262.317 394.402C262.88 392.064 266.442 382.414 276.505 365.814C286.24 349.756 301.408 328.268 323.956 302.379L323.895 302.326C351.787 270.282 368.658 228.518 368.658 182.841C368.658 81.8709 286.22 0.0187283 184.527 0.0187378C82.8353 0.0187498 0.397449 81.8709 0.397461 182.841C0.397465 229.333 17.8759 271.772 46.6644 304.033L46.6455 304.049C69.1933 329.938 84.3611 351.426 94.0959 367.484C101.224 379.243 105.091 387.514 106.94 392.169C107.023 398.493 112.176 403.594 118.519 403.594H250.537C256.149 403.594 260.829 399.601 261.891 394.301ZM168.045 352.639H196.286C195.545 341.833 194.836 329.078 194.196 314.833C193.695 303.675 193.642 303.407 192.013 303.732C187.889 304.556 181.341 304.783 176.226 304.278L170.661 303.729L170.155 314.998C169.551 328.47 168.816 341.412 168.045 352.639ZM141.08 276.585C128.099 264.944 119.217 239.61 125.021 230.777C127.664 226.753 133.868 229.218 140.763 237.031C149.052 246.423 153.591 259.498 155.387 279.152C155.748 283.117 155.641 284.775 155.021 284.775C153.012 284.775 144.897 280.008 141.08 276.585ZM218.179 244.549C221.12 239.347 227.993 231.87 231.35 230.219C235.063 228.394 237.903 228.591 239.338 230.777C245.081 239.518 236.265 264.94 223.532 276.358C219.785 279.718 211.295 284.775 209.402 284.775C208.703 284.775 208.592 283.32 208.972 279.152C210.332 264.277 213.27 253.23 218.179 244.549ZM1673.35 544.905C1671.66 550.304 1666.66 553.978 1661 553.978H1625.94C1617.09 553.978 1610.85 545.287 1613.68 536.897L1686.25 321.809C1688.02 316.546 1692.96 313.003 1698.51 313.003H1757.47C1763.02 313.003 1767.96 316.546 1769.73 321.809L1842.3 536.897C1845.13 545.287 1838.89 553.978 1830.04 553.978H1794.97C1789.32 553.978 1784.32 550.307 1782.62 544.912L1769.58 503.383H1686.36L1673.35 544.905ZM1729.15 374.616L1755.69 459.141H1700.23L1726.71 374.616C1726.88 374.082 1727.37 373.718 1727.93 373.718C1728.49 373.718 1728.99 374.081 1729.15 374.616ZM1728.14 290.059C1718.76 290.059 1712.5 280.388 1716.33 271.825L1728.5 244.645C1730.59 239.989 1735.22 236.993 1740.32 236.993H1758.64C1768.99 236.993 1775.15 248.538 1769.39 257.137L1751.19 284.318C1748.79 287.906 1744.75 290.059 1740.44 290.059H1728.14ZM1526.39 382.494C1529.12 387.669 1534.03 391.72 1539.88 391.72H1574.36C1582.1 391.72 1588.21 384.909 1586.07 377.462C1584.17 370.852 1581.51 364.583 1578.09 358.657C1572.28 348.616 1564.71 339.948 1555.38 332.653C1546.12 325.358 1535.45 319.71 1523.37 315.71C1511.37 311.709 1498.39 309.709 1484.43 309.709C1468.35 309.709 1453.32 312.454 1439.36 317.945C1425.48 323.436 1413.24 331.516 1402.65 342.184C1392.14 352.852 1383.94 365.874 1378.06 381.248C1372.18 396.544 1369.23 414.076 1369.23 433.844C1369.23 459.259 1374.1 481.223 1383.82 499.735C1393.55 518.169 1407.12 532.367 1424.54 542.329C1441.95 552.292 1462.15 557.273 1485.13 557.273C1505.84 557.273 1524.16 553.154 1540.08 544.918C1556.08 536.682 1568.63 524.876 1577.73 509.501C1586.91 494.127 1591.5 475.654 1591.5 454.082V435.138C1591.5 427.99 1585.71 422.195 1578.56 422.195H1500.55C1493.4 422.195 1487.6 427.99 1487.6 435.138V451.729C1487.6 458.877 1493.4 464.672 1500.55 464.672H1543.9C1539.16 465.244 1535.33 469.308 1534.26 474.201C1533.31 478.52 1531.76 482.482 1529.61 486.086C1525.77 492.519 1520.12 497.5 1512.67 501.03C1505.29 504.481 1496.27 506.207 1485.6 506.207C1473.52 506.207 1463.25 503.344 1454.78 497.617C1446.3 491.891 1439.83 483.576 1435.36 472.673C1430.89 461.769 1428.65 448.591 1428.65 433.138C1428.65 417.763 1430.97 404.702 1435.6 393.956C1440.22 383.131 1446.77 374.894 1455.25 369.247C1463.8 363.599 1473.92 360.775 1485.6 360.775C1491.41 360.775 1496.74 361.481 1501.61 362.893C1506.47 364.226 1510.78 366.227 1514.55 368.894C1518.31 371.561 1521.49 374.816 1524.08 378.66C1524.92 379.876 1525.69 381.154 1526.39 382.494ZM441.183 544.905C439.491 550.304 434.489 553.978 428.832 553.978H393.77C384.916 553.978 378.675 545.287 381.506 536.897L454.078 321.809C455.853 316.546 460.788 313.003 466.341 313.003H525.296C530.849 313.003 535.784 316.546 537.56 321.809L610.131 536.897C612.962 545.287 606.721 553.978 597.867 553.978H562.799C557.145 553.978 552.145 550.307 550.451 544.912L537.412 503.383H454.192L441.183 544.905ZM496.983 374.616L523.521 459.141H468.054L494.537 374.616C494.704 374.082 495.2 373.718 495.76 373.718C496.32 373.718 496.815 374.081 496.983 374.616ZM654.782 553.978C647.634 553.978 641.839 548.183 641.839 541.035V325.946C641.839 318.798 647.634 313.003 654.782 313.003H687.139C694.287 313.003 700.082 318.798 700.082 325.946V412.764C700.082 413.944 701.038 414.9 702.218 414.9C702.875 414.9 703.496 414.597 703.9 414.08L779.031 317.975C781.484 314.837 785.245 313.003 789.228 313.003H824.705C835.537 313.003 841.577 325.515 834.84 333.997L771.892 413.245C768.428 417.606 768.142 423.695 771.183 428.362L840.005 533.969C845.616 542.578 839.438 553.978 829.161 553.978H790.51C786.075 553.978 781.95 551.708 779.576 547.962L733.138 474.662C728.368 467.133 717.592 466.566 712.058 473.553L702.879 485.144C701.068 487.431 700.082 490.262 700.082 493.18V541.035C700.082 548.183 694.287 553.978 687.139 553.978H654.782ZM917.106 553.978C922.763 553.978 927.765 550.304 929.457 544.905L942.466 503.383H1025.69L1038.72 544.912C1040.42 550.307 1045.42 553.978 1051.07 553.978H1086.14C1095 553.978 1101.24 545.287 1098.4 536.897L1025.83 321.809C1024.06 316.546 1019.12 313.003 1013.57 313.003H954.615C949.061 313.003 944.127 316.546 942.351 321.809L869.78 536.897C866.949 545.287 873.189 553.978 882.044 553.978H917.106ZM1011.8 459.141L985.257 374.616C985.089 374.081 984.594 373.718 984.034 373.718C983.474 373.718 982.978 374.082 982.811 374.616L956.328 459.141H1011.8ZM1322.26 313.003C1329.41 313.003 1335.2 318.798 1335.2 325.946V541.035C1335.2 548.183 1329.41 553.978 1322.26 553.978H1292.58C1288.32 553.978 1284.34 551.886 1281.92 548.382L1190.18 415.334C1190 415.062 1189.69 414.9 1189.36 414.9C1188.81 414.9 1188.36 415.349 1188.36 415.903V541.035C1188.36 548.183 1182.56 553.978 1175.41 553.978H1143.06C1135.91 553.978 1130.11 548.183 1130.11 541.035V325.946C1130.11 318.798 1135.91 313.003 1143.06 313.003H1173.4C1177.68 313.003 1181.68 315.115 1184.09 318.646L1274.68 451.276C1274.93 451.633 1275.33 451.846 1275.77 451.846C1276.49 451.846 1277.07 451.26 1277.07 450.537V325.946C1277.07 318.798 1282.87 313.003 1290.02 313.003H1322.26ZM262.117 521.616C262.117 517.779 259.006 514.668 255.168 514.668H206.077C199.288 514.668 196.528 505.933 202.085 502.033L259.16 461.97C261.013 460.669 262.117 458.547 262.117 456.283V436.019C262.117 432.182 259.006 429.071 255.168 429.071H113.886C110.049 429.071 106.938 432.182 106.938 436.019V461.817C106.938 465.654 110.049 468.765 113.886 468.765H162.978C169.766 468.765 172.526 477.5 166.969 481.4L109.894 521.463C108.041 522.764 106.938 524.886 106.938 527.15V547.192C106.938 551.029 110.049 554.14 113.886 554.14H255.168C259.006 554.14 262.117 551.029 262.117 547.192V521.616Z" fill="url(#paint0_linear_45_167)"/>
<defs>
<linearGradient id="paint0_linear_45_167" x1="921.695" y1="0.0187378" x2="921.695" y2="557.273" gradientUnits="userSpaceOnUse">
<stop stop-color="#FF63B9"/>
<stop offset="1" stop-color="#8A05FE"/>
</linearGradient>
</defs>
</svg>
