<svg width="1511" height="1056" viewBox="0 0 1511 1056" fill="none" xmlns="http://www.w3.org/2000/svg">
<path fill-rule="evenodd" clip-rule="evenodd" d="M673.265 51.2473L818.807 175.491C822.916 178.998 829.031 178.757 832.851 174.937L842.034 165.755C845.817 161.971 846.095 155.928 842.674 151.814L720.206 4.49667C716.31 -0.189178 709.231 -0.514536 704.922 3.79429L672.666 36.0505C668.395 40.3213 668.671 47.3259 673.265 51.2473ZM1040.92 414.439C1049.83 410.38 1061.02 410.287 1068.58 414.206C1081.31 420.808 1087.25 433.994 1087.11 455.396C1087 472.391 1083.68 485.324 1074.98 502.747C1069.1 514.518 1062.33 523.974 1043.28 547.029L1038.76 552.51L1044.71 559.69C1047.98 563.638 1053.89 569.547 1057.84 572.82L1065.02 578.77L1070.02 574.647C1098.64 551.073 1105.64 546.306 1122.81 538.693C1148.35 527.373 1179.13 527.357 1194.87 538.655C1205.75 546.464 1209.32 562.929 1203.09 576.61C1196.35 591.407 1175.73 606.887 1152.5 614.578C1124.42 623.878 1100.59 622.761 1074.73 610.934L1068.8 608.218L1050.31 627.779C1038.99 639.764 1024.61 655.723 1011.72 670.496L1035.23 694.007C1039.04 692.962 1042.99 691.929 1047.09 690.911C1080.48 682.612 1125.74 674.799 1183.72 670.594L1183.78 671.446C1234.14 667.767 1283.48 646.671 1321.99 608.16C1407.15 523 1407.15 384.929 1321.99 299.769C1236.83 214.61 1098.76 214.61 1013.6 299.77C974.17 339.197 952.997 389.966 950.078 441.575L951.011 441.643C946.805 499.62 938.992 544.875 930.693 578.274C929.936 581.32 929.17 584.287 928.398 587.173L947.031 605.807C961.804 592.913 977.763 578.536 989.748 567.212L1009.31 548.73L1006.59 542.795C994.766 516.94 993.649 493.11 1002.95 465.025C1010.64 441.802 1026.12 421.175 1040.92 414.439ZM849.667 596.122C852.661 588.176 856.432 576.568 860.352 560.794C866.728 535.133 873.131 499.928 877.248 454.475C877.118 379.948 905.484 305.38 962.346 248.518C1075.81 135.053 1259.77 135.053 1373.24 248.518C1486.7 361.983 1486.7 545.946 1373.24 659.411C1316.88 715.775 1243.12 744.14 1169.24 744.506C1124.58 748.628 1089.92 754.953 1064.56 761.253C1046.44 765.757 1033.81 770.065 1025.92 773.223L1020.31 778.836C1015.26 783.89 1007.06 783.89 1002.01 778.836L843.632 620.462C838.577 615.407 838.577 607.212 843.632 602.158L849.667 596.122ZM963.301 622.076C977.065 610.084 992.803 596.039 1009.01 581.224L1022.4 568.976L1028.09 575.917C1033.33 582.298 1041.02 589.472 1046.63 593.216C1048.85 594.695 1048.61 595.06 1036.48 608.324C1020.81 625.465 1006.96 640.951 995.418 654.194L963.301 622.076ZM1019.71 504.516C1018.22 476.536 1036.96 437.63 1053.6 434.167C1061.18 432.59 1065.41 442.436 1064.35 459.152C1063.07 479.246 1053.35 499.276 1033.03 523.676C1028.93 528.597 1026.92 530.362 1026.21 529.658C1023.93 527.378 1020.15 512.742 1019.71 504.516ZM1143.67 555.58C1152.93 553 1169.24 552.295 1174.93 554.227C1181.22 556.365 1184.22 559.813 1183.36 563.929C1179.93 580.392 1141 599.31 1113.56 597.848C1105.48 597.418 1090.09 593.535 1087.94 591.385C1087.15 590.593 1088.68 588.811 1093.85 584.501C1112.32 569.119 1128.22 559.886 1143.67 555.58ZM168.179 1042.96C169.484 1047.35 173.522 1050.36 178.105 1050.36H224.799C231.854 1050.36 236.843 1043.46 234.632 1036.76L159.191 808.154C157.791 803.911 153.826 801.045 149.358 801.045H86.6864C82.2181 801.045 78.2538 803.911 76.8536 808.154L1.4122 1036.76C-0.798485 1043.46 4.19062 1050.36 11.245 1050.36H58.2955C62.8785 1050.36 66.9163 1047.35 68.2213 1042.96L74.5067 1021.8C75.8116 1017.4 79.8495 1014.39 84.4325 1014.39H151.968C156.551 1014.39 160.589 1017.4 161.894 1021.8L168.179 1042.96ZM106.929 959.54C100.016 959.54 95.0445 952.896 96.9951 946.264L108.159 908.307C111.068 898.417 125.068 898.39 128.015 908.269L139.338 946.226C141.319 952.866 136.345 959.54 129.416 959.54H106.929ZM444.836 1050.36C453.033 1050.36 457.98 1041.29 453.54 1034.4L384.834 927.788C382.621 924.354 382.634 919.939 384.868 916.518L449.808 817.06C454.305 810.173 449.364 801.045 441.138 801.045H394.652C391.147 801.045 387.879 802.818 385.969 805.758L340.04 876.455C334.424 885.1 321.003 881.123 321.003 870.814V811.399C321.003 805.681 316.367 801.045 310.649 801.045H267.603C261.884 801.045 257.249 805.681 257.249 811.399V1040.01C257.249 1045.73 261.884 1050.36 267.603 1050.36H310.649C316.367 1050.36 321.003 1045.73 321.003 1040.01V974.169C321.003 963.832 334.484 959.876 340.07 968.574L389.537 1045.6C391.442 1048.57 394.724 1050.36 398.249 1050.36H444.836ZM650.796 1050.36C646.213 1050.36 642.175 1047.35 640.87 1042.96L634.584 1021.8C633.279 1017.4 629.242 1014.39 624.659 1014.39H557.123C552.54 1014.39 548.502 1017.4 547.197 1021.8L540.912 1042.96C539.607 1047.35 535.569 1050.36 530.986 1050.36H483.935C476.881 1050.36 471.892 1043.46 474.103 1036.76L549.544 808.154C550.944 803.911 554.909 801.045 559.377 801.045H622.049C626.517 801.045 630.481 803.911 631.881 808.154L707.323 1036.76C709.533 1043.46 704.544 1050.36 697.49 1050.36H650.796ZM569.685 946.264C567.735 952.896 572.706 959.54 579.619 959.54H602.107C609.036 959.54 614.01 952.866 612.029 946.226L600.705 908.269C597.758 898.39 583.758 898.417 580.849 908.307L569.685 946.264ZM1442.36 746.634C1447.78 739.854 1442.96 729.811 1434.27 729.811H1392.83C1389.06 729.811 1385.59 731.862 1383.77 735.164L1366.7 766.1C1362.89 773.001 1367.88 781.456 1375.77 781.456H1409.53C1412.67 781.456 1415.65 780.026 1417.61 777.57L1442.36 746.634ZM1443.65 1042.96C1444.95 1047.35 1448.99 1050.36 1453.57 1050.36H1500.27C1507.32 1050.36 1512.31 1043.46 1510.1 1036.76L1434.66 808.155C1433.26 803.912 1429.29 801.045 1424.82 801.045H1362.15C1357.68 801.045 1353.72 803.912 1352.32 808.155L1276.88 1036.76C1274.67 1043.46 1279.66 1050.36 1286.71 1050.36H1333.76C1338.34 1050.36 1342.38 1047.35 1343.69 1042.96L1349.97 1021.8C1351.28 1017.4 1355.32 1014.39 1359.9 1014.39H1427.43C1432.02 1014.39 1436.05 1017.4 1437.36 1021.8L1443.65 1042.96ZM1382.39 959.541C1375.48 959.541 1370.51 952.897 1372.46 946.265L1383.62 908.307C1386.53 898.417 1400.53 898.39 1403.48 908.269L1414.8 946.226C1416.79 952.867 1411.81 959.541 1404.88 959.541H1382.39ZM1273.13 917.894C1273.13 912.176 1268.49 907.54 1262.77 907.54H1157.75C1152.04 907.54 1147.4 912.176 1147.4 917.894V952.036C1147.4 957.754 1152.04 962.39 1157.75 962.39H1192.31C1199.73 962.39 1204.67 970.042 1199.96 975.772C1189.34 988.696 1172.89 995.158 1150.61 995.158C1128.05 995.158 1110.48 988.509 1097.89 975.212C1085.54 961.915 1079.37 945.65 1079.37 926.417C1079.37 906.471 1085.66 890.088 1098.25 877.266C1110.83 864.443 1126.98 858.032 1146.69 858.032C1158.8 858.032 1169.6 860.407 1179.1 865.156C1185.4 868.232 1190.71 871.956 1195.03 876.327C1198.91 880.263 1204.96 881.872 1209.76 879.125L1245.94 858.413C1251.06 855.486 1252.73 848.856 1249.14 844.191C1238.9 830.917 1225.76 819.978 1209.73 811.374C1190.5 800.926 1169.24 795.703 1145.97 795.703C1109.17 795.703 1078.3 808.287 1053.37 833.457C1028.44 858.626 1015.97 889.494 1015.97 926.061C1015.97 962.628 1028.44 993.377 1053.37 1018.31C1078.54 1043.24 1110.6 1055.71 1149.54 1055.71C1186.1 1055.71 1215.78 1044.43 1238.58 1021.87C1261.61 999.076 1273.13 969.395 1273.13 932.828V917.894ZM875.77 904.304C880.825 909.359 880.825 917.554 875.77 922.609L849.245 949.134C844.19 954.188 835.995 954.188 830.941 949.134L672.95 791.143C667.895 786.088 667.895 777.893 672.95 772.839L693.795 751.994C696.777 749.011 701.027 747.669 705.181 748.397L809.049 766.604C821.506 768.788 829.378 753.646 820.435 744.704L769.912 694.18C764.858 689.126 764.858 680.931 769.912 675.876L796.689 649.099C801.744 644.045 809.939 644.045 814.993 649.099L972.984 807.09C978.039 812.145 978.039 820.34 972.984 825.394L951.888 846.491C948.905 849.474 944.656 850.816 940.501 850.088L836.634 831.881C824.177 829.697 816.304 844.838 825.247 853.781L875.77 904.304ZM722.014 326.655L533.849 291.828C527.91 290.729 524.168 284.801 525.731 278.967L537.538 234.904C539.115 229.018 545.409 225.76 551.126 227.87L730.845 294.216C735.864 296.069 738.645 301.441 737.261 306.61L733.9 319.153C732.501 324.372 727.326 327.638 722.014 326.655ZM553.821 596.777L734.19 532.856C739.282 531.051 742.131 525.635 740.733 520.416L737.372 507.873C735.987 502.704 730.893 499.442 725.619 500.347L536.805 532.75C530.799 533.78 526.977 539.749 528.554 545.635L540.361 589.698C541.924 595.531 548.128 598.795 553.821 596.777Z" fill="url(#paint0_linear_45_166)"/>
<defs>
<linearGradient id="paint0_linear_45_166" x1="755.755" y1="0.761475" x2="755.755" y2="1055.71" gradientUnits="userSpaceOnUse">
<stop stop-color="#FF63B9"/>
<stop offset="1" stop-color="#8A05FE"/>
</linearGradient>
</defs>
</svg>
