<svg width="1566" height="1112" viewBox="0 0 1566 1112" fill="none" xmlns="http://www.w3.org/2000/svg">
<g filter="url(#filter0_f_45_162)">
<path fill-rule="evenodd" clip-rule="evenodd" d="M700.578 78.7403L846.12 202.984C850.229 206.491 856.344 206.25 860.165 202.43L869.347 193.248C873.13 189.464 873.408 183.421 869.988 179.307L747.519 31.9896C743.624 27.3037 736.544 26.9784 732.235 31.2872L699.979 63.5434C695.708 67.8142 695.984 74.8189 700.578 78.7403ZM1068.23 441.932C1077.14 437.873 1088.33 437.78 1095.89 441.699C1108.63 448.301 1114.56 461.487 1114.42 482.889C1114.31 499.884 1111 512.817 1102.29 530.24C1096.41 542.011 1089.64 551.467 1070.6 574.522L1066.07 580.003L1072.02 587.183C1075.29 591.131 1081.2 597.04 1085.15 600.313L1092.33 606.262L1097.33 602.14C1125.95 578.566 1132.95 573.799 1150.12 566.186C1175.66 554.866 1206.44 554.85 1222.18 566.148C1233.07 573.957 1236.63 590.422 1230.4 604.103C1223.67 618.9 1203.04 634.38 1179.82 642.071C1151.73 651.371 1127.9 650.254 1102.05 638.427L1096.11 635.711L1077.63 655.272C1066.3 667.257 1051.93 683.216 1039.03 697.989L1062.55 721.5C1066.35 720.455 1070.3 719.422 1074.4 718.404C1107.8 710.105 1153.05 702.292 1211.03 698.086L1211.09 698.939C1261.46 695.259 1310.79 674.164 1349.3 635.652C1434.46 550.493 1434.46 412.422 1349.3 327.262C1264.14 242.103 1126.07 242.103 1040.91 327.262C1001.48 366.69 980.31 417.459 977.392 469.068L978.324 469.136C974.119 527.113 966.306 572.368 958.007 605.767C957.249 608.813 956.484 611.78 955.711 614.666L974.345 633.3C989.117 620.406 1005.08 606.029 1017.06 594.705L1036.62 576.223L1033.91 570.288C1022.08 544.433 1020.96 520.603 1030.26 492.518C1037.95 469.295 1053.43 448.668 1068.23 441.932ZM876.981 623.615C879.975 615.669 883.746 604.061 887.665 588.287C894.042 562.626 900.445 527.421 904.561 481.968C904.431 407.441 932.797 332.873 989.66 276.011C1103.12 162.546 1287.09 162.546 1400.55 276.011C1514.02 389.476 1514.02 573.439 1400.55 686.904C1344.19 743.268 1270.43 771.633 1196.56 771.999C1151.9 776.12 1117.23 782.446 1091.88 788.745C1073.75 793.25 1061.13 797.557 1053.24 800.716L1047.62 806.329C1042.57 811.383 1034.37 811.383 1029.32 806.329L870.945 647.955C865.891 642.9 865.891 634.705 870.945 629.651L876.981 623.615ZM990.614 649.569C1004.38 637.577 1020.12 623.532 1036.32 608.716L1049.71 596.469L1055.41 603.41C1060.64 609.791 1068.33 616.965 1073.95 620.709C1076.17 622.188 1075.92 622.553 1063.8 635.817C1048.12 652.958 1034.27 668.444 1022.73 681.687L990.614 649.569ZM1047.02 532.009C1045.53 504.028 1064.27 465.123 1080.91 461.66C1088.49 460.083 1092.73 469.929 1091.66 486.645C1090.39 506.739 1080.66 526.769 1060.34 551.169C1056.24 556.09 1054.23 557.855 1053.53 557.151C1051.25 554.87 1047.46 540.235 1047.02 532.009ZM1170.99 583.073C1180.24 580.493 1196.55 579.788 1202.24 581.72C1208.53 583.858 1211.53 587.306 1210.67 591.422C1207.25 607.885 1168.32 626.803 1140.87 625.341C1132.79 624.911 1117.4 621.027 1115.25 618.878C1114.46 618.086 1115.99 616.304 1121.16 611.994C1139.63 596.612 1155.54 587.379 1170.99 583.073ZM195.493 1070.45C196.798 1074.84 200.836 1077.86 205.419 1077.86H252.113C259.167 1077.86 264.156 1070.96 261.946 1064.26L186.504 835.647C185.104 831.404 181.14 828.538 176.672 828.538H114C109.532 828.538 105.567 831.404 104.167 835.647L28.7257 1064.26C26.515 1070.96 31.5041 1077.86 38.5585 1077.86H85.609C90.192 1077.86 94.2298 1074.84 95.5348 1070.45L101.82 1049.29C103.125 1044.9 107.163 1041.88 111.746 1041.88H179.282C183.865 1041.88 187.903 1044.9 189.207 1049.29L195.493 1070.45ZM134.242 987.033C127.33 987.033 122.358 980.389 124.309 973.757L135.472 935.8C138.381 925.909 152.381 925.882 155.328 935.762L166.652 973.719C168.633 980.359 163.659 987.033 156.73 987.033H134.242ZM472.149 1077.86C480.347 1077.86 485.294 1068.78 480.853 1061.89L412.148 955.281C409.934 951.847 409.948 947.432 412.181 944.011L477.122 844.553C481.619 837.666 476.677 828.538 468.452 828.538H421.966C418.46 828.538 415.193 830.311 413.283 833.251L367.354 903.948C361.738 912.592 348.316 908.616 348.316 898.307V838.892C348.316 833.173 343.681 828.538 337.962 828.538H294.916C289.198 828.538 284.562 833.173 284.562 838.892V1067.5C284.562 1073.22 289.198 1077.86 294.916 1077.86H337.962C343.681 1077.86 348.316 1073.22 348.316 1067.5V1001.66C348.316 991.325 361.798 987.369 367.383 996.067L416.85 1073.1C418.755 1076.06 422.038 1077.86 425.563 1077.86H472.149ZM678.109 1077.86C673.526 1077.86 669.488 1074.84 668.183 1070.45L661.898 1049.29C660.593 1044.9 656.555 1041.88 651.972 1041.88H584.436C579.853 1041.88 575.816 1044.9 574.511 1049.29L568.225 1070.45C566.92 1074.84 562.882 1077.86 558.299 1077.86H511.249C504.194 1077.86 499.205 1070.96 501.416 1064.26L576.857 835.647C578.258 831.404 582.222 828.538 586.69 828.538H649.362C653.83 828.538 657.795 831.404 659.195 835.647L734.636 1064.26C736.847 1070.96 731.858 1077.86 724.803 1077.86H678.109ZM596.999 973.757C595.048 980.389 600.02 987.033 606.933 987.033H629.42C636.349 987.033 641.323 980.359 639.342 973.719L628.019 935.762C625.072 925.882 611.072 925.909 608.163 935.8L596.999 973.757ZM1469.67 774.127C1475.1 767.347 1470.27 757.304 1461.59 757.304H1420.15C1416.38 757.304 1412.9 759.355 1411.08 762.657L1394.01 793.592C1390.21 800.493 1395.2 808.949 1403.08 808.949H1436.84C1439.98 808.949 1442.96 807.519 1444.92 805.063L1469.67 774.127ZM1470.96 1070.45C1472.26 1074.84 1476.3 1077.86 1480.88 1077.86H1527.58C1534.63 1077.86 1539.62 1070.96 1537.41 1064.26L1461.97 835.648C1460.57 831.404 1456.61 828.538 1452.14 828.538H1389.47C1385 828.538 1381.03 831.405 1379.63 835.648L1304.19 1064.26C1301.98 1070.96 1306.97 1077.86 1314.02 1077.86H1361.07C1365.66 1077.86 1369.7 1074.84 1371 1070.45L1377.29 1049.29C1378.59 1044.9 1382.63 1041.88 1387.21 1041.88H1454.75C1459.33 1041.88 1463.37 1044.9 1464.67 1049.29L1470.96 1070.45ZM1409.71 987.034C1402.8 987.034 1397.82 980.39 1399.77 973.758L1410.94 935.8C1413.85 925.91 1427.85 925.883 1430.79 935.762L1442.12 973.719C1444.1 980.36 1439.12 987.034 1432.2 987.034H1409.71ZM1300.44 945.387C1300.44 939.669 1295.81 935.033 1290.09 935.033H1185.07C1179.35 935.033 1174.71 939.669 1174.71 945.387V979.529C1174.71 985.247 1179.35 989.883 1185.07 989.883H1219.63C1227.04 989.883 1231.98 997.535 1227.27 1003.26C1216.65 1016.19 1200.2 1022.65 1177.92 1022.65C1155.36 1022.65 1137.79 1016 1125.21 1002.71C1112.86 989.408 1106.68 973.143 1106.68 953.91C1106.68 933.964 1112.98 917.581 1125.56 904.758C1138.15 891.936 1154.29 885.525 1174 885.525C1186.11 885.525 1196.91 887.9 1206.41 892.649C1212.72 895.725 1218.03 899.449 1222.34 903.82C1226.23 907.756 1232.27 909.365 1237.07 906.618L1273.26 885.906C1278.37 882.979 1280.05 876.349 1276.45 871.684C1266.21 858.41 1253.08 847.471 1237.04 838.867C1217.81 828.419 1196.56 823.196 1173.29 823.196C1136.48 823.196 1105.62 835.78 1080.68 860.95C1055.75 886.119 1043.29 916.987 1043.29 953.554C1043.29 990.121 1055.75 1020.87 1080.68 1045.8C1105.85 1070.73 1137.91 1083.2 1176.85 1083.2C1213.42 1083.2 1243.1 1071.92 1265.89 1049.36C1288.92 1026.57 1300.44 996.888 1300.44 960.321V945.387ZM903.084 931.797C908.138 936.852 908.138 945.047 903.084 950.102L876.558 976.627C871.504 981.681 863.309 981.681 858.254 976.627L700.263 818.636C695.209 813.581 695.209 805.386 700.263 800.332L721.108 779.487C724.091 776.504 728.34 775.162 732.495 775.89L836.362 794.097C848.819 796.281 856.692 781.139 847.749 772.197L797.226 721.673C792.171 716.619 792.171 708.424 797.226 703.369L824.003 676.592C829.057 671.538 837.252 671.538 842.307 676.592L1000.3 834.583C1005.35 839.638 1005.35 847.833 1000.3 852.887L979.201 873.984C976.218 876.967 971.969 878.309 967.814 877.581L863.947 859.373C851.49 857.19 843.618 872.331 852.56 881.274L903.084 931.797ZM749.327 354.148L561.162 319.321C555.223 318.222 551.482 312.293 553.045 306.459L564.852 262.397C566.429 256.511 572.723 253.253 578.439 255.363L758.158 321.709C763.178 323.562 765.959 328.934 764.574 334.103L761.213 346.646C759.815 351.865 754.639 355.131 749.327 354.148ZM581.135 624.27L761.504 560.349C766.596 558.544 769.445 553.128 768.047 547.909L764.685 535.366C763.301 530.197 758.206 526.935 752.933 527.84L564.118 560.242C558.112 561.273 554.291 567.242 555.868 573.128L567.674 617.19C569.238 623.024 575.442 626.288 581.135 624.27Z" fill="url(#paint0_linear_45_162)"/>
</g>
<path fill-rule="evenodd" clip-rule="evenodd" d="M700.578 78.7403L846.12 202.984C850.229 206.491 856.344 206.25 860.165 202.43L869.347 193.248C873.13 189.464 873.408 183.421 869.988 179.307L747.519 31.9896C743.624 27.3037 736.544 26.9784 732.235 31.2872L699.979 63.5434C695.708 67.8142 695.984 74.8189 700.578 78.7403ZM1068.23 441.932C1077.14 437.873 1088.33 437.78 1095.89 441.699C1108.63 448.301 1114.56 461.487 1114.42 482.889C1114.31 499.884 1111 512.817 1102.29 530.24C1096.41 542.011 1089.64 551.467 1070.6 574.522L1066.07 580.003L1072.02 587.183C1075.29 591.131 1081.2 597.04 1085.15 600.313L1092.33 606.262L1097.33 602.14C1125.95 578.566 1132.95 573.799 1150.12 566.186C1175.66 554.866 1206.44 554.85 1222.18 566.148C1233.07 573.957 1236.63 590.422 1230.4 604.103C1223.67 618.9 1203.04 634.38 1179.82 642.071C1151.73 651.371 1127.9 650.254 1102.05 638.427L1096.11 635.711L1077.63 655.272C1066.3 667.257 1051.93 683.216 1039.03 697.989L1062.55 721.5C1066.35 720.455 1070.3 719.422 1074.4 718.404C1107.8 710.105 1153.05 702.292 1211.03 698.086L1211.09 698.939C1261.46 695.259 1310.79 674.164 1349.3 635.652C1434.46 550.493 1434.46 412.422 1349.3 327.262C1264.14 242.103 1126.07 242.103 1040.91 327.262C1001.48 366.69 980.31 417.459 977.392 469.068L978.324 469.136C974.119 527.113 966.306 572.368 958.007 605.767C957.249 608.813 956.484 611.78 955.711 614.666L974.345 633.3C989.117 620.406 1005.08 606.029 1017.06 594.705L1036.62 576.223L1033.91 570.288C1022.08 544.433 1020.96 520.603 1030.26 492.518C1037.95 469.295 1053.43 448.668 1068.23 441.932ZM876.981 623.615C879.975 615.669 883.746 604.061 887.665 588.287C894.042 562.626 900.445 527.421 904.561 481.968C904.431 407.441 932.797 332.873 989.66 276.011C1103.12 162.546 1287.09 162.546 1400.55 276.011C1514.02 389.476 1514.02 573.439 1400.55 686.904C1344.19 743.268 1270.43 771.633 1196.56 771.999C1151.9 776.12 1117.23 782.446 1091.88 788.745C1073.75 793.25 1061.13 797.557 1053.24 800.716L1047.62 806.329C1042.57 811.383 1034.37 811.383 1029.32 806.329L870.945 647.955C865.891 642.9 865.891 634.705 870.945 629.651L876.981 623.615ZM990.614 649.569C1004.38 637.577 1020.12 623.532 1036.32 608.716L1049.71 596.469L1055.41 603.41C1060.64 609.791 1068.33 616.965 1073.95 620.709C1076.17 622.188 1075.92 622.553 1063.8 635.817C1048.12 652.958 1034.27 668.444 1022.73 681.687L990.614 649.569ZM1047.02 532.009C1045.53 504.028 1064.27 465.123 1080.91 461.66C1088.49 460.083 1092.73 469.929 1091.66 486.645C1090.39 506.739 1080.66 526.769 1060.34 551.169C1056.24 556.09 1054.23 557.855 1053.53 557.151C1051.25 554.87 1047.46 540.235 1047.02 532.009ZM1170.99 583.073C1180.24 580.493 1196.55 579.788 1202.24 581.72C1208.53 583.858 1211.53 587.306 1210.67 591.422C1207.25 607.885 1168.32 626.803 1140.87 625.341C1132.79 624.911 1117.4 621.027 1115.25 618.878C1114.46 618.086 1115.99 616.304 1121.16 611.994C1139.63 596.612 1155.54 587.379 1170.99 583.073ZM195.493 1070.45C196.798 1074.84 200.836 1077.86 205.419 1077.86H252.113C259.167 1077.86 264.156 1070.96 261.946 1064.26L186.504 835.647C185.104 831.404 181.14 828.538 176.672 828.538H114C109.532 828.538 105.567 831.404 104.167 835.647L28.7257 1064.26C26.515 1070.96 31.5041 1077.86 38.5585 1077.86H85.609C90.192 1077.86 94.2298 1074.84 95.5348 1070.45L101.82 1049.29C103.125 1044.9 107.163 1041.88 111.746 1041.88H179.282C183.865 1041.88 187.903 1044.9 189.207 1049.29L195.493 1070.45ZM134.242 987.033C127.33 987.033 122.358 980.389 124.309 973.757L135.472 935.8C138.381 925.909 152.381 925.882 155.328 935.762L166.652 973.719C168.633 980.359 163.659 987.033 156.73 987.033H134.242ZM472.149 1077.86C480.347 1077.86 485.294 1068.78 480.853 1061.89L412.148 955.281C409.934 951.847 409.948 947.432 412.181 944.011L477.122 844.553C481.619 837.666 476.677 828.538 468.452 828.538H421.966C418.46 828.538 415.193 830.311 413.283 833.251L367.354 903.948C361.738 912.592 348.316 908.616 348.316 898.307V838.892C348.316 833.173 343.681 828.538 337.962 828.538H294.916C289.198 828.538 284.562 833.173 284.562 838.892V1067.5C284.562 1073.22 289.198 1077.86 294.916 1077.86H337.962C343.681 1077.86 348.316 1073.22 348.316 1067.5V1001.66C348.316 991.325 361.798 987.369 367.383 996.067L416.85 1073.1C418.755 1076.06 422.038 1077.86 425.563 1077.86H472.149ZM678.109 1077.86C673.526 1077.86 669.488 1074.84 668.183 1070.45L661.898 1049.29C660.593 1044.9 656.555 1041.88 651.972 1041.88H584.436C579.853 1041.88 575.816 1044.9 574.511 1049.29L568.225 1070.45C566.92 1074.84 562.882 1077.86 558.299 1077.86H511.249C504.194 1077.86 499.205 1070.96 501.416 1064.26L576.857 835.647C578.258 831.404 582.222 828.538 586.69 828.538H649.362C653.83 828.538 657.795 831.404 659.195 835.647L734.636 1064.26C736.847 1070.96 731.858 1077.86 724.803 1077.86H678.109ZM596.999 973.757C595.048 980.389 600.02 987.033 606.933 987.033H629.42C636.349 987.033 641.323 980.359 639.342 973.719L628.019 935.762C625.072 925.882 611.072 925.909 608.163 935.8L596.999 973.757ZM1469.67 774.127C1475.1 767.347 1470.27 757.304 1461.59 757.304H1420.15C1416.38 757.304 1412.9 759.355 1411.08 762.657L1394.01 793.592C1390.21 800.493 1395.2 808.949 1403.08 808.949H1436.84C1439.98 808.949 1442.96 807.519 1444.92 805.063L1469.67 774.127ZM1470.96 1070.45C1472.26 1074.84 1476.3 1077.86 1480.88 1077.86H1527.58C1534.63 1077.86 1539.62 1070.96 1537.41 1064.26L1461.97 835.648C1460.57 831.404 1456.61 828.538 1452.14 828.538H1389.47C1385 828.538 1381.03 831.405 1379.63 835.648L1304.19 1064.26C1301.98 1070.96 1306.97 1077.86 1314.02 1077.86H1361.07C1365.66 1077.86 1369.7 1074.84 1371 1070.45L1377.29 1049.29C1378.59 1044.9 1382.63 1041.88 1387.21 1041.88H1454.75C1459.33 1041.88 1463.37 1044.9 1464.67 1049.29L1470.96 1070.45ZM1409.71 987.034C1402.8 987.034 1397.82 980.39 1399.77 973.758L1410.94 935.8C1413.85 925.91 1427.85 925.883 1430.79 935.762L1442.12 973.719C1444.1 980.36 1439.12 987.034 1432.2 987.034H1409.71ZM1300.44 945.387C1300.44 939.669 1295.81 935.033 1290.09 935.033H1185.07C1179.35 935.033 1174.71 939.669 1174.71 945.387V979.529C1174.71 985.247 1179.35 989.883 1185.07 989.883H1219.63C1227.04 989.883 1231.98 997.535 1227.27 1003.26C1216.65 1016.19 1200.2 1022.65 1177.92 1022.65C1155.36 1022.65 1137.79 1016 1125.21 1002.71C1112.86 989.408 1106.68 973.143 1106.68 953.91C1106.68 933.964 1112.98 917.581 1125.56 904.758C1138.15 891.936 1154.29 885.525 1174 885.525C1186.11 885.525 1196.91 887.9 1206.41 892.649C1212.72 895.725 1218.03 899.449 1222.34 903.82C1226.23 907.756 1232.27 909.365 1237.07 906.618L1273.26 885.906C1278.37 882.979 1280.05 876.349 1276.45 871.684C1266.21 858.41 1253.08 847.471 1237.04 838.867C1217.81 828.419 1196.56 823.196 1173.29 823.196C1136.48 823.196 1105.62 835.78 1080.68 860.95C1055.75 886.119 1043.29 916.987 1043.29 953.554C1043.29 990.121 1055.75 1020.87 1080.68 1045.8C1105.85 1070.73 1137.91 1083.2 1176.85 1083.2C1213.42 1083.2 1243.1 1071.92 1265.89 1049.36C1288.92 1026.57 1300.44 996.888 1300.44 960.321V945.387ZM903.084 931.797C908.138 936.852 908.138 945.047 903.084 950.102L876.558 976.627C871.504 981.681 863.309 981.681 858.254 976.627L700.263 818.636C695.209 813.581 695.209 805.386 700.263 800.332L721.108 779.487C724.091 776.504 728.34 775.162 732.495 775.89L836.362 794.097C848.819 796.281 856.692 781.139 847.749 772.197L797.226 721.673C792.171 716.619 792.171 708.424 797.226 703.369L824.003 676.592C829.057 671.538 837.252 671.538 842.307 676.592L1000.3 834.583C1005.35 839.638 1005.35 847.833 1000.3 852.887L979.201 873.984C976.218 876.967 971.969 878.309 967.814 877.581L863.947 859.373C851.49 857.19 843.618 872.331 852.56 881.274L903.084 931.797ZM749.327 354.148L561.162 319.321C555.223 318.222 551.482 312.293 553.045 306.459L564.852 262.397C566.429 256.511 572.723 253.253 578.439 255.363L758.158 321.709C763.178 323.562 765.959 328.934 764.574 334.103L761.213 346.646C759.815 351.865 754.639 355.131 749.327 354.148ZM581.135 624.27L761.504 560.349C766.596 558.544 769.445 553.128 768.047 547.909L764.685 535.366C763.301 530.197 758.206 526.935 752.933 527.84L564.118 560.242C558.112 561.273 554.291 567.242 555.868 573.128L567.674 617.19C569.238 623.024 575.442 626.288 581.135 624.27Z" fill="url(#paint1_linear_45_162)"/>
<g style="mix-blend-mode:color-burn">
<path fill-rule="evenodd" clip-rule="evenodd" d="M721.554 102.038L867.096 226.281C871.205 229.789 877.32 229.548 881.14 225.728L890.323 216.545C894.106 212.762 894.384 206.719 890.963 202.605L768.495 55.2874C764.599 50.6016 757.52 50.2762 753.211 54.5851L720.955 86.8413C716.684 91.1121 716.96 98.1167 721.554 102.038ZM1089.21 465.23C1098.12 461.171 1109.3 461.078 1116.87 464.997C1129.6 471.599 1135.54 484.784 1135.4 506.187C1135.29 523.181 1131.97 536.115 1123.27 553.538C1117.39 565.309 1110.62 574.765 1091.57 597.82L1087.05 603.301L1093 610.481C1096.27 614.429 1102.18 620.338 1106.13 623.61L1113.31 629.56L1118.31 625.438C1146.93 601.864 1153.93 597.096 1171.1 589.484C1196.64 578.163 1227.41 578.148 1243.16 589.446C1254.04 597.255 1257.61 613.72 1251.38 627.401C1244.64 642.197 1224.01 657.678 1200.79 665.369C1172.71 674.669 1148.88 673.552 1123.02 661.725L1117.09 659.009L1098.6 678.57C1087.28 690.555 1072.9 706.514 1060.01 721.286L1083.52 744.798C1087.33 743.753 1091.28 742.72 1095.37 741.702C1128.77 733.403 1174.03 725.59 1232 721.384L1232.07 722.237C1282.43 718.557 1331.77 697.462 1370.28 658.95C1455.44 573.791 1455.44 435.72 1370.28 350.56C1285.12 265.401 1147.05 265.401 1061.89 350.56C1022.46 389.988 1001.29 440.757 998.367 492.366L999.3 492.434C995.094 550.411 987.281 595.666 978.982 629.064C978.225 632.111 977.459 635.078 976.687 637.964L995.32 656.598C1010.09 643.703 1026.05 629.327 1038.04 618.003L1057.6 599.52L1054.88 593.586C1043.05 567.731 1041.94 543.901 1051.24 515.816C1058.93 492.592 1074.41 471.966 1089.21 465.23ZM897.956 646.913C900.95 638.967 904.721 627.358 908.641 611.585C915.017 585.924 921.42 550.719 925.537 505.265C925.407 430.738 953.773 356.171 1010.64 299.309C1124.1 185.844 1308.06 185.844 1421.53 299.309C1534.99 412.774 1534.99 596.737 1421.53 710.202C1365.16 766.565 1291.41 794.931 1217.53 795.297C1172.87 799.418 1138.21 805.744 1112.85 812.043C1094.73 816.548 1082.1 820.855 1074.21 824.013L1068.6 829.627C1063.54 834.681 1055.35 834.681 1050.29 829.627L891.921 671.253C886.866 666.198 886.866 658.003 891.921 652.949L897.956 646.913ZM1011.59 672.867C1025.35 660.875 1041.09 646.829 1057.29 632.014L1070.69 619.767L1076.38 626.708C1081.61 633.089 1089.3 640.263 1094.92 644.007C1097.14 645.486 1096.9 645.851 1084.77 659.114C1069.1 676.256 1055.25 691.742 1043.71 704.985L1011.59 672.867ZM1068 555.306C1066.51 527.326 1085.25 488.421 1101.89 484.958C1109.46 483.38 1113.7 493.227 1112.64 509.943C1111.36 530.037 1101.64 550.067 1081.32 574.466C1077.21 579.388 1075.21 581.152 1074.5 580.449C1072.22 578.168 1068.44 563.533 1068 555.306ZM1191.96 606.371C1201.22 603.791 1217.53 603.085 1223.22 605.018C1229.51 607.155 1232.51 610.604 1231.65 614.72C1228.22 631.183 1189.29 650.101 1161.85 648.639C1153.77 648.209 1138.38 644.325 1136.23 642.176C1135.44 641.383 1136.97 639.602 1142.14 635.292C1160.61 619.91 1176.51 610.677 1191.96 606.371ZM216.468 1093.75C217.773 1098.14 221.811 1101.15 226.394 1101.15H273.089C280.143 1101.15 285.132 1094.25 282.921 1087.56L207.48 858.945C206.08 854.702 202.115 851.836 197.647 851.836H134.975C130.507 851.836 126.543 854.702 125.143 858.945L49.7013 1087.56C47.4906 1094.25 52.4797 1101.15 59.5341 1101.15H106.585C111.168 1101.15 115.205 1098.14 116.51 1093.75L122.796 1072.59C124.101 1068.19 128.139 1065.18 132.722 1065.18H200.257C204.84 1065.18 208.878 1068.19 210.183 1072.59L216.468 1093.75ZM155.218 1010.33C148.305 1010.33 143.334 1003.69 145.284 997.055L156.448 959.098C159.357 949.207 173.357 949.18 176.304 959.059L187.627 997.017C189.608 1003.66 184.635 1010.33 177.705 1010.33H155.218ZM493.125 1101.15C501.322 1101.15 506.269 1092.08 501.829 1085.19L433.123 978.579C430.91 975.145 430.923 970.73 433.157 967.309L498.097 867.851C502.594 860.964 497.653 851.836 489.428 851.836H442.941C439.436 851.836 436.168 853.609 434.258 856.549L388.329 927.246C382.713 935.89 369.292 931.913 369.292 921.605V862.19C369.292 856.471 364.656 851.836 358.938 851.836H315.892C310.173 851.836 305.538 856.471 305.538 862.19V1090.8C305.538 1096.52 310.173 1101.15 315.892 1101.15H358.938C364.656 1101.15 369.292 1096.52 369.292 1090.8V1024.96C369.292 1014.62 382.774 1010.67 388.359 1019.36L437.826 1096.4C439.731 1099.36 443.013 1101.15 446.538 1101.15H493.125ZM699.085 1101.15C694.502 1101.15 690.464 1098.14 689.159 1093.75L682.873 1072.59C681.568 1068.19 677.531 1065.18 672.948 1065.18H605.412C600.829 1065.18 596.791 1068.19 595.486 1072.59L589.201 1093.75C587.896 1098.14 583.858 1101.15 579.275 1101.15H532.224C525.17 1101.15 520.181 1094.25 522.392 1087.56L597.833 858.945C599.233 854.702 603.198 851.836 607.666 851.836H670.338C674.806 851.836 678.77 854.702 680.17 858.945L755.612 1087.56C757.822 1094.25 752.833 1101.15 745.779 1101.15H699.085ZM617.975 997.055C616.024 1003.69 620.996 1010.33 627.908 1010.33H650.396C657.325 1010.33 662.299 1003.66 660.318 997.017L648.994 959.059C646.047 949.18 632.047 949.207 629.138 959.098L617.975 997.055ZM1490.65 797.425C1496.07 790.645 1491.25 780.602 1482.56 780.602H1441.12C1437.35 780.602 1433.88 782.652 1432.06 785.954L1414.99 816.89C1411.18 823.791 1416.17 832.247 1424.05 832.247H1457.81C1460.96 832.247 1463.93 830.817 1465.9 828.361L1490.65 797.425ZM1491.93 1093.75C1493.24 1098.14 1497.28 1101.15 1501.86 1101.15H1548.55C1555.61 1101.15 1560.6 1094.25 1558.39 1087.56L1482.95 858.946C1481.55 854.702 1477.58 851.836 1473.11 851.836H1410.44C1405.97 851.836 1402.01 854.702 1400.61 858.946L1325.17 1087.56C1322.96 1094.25 1327.95 1101.15 1335 1101.15H1382.05C1386.63 1101.15 1390.67 1098.14 1391.98 1093.75L1398.26 1072.59C1399.57 1068.19 1403.6 1065.18 1408.19 1065.18H1475.72C1480.31 1065.18 1484.34 1068.19 1485.65 1072.59L1491.93 1093.75ZM1430.68 1010.33C1423.77 1010.33 1418.8 1003.69 1420.75 997.056L1431.91 959.098C1434.82 949.208 1448.82 949.181 1451.77 959.06L1463.09 997.017C1465.07 1003.66 1460.1 1010.33 1453.17 1010.33H1430.68ZM1321.42 968.685C1321.42 962.967 1316.78 958.331 1311.06 958.331H1206.04C1200.32 958.331 1195.69 962.967 1195.69 968.685V1002.83C1195.69 1008.55 1200.32 1013.18 1206.04 1013.18H1240.6C1248.02 1013.18 1252.96 1020.83 1248.25 1026.56C1237.63 1039.49 1221.18 1045.95 1198.89 1045.95C1176.34 1045.95 1158.77 1039.3 1146.18 1026C1133.83 1012.71 1127.66 996.441 1127.66 977.208C1127.66 957.262 1133.95 940.878 1146.54 928.056C1159.12 915.234 1175.27 908.823 1194.98 908.823C1207.09 908.823 1217.89 911.198 1227.39 915.947C1233.69 919.023 1239 922.746 1243.32 927.118C1247.2 931.054 1253.25 932.663 1258.05 929.916L1294.23 909.203C1299.34 906.277 1301.02 899.646 1297.43 894.982C1287.19 881.708 1274.05 870.769 1258.02 862.165C1238.79 851.717 1217.53 846.493 1194.26 846.493C1157.46 846.493 1126.59 859.078 1101.66 884.247C1076.73 909.417 1064.26 940.285 1064.26 976.852C1064.26 1013.42 1076.73 1044.17 1101.66 1069.1C1126.83 1094.03 1158.88 1106.5 1197.83 1106.5C1234.39 1106.5 1264.07 1095.22 1286.87 1072.66C1309.9 1049.87 1321.42 1020.19 1321.42 983.619V968.685ZM924.059 955.095C929.114 960.15 929.114 968.345 924.059 973.399L897.534 999.925C892.479 1004.98 884.284 1004.98 879.23 999.925L721.239 841.934C716.184 836.879 716.184 828.684 721.239 823.629L742.084 802.785C745.066 799.802 749.316 798.46 753.47 799.188L857.338 817.395C869.795 819.579 877.667 804.437 868.725 795.494L818.201 744.971C813.147 739.917 813.147 731.722 818.201 726.667L844.978 699.89C850.033 694.835 858.228 694.835 863.282 699.89L1021.27 857.881C1026.33 862.936 1026.33 871.131 1021.27 876.185L1000.18 897.282C997.194 900.265 992.945 901.607 988.79 900.878L884.923 882.671C872.466 880.488 864.593 895.629 873.536 904.572L924.059 955.095ZM770.303 377.446L582.138 342.619C576.199 341.52 572.457 335.591 574.021 329.757L585.827 285.695C587.404 279.809 593.698 276.55 599.415 278.661L779.134 345.007C784.153 346.86 786.934 352.232 785.55 357.4L782.189 369.944C780.79 375.162 775.615 378.429 770.303 377.446ZM602.11 647.568L782.479 583.646C787.572 581.842 790.42 576.425 789.022 571.207L785.661 558.663C784.276 553.495 779.182 550.233 773.908 551.138L585.094 583.54C579.088 584.571 575.266 590.539 576.843 596.425L588.65 640.488C590.213 646.322 596.417 649.586 602.11 647.568Z" fill="url(#paint2_linear_45_162)"/>
</g>
<g filter="url(#filter1_i_45_162)">
<path fill-rule="evenodd" clip-rule="evenodd" d="M700.844 78.7403L846.386 202.984C850.495 206.491 856.61 206.25 860.43 202.43L869.613 193.248C873.396 189.464 873.674 183.421 870.253 179.307L747.785 31.9896C743.889 27.3037 736.81 26.9784 732.501 31.2872L700.245 63.5434C695.974 67.8142 696.25 74.8189 700.844 78.7403ZM1068.5 441.932C1077.41 437.873 1088.59 437.78 1096.16 441.699C1108.89 448.301 1114.83 461.487 1114.69 482.889C1114.58 499.884 1111.26 512.817 1102.56 530.24C1096.68 542.011 1089.91 551.467 1070.86 574.522L1066.34 580.003L1072.29 587.183C1075.56 591.131 1081.47 597.04 1085.42 600.313L1092.6 606.262L1097.6 602.14C1126.22 578.566 1133.22 573.799 1150.39 566.186C1175.93 554.866 1206.7 554.85 1222.45 566.148C1233.33 573.957 1236.9 590.422 1230.67 604.103C1223.93 618.9 1203.3 634.38 1180.08 642.071C1152 651.371 1128.17 650.254 1102.31 638.427L1096.38 635.711L1077.89 655.272C1066.57 667.257 1052.19 683.216 1039.3 697.989L1062.81 721.5C1066.62 720.455 1070.57 719.422 1074.66 718.404C1108.06 710.105 1153.32 702.292 1211.29 698.086L1211.36 698.939C1261.72 695.259 1311.06 674.164 1349.57 635.652C1434.73 550.493 1434.73 412.422 1349.57 327.262C1264.41 242.103 1126.34 242.103 1041.18 327.262C1001.75 366.69 980.576 417.459 977.657 469.068L978.59 469.136C974.384 527.113 966.571 572.368 958.272 605.767C957.515 608.813 956.749 611.78 955.977 614.666L974.61 633.3C989.383 620.406 1005.34 606.029 1017.33 594.705L1036.89 576.223L1034.17 570.288C1022.35 544.433 1021.23 520.603 1030.53 492.518C1038.22 469.295 1053.7 448.668 1068.5 441.932ZM877.247 623.615C880.24 615.669 884.011 604.061 887.931 588.287C894.307 562.626 900.71 527.421 904.827 481.968C904.697 407.441 933.063 332.873 989.925 276.011C1103.39 162.546 1287.35 162.546 1400.82 276.011C1514.28 389.476 1514.28 573.439 1400.82 686.904C1344.45 743.268 1270.7 771.633 1196.82 771.999C1152.16 776.12 1117.5 782.446 1092.14 788.745C1074.02 793.25 1061.39 797.557 1053.5 800.716L1047.89 806.329C1042.83 811.383 1034.64 811.383 1029.58 806.329L871.211 647.955C866.156 642.9 866.156 634.705 871.211 629.651L877.247 623.615ZM990.88 649.569C1004.64 637.577 1020.38 623.532 1036.58 608.716L1049.98 596.469L1055.67 603.41C1060.9 609.791 1068.59 616.965 1074.21 620.709C1076.43 622.188 1076.19 622.553 1064.06 635.817C1048.39 652.958 1034.54 668.444 1023 681.687L990.88 649.569ZM1047.29 532.009C1045.8 504.028 1064.54 465.123 1081.18 461.66C1088.75 460.083 1092.99 469.929 1091.93 486.645C1090.65 506.739 1080.93 526.769 1060.61 551.169C1056.5 556.09 1054.5 557.855 1053.79 557.151C1051.51 554.87 1047.73 540.235 1047.29 532.009ZM1171.25 583.073C1180.51 580.493 1196.82 579.788 1202.51 581.72C1208.8 583.858 1211.8 587.306 1210.94 591.422C1207.51 607.885 1168.58 626.803 1141.14 625.341C1133.06 624.911 1117.67 621.027 1115.52 618.878C1114.73 618.086 1116.26 616.304 1121.43 611.994C1139.9 596.612 1155.8 587.379 1171.25 583.073ZM195.758 1070.45C197.063 1074.84 201.101 1077.86 205.684 1077.86H252.379C259.433 1077.86 264.422 1070.96 262.211 1064.26L186.77 835.647C185.37 831.404 181.406 828.538 176.937 828.538H114.265C109.797 828.538 105.833 831.404 104.433 835.647L28.9913 1064.26C26.7806 1070.96 31.7697 1077.86 38.8241 1077.86H85.8746C90.4576 1077.86 94.4954 1074.84 95.8004 1070.45L102.086 1049.29C103.391 1044.9 107.429 1041.88 112.012 1041.88H179.547C184.13 1041.88 188.168 1044.9 189.473 1049.29L195.758 1070.45ZM134.508 987.033C127.595 987.033 122.624 980.389 124.574 973.757L135.738 935.8C138.647 925.909 152.647 925.882 155.594 935.762L166.917 973.719C168.898 980.359 163.925 987.033 156.995 987.033H134.508ZM472.415 1077.86C480.612 1077.86 485.559 1068.78 481.119 1061.89L412.413 955.281C410.2 951.847 410.213 947.432 412.447 944.011L477.387 844.553C481.884 837.666 476.943 828.538 468.718 828.538H422.231C418.726 828.538 415.458 830.311 413.548 833.251L367.619 903.948C362.004 912.592 348.582 908.616 348.582 898.307V838.892C348.582 833.173 343.946 828.538 338.228 828.538H295.182C289.463 828.538 284.828 833.173 284.828 838.892V1067.5C284.828 1073.22 289.463 1077.86 295.182 1077.86H338.228C343.946 1077.86 348.582 1073.22 348.582 1067.5V1001.66C348.582 991.325 362.064 987.369 367.649 996.067L417.116 1073.1C419.021 1076.06 422.303 1077.86 425.828 1077.86H472.415ZM678.375 1077.86C673.792 1077.86 669.754 1074.84 668.449 1070.45L662.163 1049.29C660.859 1044.9 656.821 1041.88 652.238 1041.88H584.702C580.119 1041.88 576.081 1044.9 574.776 1049.29L568.491 1070.45C567.186 1074.84 563.148 1077.86 558.565 1077.86H511.514C504.46 1077.86 499.471 1070.96 501.682 1064.26L577.123 835.647C578.523 831.404 582.488 828.538 586.956 828.538H649.628C654.096 828.538 658.06 831.404 659.46 835.647L734.902 1064.26C737.112 1070.96 732.123 1077.86 725.069 1077.86H678.375ZM597.265 973.757C595.314 980.389 600.286 987.033 607.198 987.033H629.686C636.615 987.033 641.589 980.359 639.608 973.719L628.284 935.762C625.337 925.882 611.337 925.909 608.429 935.8L597.265 973.757ZM1469.94 774.127C1475.36 767.347 1470.54 757.304 1461.85 757.304H1420.41C1416.64 757.304 1413.17 759.355 1411.35 762.657L1394.28 793.592C1390.47 800.493 1395.46 808.949 1403.34 808.949H1437.1C1440.25 808.949 1443.23 807.519 1445.19 805.063L1469.94 774.127ZM1471.22 1070.45C1472.53 1074.84 1476.57 1077.86 1481.15 1077.86H1527.84C1534.9 1077.86 1539.89 1070.96 1537.68 1064.26L1462.24 835.648C1460.84 831.404 1456.87 828.538 1452.4 828.538H1389.73C1385.26 828.538 1381.3 831.405 1379.9 835.648L1304.46 1064.26C1302.25 1070.96 1307.24 1077.86 1314.29 1077.86H1361.34C1365.92 1077.86 1369.96 1074.84 1371.27 1070.45L1377.55 1049.29C1378.86 1044.9 1382.89 1041.88 1387.48 1041.88H1455.01C1459.6 1041.88 1463.63 1044.9 1464.94 1049.29L1471.22 1070.45ZM1409.97 987.034C1403.06 987.034 1398.09 980.39 1400.04 973.758L1411.2 935.8C1414.11 925.91 1428.11 925.883 1431.06 935.762L1442.38 973.719C1444.36 980.36 1439.39 987.034 1432.46 987.034H1409.97ZM1300.71 945.387C1300.71 939.669 1296.07 935.033 1290.35 935.033H1185.33C1179.61 935.033 1174.98 939.669 1174.98 945.387V979.529C1174.98 985.247 1179.61 989.883 1185.33 989.883H1219.89C1227.31 989.883 1232.25 997.535 1227.54 1003.26C1216.92 1016.19 1200.47 1022.65 1178.18 1022.65C1155.63 1022.65 1138.06 1016 1125.47 1002.71C1113.12 989.408 1106.95 973.143 1106.95 953.91C1106.95 933.964 1113.24 917.581 1125.83 904.758C1138.41 891.936 1154.56 885.525 1174.27 885.525C1186.38 885.525 1197.18 887.9 1206.68 892.649C1212.98 895.725 1218.29 899.449 1222.61 903.82C1226.49 907.756 1232.54 909.365 1237.34 906.618L1273.52 885.906C1278.63 882.979 1280.31 876.349 1276.72 871.684C1266.48 858.41 1253.34 847.471 1237.31 838.867C1218.08 828.419 1196.82 823.196 1173.55 823.196C1136.75 823.196 1105.88 835.78 1080.95 860.95C1056.02 886.119 1043.55 916.987 1043.55 953.554C1043.55 990.121 1056.02 1020.87 1080.95 1045.8C1106.12 1070.73 1138.17 1083.2 1177.12 1083.2C1213.68 1083.2 1243.36 1071.92 1266.16 1049.36C1289.19 1026.57 1300.71 996.888 1300.71 960.321V945.387ZM903.349 931.797C908.404 936.852 908.404 945.047 903.349 950.102L876.824 976.627C871.769 981.681 863.574 981.681 858.52 976.627L700.529 818.636C695.474 813.581 695.474 805.386 700.529 800.332L721.374 779.487C724.356 776.504 728.606 775.162 732.761 775.89L836.628 794.097C849.085 796.281 856.957 781.139 848.015 772.197L797.491 721.673C792.437 716.619 792.437 708.424 797.491 703.369L824.268 676.592C829.323 671.538 837.518 671.538 842.572 676.592L1000.56 834.583C1005.62 839.638 1005.62 847.833 1000.56 852.887L979.467 873.984C976.484 876.967 972.235 878.309 968.08 877.581L864.213 859.373C851.756 857.19 843.883 872.331 852.826 881.274L903.349 931.797ZM749.593 354.148L561.428 319.321C555.489 318.222 551.747 312.293 553.311 306.459L565.117 262.397C566.694 256.511 572.988 253.253 578.705 255.363L758.424 321.709C763.444 323.562 766.224 328.934 764.84 334.103L761.479 346.646C760.08 351.865 754.905 355.131 749.593 354.148ZM581.4 624.27L761.769 560.349C766.862 558.544 769.71 553.128 768.312 547.909L764.951 535.366C763.566 530.197 758.472 526.935 753.198 527.84L564.384 560.242C558.378 561.273 554.556 567.242 556.133 573.128L567.94 617.19C569.503 623.024 575.707 626.288 581.4 624.27Z" fill="white"/>
</g>
<g style="mix-blend-mode:hard-light" opacity="0.5">
<path fill-rule="evenodd" clip-rule="evenodd" d="M700.844 78.7403L846.386 202.984C850.495 206.491 856.61 206.25 860.43 202.43L869.613 193.248C873.396 189.464 873.674 183.421 870.253 179.307L747.785 31.9896C743.889 27.3037 736.81 26.9784 732.501 31.2872L700.245 63.5434C695.974 67.8142 696.25 74.8189 700.844 78.7403ZM1068.5 441.932C1077.41 437.873 1088.59 437.78 1096.16 441.699C1108.89 448.301 1114.83 461.487 1114.69 482.889C1114.58 499.884 1111.26 512.817 1102.56 530.24C1096.68 542.011 1089.91 551.467 1070.86 574.522L1066.34 580.003L1072.29 587.183C1075.56 591.131 1081.47 597.04 1085.42 600.313L1092.6 606.262L1097.6 602.14C1126.22 578.566 1133.22 573.799 1150.39 566.186C1175.93 554.866 1206.7 554.85 1222.45 566.148C1233.33 573.957 1236.9 590.422 1230.67 604.103C1223.93 618.9 1203.3 634.38 1180.08 642.071C1152 651.371 1128.17 650.254 1102.31 638.427L1096.38 635.711L1077.89 655.272C1066.57 667.257 1052.19 683.216 1039.3 697.989L1062.81 721.5C1066.62 720.455 1070.57 719.422 1074.66 718.404C1108.06 710.105 1153.32 702.292 1211.29 698.086L1211.36 698.939C1261.72 695.259 1311.06 674.164 1349.57 635.652C1434.73 550.493 1434.73 412.422 1349.57 327.262C1264.41 242.103 1126.34 242.103 1041.18 327.262C1001.75 366.69 980.576 417.459 977.657 469.068L978.59 469.136C974.384 527.113 966.571 572.368 958.272 605.767C957.515 608.813 956.749 611.78 955.977 614.666L974.61 633.3C989.383 620.406 1005.34 606.029 1017.33 594.705L1036.89 576.223L1034.17 570.288C1022.35 544.433 1021.23 520.603 1030.53 492.518C1038.22 469.295 1053.7 448.668 1068.5 441.932ZM877.247 623.615C880.24 615.669 884.011 604.061 887.931 588.287C894.307 562.626 900.71 527.421 904.827 481.968C904.697 407.441 933.063 332.873 989.925 276.011C1103.39 162.546 1287.35 162.546 1400.82 276.011C1514.28 389.476 1514.28 573.439 1400.82 686.904C1344.45 743.268 1270.7 771.633 1196.82 771.999C1152.16 776.12 1117.5 782.446 1092.14 788.745C1074.02 793.25 1061.39 797.557 1053.5 800.716L1047.89 806.329C1042.83 811.383 1034.64 811.383 1029.58 806.329L871.211 647.955C866.156 642.9 866.156 634.705 871.211 629.651L877.247 623.615ZM990.88 649.569C1004.64 637.577 1020.38 623.532 1036.58 608.716L1049.98 596.469L1055.67 603.41C1060.9 609.791 1068.59 616.965 1074.21 620.709C1076.43 622.188 1076.19 622.553 1064.06 635.817C1048.39 652.958 1034.54 668.444 1023 681.687L990.88 649.569ZM1047.29 532.009C1045.8 504.028 1064.54 465.123 1081.18 461.66C1088.75 460.083 1092.99 469.929 1091.93 486.645C1090.65 506.739 1080.93 526.769 1060.61 551.169C1056.5 556.09 1054.5 557.855 1053.79 557.151C1051.51 554.87 1047.73 540.235 1047.29 532.009ZM1171.25 583.073C1180.51 580.493 1196.82 579.788 1202.51 581.72C1208.8 583.858 1211.8 587.306 1210.94 591.422C1207.51 607.885 1168.58 626.803 1141.14 625.341C1133.06 624.911 1117.67 621.027 1115.52 618.878C1114.73 618.086 1116.26 616.304 1121.43 611.994C1139.9 596.612 1155.8 587.379 1171.25 583.073ZM195.758 1070.45C197.063 1074.84 201.101 1077.86 205.684 1077.86H252.379C259.433 1077.86 264.422 1070.96 262.211 1064.26L186.77 835.647C185.37 831.404 181.406 828.538 176.937 828.538H114.265C109.797 828.538 105.833 831.404 104.433 835.647L28.9913 1064.26C26.7806 1070.96 31.7697 1077.86 38.8241 1077.86H85.8746C90.4576 1077.86 94.4954 1074.84 95.8004 1070.45L102.086 1049.29C103.391 1044.9 107.429 1041.88 112.012 1041.88H179.547C184.13 1041.88 188.168 1044.9 189.473 1049.29L195.758 1070.45ZM134.508 987.033C127.595 987.033 122.624 980.389 124.574 973.757L135.738 935.8C138.647 925.909 152.647 925.882 155.594 935.762L166.917 973.719C168.898 980.359 163.925 987.033 156.995 987.033H134.508ZM472.415 1077.86C480.612 1077.86 485.559 1068.78 481.119 1061.89L412.413 955.281C410.2 951.847 410.213 947.432 412.447 944.011L477.387 844.553C481.884 837.666 476.943 828.538 468.718 828.538H422.231C418.726 828.538 415.458 830.311 413.548 833.251L367.619 903.948C362.004 912.592 348.582 908.616 348.582 898.307V838.892C348.582 833.173 343.946 828.538 338.228 828.538H295.182C289.463 828.538 284.828 833.173 284.828 838.892V1067.5C284.828 1073.22 289.463 1077.86 295.182 1077.86H338.228C343.946 1077.86 348.582 1073.22 348.582 1067.5V1001.66C348.582 991.325 362.064 987.369 367.649 996.067L417.116 1073.1C419.021 1076.06 422.303 1077.86 425.828 1077.86H472.415ZM678.375 1077.86C673.792 1077.86 669.754 1074.84 668.449 1070.45L662.163 1049.29C660.859 1044.9 656.821 1041.88 652.238 1041.88H584.702C580.119 1041.88 576.081 1044.9 574.776 1049.29L568.491 1070.45C567.186 1074.84 563.148 1077.86 558.565 1077.86H511.514C504.46 1077.86 499.471 1070.96 501.682 1064.26L577.123 835.647C578.523 831.404 582.488 828.538 586.956 828.538H649.628C654.096 828.538 658.06 831.404 659.46 835.647L734.902 1064.26C737.112 1070.96 732.123 1077.86 725.069 1077.86H678.375ZM597.265 973.757C595.314 980.389 600.286 987.033 607.198 987.033H629.686C636.615 987.033 641.589 980.359 639.608 973.719L628.284 935.762C625.337 925.882 611.337 925.909 608.429 935.8L597.265 973.757ZM1469.94 774.127C1475.36 767.347 1470.54 757.304 1461.85 757.304H1420.41C1416.64 757.304 1413.17 759.355 1411.35 762.657L1394.28 793.592C1390.47 800.493 1395.46 808.949 1403.34 808.949H1437.1C1440.25 808.949 1443.23 807.519 1445.19 805.063L1469.94 774.127ZM1471.22 1070.45C1472.53 1074.84 1476.57 1077.86 1481.15 1077.86H1527.84C1534.9 1077.86 1539.89 1070.96 1537.68 1064.26L1462.24 835.648C1460.84 831.404 1456.87 828.538 1452.4 828.538H1389.73C1385.26 828.538 1381.3 831.405 1379.9 835.648L1304.46 1064.26C1302.25 1070.96 1307.24 1077.86 1314.29 1077.86H1361.34C1365.92 1077.86 1369.96 1074.84 1371.27 1070.45L1377.55 1049.29C1378.86 1044.9 1382.89 1041.88 1387.48 1041.88H1455.01C1459.6 1041.88 1463.63 1044.9 1464.94 1049.29L1471.22 1070.45ZM1409.97 987.034C1403.06 987.034 1398.09 980.39 1400.04 973.758L1411.2 935.8C1414.11 925.91 1428.11 925.883 1431.06 935.762L1442.38 973.719C1444.36 980.36 1439.39 987.034 1432.46 987.034H1409.97ZM1300.71 945.387C1300.71 939.669 1296.07 935.033 1290.35 935.033H1185.33C1179.61 935.033 1174.98 939.669 1174.98 945.387V979.529C1174.98 985.247 1179.61 989.883 1185.33 989.883H1219.89C1227.31 989.883 1232.25 997.535 1227.54 1003.26C1216.92 1016.19 1200.47 1022.65 1178.18 1022.65C1155.63 1022.65 1138.06 1016 1125.47 1002.71C1113.12 989.408 1106.95 973.143 1106.95 953.91C1106.95 933.964 1113.24 917.581 1125.83 904.758C1138.41 891.936 1154.56 885.525 1174.27 885.525C1186.38 885.525 1197.18 887.9 1206.68 892.649C1212.98 895.725 1218.29 899.449 1222.61 903.82C1226.49 907.756 1232.54 909.365 1237.34 906.618L1273.52 885.906C1278.63 882.979 1280.31 876.349 1276.72 871.684C1266.48 858.41 1253.34 847.471 1237.31 838.867C1218.08 828.419 1196.82 823.196 1173.55 823.196C1136.75 823.196 1105.88 835.78 1080.95 860.95C1056.02 886.119 1043.55 916.987 1043.55 953.554C1043.55 990.121 1056.02 1020.87 1080.95 1045.8C1106.12 1070.73 1138.17 1083.2 1177.12 1083.2C1213.68 1083.2 1243.36 1071.92 1266.16 1049.36C1289.19 1026.57 1300.71 996.888 1300.71 960.321V945.387ZM903.349 931.797C908.404 936.852 908.404 945.047 903.349 950.102L876.824 976.627C871.769 981.681 863.574 981.681 858.52 976.627L700.529 818.636C695.474 813.581 695.474 805.386 700.529 800.332L721.374 779.487C724.356 776.504 728.606 775.162 732.761 775.89L836.628 794.097C849.085 796.281 856.957 781.139 848.015 772.197L797.491 721.673C792.437 716.619 792.437 708.424 797.491 703.369L824.268 676.592C829.323 671.538 837.518 671.538 842.572 676.592L1000.56 834.583C1005.62 839.638 1005.62 847.833 1000.56 852.887L979.467 873.984C976.484 876.967 972.235 878.309 968.08 877.581L864.213 859.373C851.756 857.19 843.883 872.331 852.826 881.274L903.349 931.797ZM749.593 354.148L561.428 319.321C555.489 318.222 551.747 312.293 553.311 306.459L565.117 262.397C566.694 256.511 572.988 253.253 578.705 255.363L758.424 321.709C763.444 323.562 766.224 328.934 764.84 334.103L761.479 346.646C760.08 351.865 754.905 355.131 749.593 354.148ZM581.4 624.27L761.769 560.349C766.862 558.544 769.71 553.128 768.312 547.909L764.951 535.366C763.566 530.197 758.472 526.935 753.198 527.84L564.384 560.242C558.378 561.273 554.556 567.242 556.133 573.128L567.94 617.19C569.503 623.024 575.707 626.288 581.4 624.27Z" fill="url(#paint3_linear_45_162)"/>
</g>
<defs>
<filter id="filter0_f_45_162" x="0.196289" y="0.254395" width="1565.74" height="1110.95" filterUnits="userSpaceOnUse" color-interpolation-filters="sRGB">
<feFlood flood-opacity="0" result="BackgroundImageFix"/>
<feBlend mode="normal" in="SourceGraphic" in2="BackgroundImageFix" result="shape"/>
<feGaussianBlur stdDeviation="14" result="effect1_foregroundBlur_45_162"/>
</filter>
<filter id="filter1_i_45_162" x="25.4619" y="24.2544" width="1512.74" height="1058.95" filterUnits="userSpaceOnUse" color-interpolation-filters="sRGB">
<feFlood flood-opacity="0" result="BackgroundImageFix"/>
<feBlend mode="normal" in="SourceGraphic" in2="BackgroundImageFix" result="shape"/>
<feColorMatrix in="SourceAlpha" type="matrix" values="0 0 0 0 0 0 0 0 0 0 0 0 0 0 0 0 0 0 127 0" result="hardAlpha"/>
<feOffset dx="-3" dy="-8"/>
<feGaussianBlur stdDeviation="2"/>
<feComposite in2="hardAlpha" operator="arithmetic" k2="-1" k3="1"/>
<feColorMatrix type="matrix" values="0 0 0 0 0 0 0 0 0 0 0 0 0 0 0 0 0 0 0.25 0"/>
<feBlend mode="normal" in2="shape" result="effect1_innerShadow_45_162"/>
</filter>
<linearGradient id="paint0_linear_45_162" x1="783.069" y1="28.2544" x2="783.069" y2="1083.2" gradientUnits="userSpaceOnUse">
<stop stop-color="#FF63B9"/>
<stop offset="1" stop-color="#8A05FE"/>
</linearGradient>
<linearGradient id="paint1_linear_45_162" x1="783.069" y1="28.2544" x2="783.069" y2="1083.2" gradientUnits="userSpaceOnUse">
<stop stop-color="#FF63B9"/>
<stop offset="1" stop-color="#8A05FE"/>
</linearGradient>
<linearGradient id="paint2_linear_45_162" x1="804.044" y1="51.5522" x2="804.044" y2="1106.5" gradientUnits="userSpaceOnUse">
<stop stop-color="#FF63B9"/>
<stop offset="1" stop-color="#8A05FE"/>
</linearGradient>
<linearGradient id="paint3_linear_45_162" x1="783.334" y1="28.2544" x2="783.334" y2="1083.2" gradientUnits="userSpaceOnUse">
<stop stop-color="#FF63B9"/>
<stop offset="1" stop-color="#8A05FE"/>
</linearGradient>
</defs>
</svg>
