<svg width="1900" height="614" viewBox="0 0 1900 614" fill="none" xmlns="http://www.w3.org/2000/svg">
<g filter="url(#filter0_f_45_169)">
<path fill-rule="evenodd" clip-rule="evenodd" d="M350.048 211.352C350.048 136.254 288.733 75.375 213.098 75.375C137.462 75.375 76.1474 136.254 76.1474 211.352C76.1474 246.811 89.8169 279.1 112.209 303.307L112.054 303.244C135.556 330.365 152 353.548 163.088 371.838C165.04 375.058 166.85 378.165 168.519 381.151H182.282C183.097 369.1 183.783 355.947 184.071 345.816L184.546 329.097L180.736 327.683C164.137 321.518 153.148 311.536 144.873 295.107C138.031 281.522 135.765 265.655 139.315 256.192C141.453 250.492 146.34 245.535 151.398 243.933C159.915 241.238 168.336 244.426 177.703 253.892C185.14 261.408 189.378 268.548 193.218 280.031C195.812 287.789 196.996 294.918 198.763 313.419L199.183 317.817L204.966 318.357C208.147 318.654 213.352 318.654 216.533 318.357L222.317 317.817L222.705 313.807C224.926 290.871 225.909 285.7 230.121 274.808C236.383 258.61 249.934 245.078 261.846 243.123C270.08 241.772 278.902 247.442 282.185 256.192C285.735 265.655 283.468 281.522 276.626 295.107C268.352 311.536 257.363 321.518 240.764 327.683L236.954 329.097L237.429 345.816C237.717 355.947 238.402 369.1 239.218 381.151H258.296C260.216 377.659 262.335 373.993 264.654 370.167C275.889 351.636 292.623 328.08 316.626 300.495L316.572 300.432C337.426 276.571 350.048 245.425 350.048 211.352ZM290.462 422.813L290.887 422.913C291.45 420.576 295.012 410.926 305.076 394.326C314.811 378.268 329.978 356.78 352.526 330.89L352.465 330.838C380.357 298.794 397.228 257.029 397.228 211.352C397.228 110.383 314.79 28.5305 213.098 28.5305C111.406 28.5305 28.9678 110.383 28.9678 211.352C28.9678 257.845 46.4462 300.283 75.2347 332.544L75.2158 332.561C97.7636 358.45 112.931 379.938 122.666 395.996C129.796 407.756 133.662 416.028 135.511 420.683C135.595 427.006 140.747 432.105 147.09 432.105H279.108C284.72 432.105 289.4 428.113 290.462 422.813ZM196.615 381.151H224.856C224.116 370.345 223.406 357.589 222.766 343.345C222.265 332.187 222.212 331.919 220.583 332.244C216.459 333.068 209.912 333.294 204.796 332.79L199.231 332.241L198.725 343.51C198.121 356.982 197.386 369.924 196.615 381.151ZM169.65 305.097C156.669 293.456 147.787 268.122 153.591 259.289C156.234 255.265 162.438 257.73 169.333 265.543C177.622 274.935 182.162 288.01 183.957 307.664C184.319 311.629 184.211 313.287 183.592 313.287C181.582 313.287 173.468 308.52 169.65 305.097ZM246.749 273.061C249.69 267.859 256.564 260.382 259.92 258.731C263.633 256.906 266.473 257.103 267.908 259.289C273.651 268.03 264.835 293.452 252.102 304.87C248.355 308.23 239.865 313.287 237.972 313.287C237.274 313.287 237.162 311.832 237.543 307.664C238.902 292.789 241.84 281.742 246.749 273.061ZM1701.93 573.417C1700.23 578.816 1695.23 582.49 1689.57 582.49H1654.51C1645.66 582.49 1639.42 573.799 1642.25 565.409L1714.82 350.321C1716.6 345.059 1721.53 341.516 1727.08 341.516H1786.04C1791.59 341.516 1796.53 345.059 1798.3 350.321L1870.87 565.409C1873.7 573.799 1867.46 582.49 1858.61 582.49H1823.54C1817.89 582.49 1812.89 578.819 1811.19 573.424L1798.15 531.895H1714.94L1701.93 573.417ZM1757.73 403.128L1784.26 487.654H1728.8L1755.28 403.128C1755.45 402.594 1755.94 402.23 1756.5 402.23C1757.06 402.23 1757.56 402.593 1757.73 403.128ZM1756.71 318.571C1747.33 318.571 1741.07 308.9 1744.9 300.338L1757.08 273.157C1759.16 268.501 1763.79 265.505 1768.89 265.505H1787.21C1797.56 265.505 1803.72 277.05 1797.96 285.649L1779.76 312.83C1777.36 316.418 1773.33 318.571 1769.01 318.571H1756.71ZM1554.96 411.006C1557.69 416.182 1562.6 420.232 1568.45 420.232H1602.93C1610.68 420.232 1616.78 413.421 1614.64 405.974C1612.75 399.364 1610.08 393.096 1606.66 387.169C1600.85 377.128 1593.28 368.46 1583.95 361.165C1574.69 353.87 1564.02 348.222 1551.94 344.222C1539.94 340.221 1526.96 338.221 1513 338.221C1496.92 338.221 1481.9 340.966 1467.93 346.457C1454.05 351.948 1441.81 360.028 1431.22 370.696C1420.71 381.364 1412.51 394.386 1406.63 409.76C1400.75 425.057 1397.81 442.588 1397.81 462.356C1397.81 487.771 1402.67 509.735 1412.4 528.247C1422.12 546.681 1435.69 560.879 1453.11 570.842C1470.52 580.804 1490.72 585.785 1513.7 585.785C1534.41 585.785 1552.73 581.667 1568.65 573.43C1584.66 565.194 1597.21 553.388 1606.31 538.014C1615.48 522.639 1620.07 504.166 1620.07 482.594V463.65C1620.07 456.502 1614.28 450.707 1607.13 450.707H1529.12C1521.97 450.707 1516.18 456.502 1516.18 463.65V480.241C1516.18 487.389 1521.97 493.184 1529.12 493.184H1572.47C1567.74 493.756 1563.91 497.82 1562.83 502.713C1561.89 507.032 1560.33 510.994 1558.18 514.598C1554.34 521.031 1548.69 526.012 1541.24 529.542C1533.86 532.993 1524.84 534.719 1514.17 534.719C1502.09 534.719 1491.82 531.856 1483.35 526.129C1474.88 520.403 1468.4 512.088 1463.93 501.185C1459.46 490.281 1457.23 477.103 1457.23 461.65C1457.23 446.275 1459.54 433.215 1464.17 422.468C1468.8 411.643 1475.35 403.407 1483.82 397.759C1492.37 392.111 1502.49 389.287 1514.17 389.287C1519.98 389.287 1525.31 389.993 1530.18 391.405C1535.04 392.738 1539.35 394.739 1543.12 397.406C1546.89 400.073 1550.06 403.328 1552.65 407.172C1553.49 408.388 1554.26 409.666 1554.96 411.006ZM469.754 573.417C468.063 578.816 463.061 582.49 457.403 582.49H422.341C413.487 582.49 407.247 573.799 410.078 565.409L482.649 350.321C484.425 345.059 489.359 341.516 494.913 341.516H553.867C559.421 341.516 564.356 345.059 566.131 350.321L638.702 565.409C641.533 573.799 635.293 582.49 626.439 582.49H591.371C585.716 582.49 580.716 578.819 579.022 573.424L565.983 531.895H482.764L469.754 573.417ZM525.554 403.128L552.093 487.654H496.625L523.108 403.128C523.276 402.594 523.771 402.23 524.331 402.23C524.891 402.23 525.387 402.593 525.554 403.128ZM683.353 582.49C676.205 582.49 670.41 576.695 670.41 569.547V354.459C670.41 347.31 676.205 341.516 683.353 341.516H715.711C722.859 341.516 728.654 347.31 728.654 354.459V441.276C728.654 442.456 729.61 443.412 730.789 443.412C731.447 443.412 732.067 443.109 732.472 442.592L807.602 346.487C810.055 343.349 813.816 341.516 817.799 341.516H853.277C864.108 341.516 870.149 354.027 863.412 362.509L800.464 441.757C796.999 446.118 796.714 452.207 799.755 456.874L868.577 562.481C874.187 571.09 868.009 582.49 857.733 582.49H819.081C814.647 582.49 810.521 580.22 808.148 576.474L761.71 503.175C756.94 495.645 746.164 495.078 740.63 502.065L731.45 513.656C729.639 515.943 728.654 518.774 728.654 521.692V569.547C728.654 576.696 722.859 582.49 715.711 582.49H683.353ZM945.677 582.49C951.335 582.49 956.337 578.816 958.028 573.417L971.038 531.895H1054.26L1067.3 573.424C1068.99 578.819 1073.99 582.49 1079.64 582.49H1114.71C1123.57 582.49 1129.81 573.799 1126.98 565.409L1054.4 350.321C1052.63 345.059 1047.69 341.516 1042.14 341.516H983.187C977.633 341.516 972.698 345.059 970.923 350.321L898.351 565.409C895.521 573.799 901.761 582.49 910.615 582.49H945.677ZM1040.37 487.654L1013.83 403.128C1013.66 402.593 1013.17 402.23 1012.61 402.23C1012.05 402.23 1011.55 402.594 1011.38 403.128L984.899 487.654H1040.37ZM1350.83 341.516C1357.98 341.516 1363.77 347.31 1363.77 354.459V569.547C1363.77 576.695 1357.98 582.49 1350.83 582.49H1321.15C1316.89 582.49 1312.91 580.398 1310.49 576.894L1218.76 443.846C1218.57 443.574 1218.26 443.412 1217.93 443.412C1217.38 443.412 1216.93 443.861 1216.93 444.415V569.547C1216.93 576.695 1211.13 582.49 1203.98 582.49H1171.63C1164.48 582.49 1158.68 576.695 1158.68 569.547V354.459C1158.68 347.31 1164.48 341.516 1171.63 341.516H1201.98C1206.25 341.516 1210.25 343.627 1212.66 347.158L1303.26 479.788C1303.5 480.145 1303.9 480.358 1304.34 480.358C1305.06 480.358 1305.65 479.772 1305.65 479.049V354.459C1305.65 347.31 1311.44 341.516 1318.59 341.516H1350.83ZM290.686 550.128C290.686 546.291 287.575 543.18 283.737 543.18H234.646C227.857 543.18 225.097 534.445 230.654 530.544L287.729 490.482C289.583 489.181 290.686 487.059 290.686 484.795V464.531C290.686 460.694 287.575 457.583 283.737 457.583L142.455 457.583C138.618 457.583 135.507 460.694 135.507 464.531V490.328C135.507 494.166 138.618 497.277 142.455 497.277H191.547C198.336 497.277 201.095 506.012 195.539 509.912L138.463 549.975C136.61 551.276 135.507 553.398 135.507 555.662V575.704C135.507 579.541 138.618 582.652 142.455 582.652H283.737C287.575 582.652 290.686 579.541 290.686 575.704V550.128Z" fill="url(#paint0_linear_45_169)"/>
</g>
<path fill-rule="evenodd" clip-rule="evenodd" d="M350.048 211.352C350.048 136.254 288.733 75.375 213.098 75.375C137.462 75.375 76.1474 136.254 76.1474 211.352C76.1474 246.811 89.8169 279.1 112.209 303.307L112.054 303.244C135.556 330.365 152 353.548 163.088 371.838C165.04 375.058 166.85 378.165 168.519 381.151H182.282C183.097 369.1 183.783 355.947 184.071 345.816L184.546 329.097L180.736 327.683C164.137 321.518 153.148 311.536 144.873 295.107C138.031 281.522 135.765 265.655 139.315 256.192C141.453 250.492 146.34 245.535 151.398 243.933C159.915 241.238 168.336 244.426 177.703 253.892C185.14 261.408 189.378 268.548 193.218 280.031C195.812 287.789 196.996 294.918 198.763 313.419L199.183 317.817L204.966 318.357C208.147 318.654 213.352 318.654 216.533 318.357L222.317 317.817L222.705 313.807C224.926 290.871 225.909 285.7 230.121 274.808C236.383 258.61 249.934 245.078 261.846 243.123C270.08 241.772 278.902 247.442 282.185 256.192C285.735 265.655 283.468 281.522 276.626 295.107C268.352 311.536 257.363 321.518 240.764 327.683L236.954 329.097L237.429 345.816C237.717 355.947 238.402 369.1 239.218 381.151H258.296C260.216 377.659 262.335 373.993 264.654 370.167C275.889 351.636 292.623 328.08 316.626 300.495L316.572 300.432C337.426 276.571 350.048 245.425 350.048 211.352ZM290.462 422.813L290.887 422.913C291.45 420.576 295.012 410.926 305.076 394.326C314.811 378.268 329.978 356.78 352.526 330.89L352.465 330.838C380.357 298.794 397.228 257.029 397.228 211.352C397.228 110.383 314.79 28.5305 213.098 28.5305C111.406 28.5305 28.9678 110.383 28.9678 211.352C28.9678 257.845 46.4462 300.283 75.2347 332.544L75.2158 332.561C97.7636 358.45 112.931 379.938 122.666 395.996C129.796 407.756 133.662 416.028 135.511 420.683C135.595 427.006 140.747 432.105 147.09 432.105H279.108C284.72 432.105 289.4 428.113 290.462 422.813ZM196.615 381.151H224.856C224.116 370.345 223.406 357.589 222.766 343.345C222.265 332.187 222.212 331.919 220.583 332.244C216.459 333.068 209.912 333.294 204.796 332.79L199.231 332.241L198.725 343.51C198.121 356.982 197.386 369.924 196.615 381.151ZM169.65 305.097C156.669 293.456 147.787 268.122 153.591 259.289C156.234 255.265 162.438 257.73 169.333 265.543C177.622 274.935 182.162 288.01 183.957 307.664C184.319 311.629 184.211 313.287 183.592 313.287C181.582 313.287 173.468 308.52 169.65 305.097ZM246.749 273.061C249.69 267.859 256.564 260.382 259.92 258.731C263.633 256.906 266.473 257.103 267.908 259.289C273.651 268.03 264.835 293.452 252.102 304.87C248.355 308.23 239.865 313.287 237.972 313.287C237.274 313.287 237.162 311.832 237.543 307.664C238.902 292.789 241.84 281.742 246.749 273.061ZM1701.93 573.417C1700.23 578.816 1695.23 582.49 1689.57 582.49H1654.51C1645.66 582.49 1639.42 573.799 1642.25 565.409L1714.82 350.321C1716.6 345.059 1721.53 341.516 1727.08 341.516H1786.04C1791.59 341.516 1796.53 345.059 1798.3 350.321L1870.87 565.409C1873.7 573.799 1867.46 582.49 1858.61 582.49H1823.54C1817.89 582.49 1812.89 578.819 1811.19 573.424L1798.15 531.895H1714.94L1701.93 573.417ZM1757.73 403.128L1784.26 487.654H1728.8L1755.28 403.128C1755.45 402.594 1755.94 402.23 1756.5 402.23C1757.06 402.23 1757.56 402.593 1757.73 403.128ZM1756.71 318.571C1747.33 318.571 1741.07 308.9 1744.9 300.338L1757.08 273.157C1759.16 268.501 1763.79 265.505 1768.89 265.505H1787.21C1797.56 265.505 1803.72 277.05 1797.96 285.649L1779.76 312.83C1777.36 316.418 1773.33 318.571 1769.01 318.571H1756.71ZM1554.96 411.006C1557.69 416.182 1562.6 420.232 1568.45 420.232H1602.93C1610.68 420.232 1616.78 413.421 1614.64 405.974C1612.75 399.364 1610.08 393.096 1606.66 387.169C1600.85 377.128 1593.28 368.46 1583.95 361.165C1574.69 353.87 1564.02 348.222 1551.94 344.222C1539.94 340.221 1526.96 338.221 1513 338.221C1496.92 338.221 1481.9 340.966 1467.93 346.457C1454.05 351.948 1441.81 360.028 1431.22 370.696C1420.71 381.364 1412.51 394.386 1406.63 409.76C1400.75 425.057 1397.81 442.588 1397.81 462.356C1397.81 487.771 1402.67 509.735 1412.4 528.247C1422.12 546.681 1435.69 560.879 1453.11 570.842C1470.52 580.804 1490.72 585.785 1513.7 585.785C1534.41 585.785 1552.73 581.667 1568.65 573.43C1584.66 565.194 1597.21 553.388 1606.31 538.014C1615.48 522.639 1620.07 504.166 1620.07 482.594V463.65C1620.07 456.502 1614.28 450.707 1607.13 450.707H1529.12C1521.97 450.707 1516.18 456.502 1516.18 463.65V480.241C1516.18 487.389 1521.97 493.184 1529.12 493.184H1572.47C1567.74 493.756 1563.91 497.82 1562.83 502.713C1561.89 507.032 1560.33 510.994 1558.18 514.598C1554.34 521.031 1548.69 526.012 1541.24 529.542C1533.86 532.993 1524.84 534.719 1514.17 534.719C1502.09 534.719 1491.82 531.856 1483.35 526.129C1474.88 520.403 1468.4 512.088 1463.93 501.185C1459.46 490.281 1457.23 477.103 1457.23 461.65C1457.23 446.275 1459.54 433.215 1464.17 422.468C1468.8 411.643 1475.35 403.407 1483.82 397.759C1492.37 392.111 1502.49 389.287 1514.17 389.287C1519.98 389.287 1525.31 389.993 1530.18 391.405C1535.04 392.738 1539.35 394.739 1543.12 397.406C1546.89 400.073 1550.06 403.328 1552.65 407.172C1553.49 408.388 1554.26 409.666 1554.96 411.006ZM469.754 573.417C468.063 578.816 463.061 582.49 457.403 582.49H422.341C413.487 582.49 407.247 573.799 410.078 565.409L482.649 350.321C484.425 345.059 489.359 341.516 494.913 341.516H553.867C559.421 341.516 564.356 345.059 566.131 350.321L638.702 565.409C641.533 573.799 635.293 582.49 626.439 582.49H591.371C585.716 582.49 580.716 578.819 579.022 573.424L565.983 531.895H482.764L469.754 573.417ZM525.554 403.128L552.093 487.654H496.625L523.108 403.128C523.276 402.594 523.771 402.23 524.331 402.23C524.891 402.23 525.387 402.593 525.554 403.128ZM683.353 582.49C676.205 582.49 670.41 576.695 670.41 569.547V354.459C670.41 347.31 676.205 341.516 683.353 341.516H715.711C722.859 341.516 728.654 347.31 728.654 354.459V441.276C728.654 442.456 729.61 443.412 730.789 443.412C731.447 443.412 732.067 443.109 732.472 442.592L807.602 346.487C810.055 343.349 813.816 341.516 817.799 341.516H853.277C864.108 341.516 870.149 354.027 863.412 362.509L800.464 441.757C796.999 446.118 796.714 452.207 799.755 456.874L868.577 562.481C874.187 571.09 868.009 582.49 857.733 582.49H819.081C814.647 582.49 810.521 580.22 808.148 576.474L761.71 503.175C756.94 495.645 746.164 495.078 740.63 502.065L731.45 513.656C729.639 515.943 728.654 518.774 728.654 521.692V569.547C728.654 576.696 722.859 582.49 715.711 582.49H683.353ZM945.677 582.49C951.335 582.49 956.337 578.816 958.028 573.417L971.038 531.895H1054.26L1067.3 573.424C1068.99 578.819 1073.99 582.49 1079.64 582.49H1114.71C1123.57 582.49 1129.81 573.799 1126.98 565.409L1054.4 350.321C1052.63 345.059 1047.69 341.516 1042.14 341.516H983.187C977.633 341.516 972.698 345.059 970.923 350.321L898.351 565.409C895.521 573.799 901.761 582.49 910.615 582.49H945.677ZM1040.37 487.654L1013.83 403.128C1013.66 402.593 1013.17 402.23 1012.61 402.23C1012.05 402.23 1011.55 402.594 1011.38 403.128L984.899 487.654H1040.37ZM1350.83 341.516C1357.98 341.516 1363.77 347.31 1363.77 354.459V569.547C1363.77 576.695 1357.98 582.49 1350.83 582.49H1321.15C1316.89 582.49 1312.91 580.398 1310.49 576.894L1218.76 443.846C1218.57 443.574 1218.26 443.412 1217.93 443.412C1217.38 443.412 1216.93 443.861 1216.93 444.415V569.547C1216.93 576.695 1211.13 582.49 1203.98 582.49H1171.63C1164.48 582.49 1158.68 576.695 1158.68 569.547V354.459C1158.68 347.31 1164.48 341.516 1171.63 341.516H1201.98C1206.25 341.516 1210.25 343.627 1212.66 347.158L1303.26 479.788C1303.5 480.145 1303.9 480.358 1304.34 480.358C1305.06 480.358 1305.65 479.772 1305.65 479.049V354.459C1305.65 347.31 1311.44 341.516 1318.59 341.516H1350.83ZM290.686 550.128C290.686 546.291 287.575 543.18 283.737 543.18H234.646C227.857 543.18 225.097 534.445 230.654 530.544L287.729 490.482C289.583 489.181 290.686 487.059 290.686 484.795V464.531C290.686 460.694 287.575 457.583 283.737 457.583L142.455 457.583C138.618 457.583 135.507 460.694 135.507 464.531V490.328C135.507 494.166 138.618 497.277 142.455 497.277H191.547C198.336 497.277 201.095 506.012 195.539 509.912L138.463 549.975C136.61 551.276 135.507 553.398 135.507 555.662V575.704C135.507 579.541 138.618 582.652 142.455 582.652H283.737C287.575 582.652 290.686 579.541 290.686 575.704V550.128Z" fill="url(#paint1_linear_45_169)"/>
<g style="mix-blend-mode:color-burn">
<path fill-rule="evenodd" clip-rule="evenodd" d="M371.024 234.65C371.024 159.552 309.709 98.6726 234.073 98.6726C158.438 98.6726 97.123 159.552 97.123 234.65C97.123 270.109 110.792 302.398 133.185 326.605L133.029 326.542C156.531 353.663 172.976 376.846 184.063 395.135C186.016 398.355 187.826 401.463 189.495 404.449H203.258C204.073 392.398 204.758 379.245 205.046 369.113L205.521 352.394L201.711 350.98C185.112 344.815 174.124 334.834 165.849 318.404C159.007 304.819 156.74 288.952 160.291 279.489C162.428 273.789 167.315 268.832 172.373 267.23C180.891 264.535 189.312 267.723 198.679 277.189C206.116 284.706 210.354 291.845 214.193 303.328C216.787 311.086 217.972 318.215 219.738 336.716L220.158 341.114L225.942 341.655C229.123 341.952 234.328 341.952 237.509 341.655L243.293 341.114L243.681 337.104C245.901 314.168 246.885 308.997 251.096 298.105C257.359 281.907 270.91 268.375 282.822 266.421C291.056 265.07 299.878 270.739 303.16 279.489C306.711 288.952 304.444 304.819 297.602 318.404C289.327 334.834 278.339 344.815 261.74 350.98L257.93 352.394L258.405 369.113C258.693 379.245 259.378 392.398 260.193 404.449H279.272C281.192 400.957 283.311 397.29 285.63 393.465C296.864 374.934 313.599 351.378 337.601 323.792L337.548 323.729C358.402 299.869 371.024 268.723 371.024 234.65ZM311.438 446.11L311.863 446.211C312.426 443.873 315.988 434.223 326.051 417.623C335.786 401.566 350.954 380.077 373.502 354.188L373.441 354.135C401.333 322.091 418.203 280.327 418.203 234.65C418.203 133.68 335.766 51.8281 234.073 51.8281C132.381 51.8281 49.9433 133.68 49.9434 234.65C49.9434 281.142 67.4218 323.581 96.2103 355.842L96.1914 355.858C118.739 381.748 133.907 403.236 143.642 419.293C150.771 431.054 154.638 439.326 156.486 443.981C156.571 450.303 161.723 455.403 168.066 455.403H300.083C305.696 455.403 310.376 451.41 311.438 446.11ZM217.591 404.449H245.831C245.091 393.642 244.381 380.887 243.741 366.642C243.24 355.484 243.188 355.216 241.559 355.541C237.434 356.365 230.887 356.592 225.772 356.087L220.206 355.538L219.701 366.807C219.097 380.279 218.362 393.221 217.591 404.449ZM190.626 328.394C177.644 316.753 168.763 291.419 174.567 282.586C177.21 278.562 183.414 281.027 190.309 288.84C198.598 298.232 203.137 311.308 204.933 330.961C205.294 334.926 205.187 336.584 204.567 336.584C202.558 336.584 194.443 331.817 190.626 328.394ZM267.725 296.358C270.665 291.157 277.539 283.679 280.896 282.028C284.609 280.203 287.449 280.401 288.884 282.586C294.626 291.327 285.811 316.749 273.077 328.167C269.33 331.527 260.841 336.584 258.947 336.584C258.249 336.584 258.138 335.129 258.518 330.961C259.877 316.086 262.816 305.04 267.725 296.358ZM1722.9 596.714C1721.21 602.113 1716.21 605.788 1710.55 605.788H1675.49C1666.63 605.788 1660.39 597.096 1663.22 588.707L1735.79 373.618C1737.57 368.356 1742.5 364.813 1748.06 364.813H1807.01C1812.57 364.813 1817.5 368.356 1819.28 373.618L1891.85 588.707C1894.68 597.096 1888.44 605.788 1879.58 605.788H1844.52C1838.86 605.788 1833.86 602.117 1832.17 596.722L1819.13 555.192H1735.91L1722.9 596.714ZM1778.7 426.425L1805.24 510.951H1749.77L1776.25 426.426C1776.42 425.891 1776.92 425.527 1777.48 425.527C1778.04 425.527 1778.53 425.891 1778.7 426.425ZM1777.69 341.868C1768.31 341.868 1762.04 332.198 1765.88 323.635L1778.05 296.455C1780.14 291.799 1784.76 288.802 1789.86 288.802H1808.18C1818.53 288.802 1824.69 300.347 1818.94 308.947L1800.74 336.127C1798.33 339.715 1794.3 341.868 1789.98 341.868H1777.69ZM1575.94 434.303C1578.66 439.479 1583.57 443.53 1589.42 443.53H1623.9C1631.65 443.53 1637.75 436.718 1635.62 429.271C1633.72 422.661 1631.06 416.393 1627.63 410.466C1621.83 400.426 1614.26 391.758 1604.92 384.463C1595.67 377.167 1585 371.52 1572.92 367.519C1560.92 363.518 1547.93 361.518 1533.97 361.518C1517.89 361.518 1502.87 364.264 1488.91 369.755C1475.02 375.246 1462.79 383.325 1452.2 393.993C1441.68 404.661 1433.49 417.683 1427.6 433.058C1421.72 448.354 1418.78 465.886 1418.78 485.653C1418.78 511.068 1423.64 533.032 1433.37 551.545C1443.1 569.979 1456.67 584.177 1474.08 594.139C1491.5 604.101 1511.69 609.082 1534.68 609.082C1555.39 609.082 1573.7 604.964 1589.63 596.727C1605.63 588.491 1618.18 576.685 1627.28 561.311C1636.46 545.936 1641.05 527.463 1641.05 505.891V486.947C1641.05 479.799 1635.25 474.004 1628.1 474.004H1550.09C1542.94 474.004 1537.15 479.799 1537.15 486.947V503.538C1537.15 510.686 1542.94 516.481 1550.09 516.481H1593.44C1588.71 517.054 1584.88 521.117 1583.81 526.011C1582.86 530.33 1581.31 534.291 1579.15 537.896C1575.31 544.328 1569.66 549.309 1562.21 552.839C1554.84 556.29 1545.82 558.016 1535.15 558.016C1523.07 558.016 1512.79 555.153 1504.32 549.427C1495.85 543.7 1489.38 535.386 1484.91 524.482C1480.44 513.579 1478.2 500.4 1478.2 484.947C1478.2 469.572 1480.51 456.512 1485.14 445.765C1489.77 434.94 1496.32 426.704 1504.79 421.056C1513.34 415.408 1523.46 412.584 1535.15 412.584C1540.95 412.584 1546.29 413.29 1551.15 414.702C1556.01 416.036 1560.33 418.036 1564.09 420.703C1567.86 423.37 1571.04 426.625 1573.62 430.469C1574.46 431.686 1575.23 432.964 1575.94 434.303ZM490.728 596.714C489.037 602.113 484.035 605.788 478.377 605.788H443.315C434.461 605.788 428.221 597.096 431.051 588.707L503.623 373.618C505.398 368.356 510.333 364.813 515.887 364.813H574.841C580.395 364.813 585.329 368.356 587.105 373.618L659.676 588.707C662.507 597.096 656.267 605.788 647.413 605.788H612.345C606.69 605.788 601.69 602.117 599.996 596.722L586.957 555.192H503.738L490.728 596.714ZM546.528 426.425L573.067 510.951H517.599L544.082 426.426C544.25 425.891 544.745 425.527 545.305 425.527C545.865 425.527 546.361 425.891 546.528 426.425ZM704.327 605.788C697.179 605.788 691.384 599.993 691.384 592.845V377.756C691.384 370.608 697.179 364.813 704.327 364.813H736.685C743.833 364.813 749.628 370.608 749.628 377.756V464.574C749.628 465.753 750.584 466.709 751.763 466.709C752.421 466.709 753.041 466.407 753.446 465.889L828.576 369.784C831.029 366.646 834.79 364.813 838.773 364.813H874.251C885.082 364.813 891.122 377.324 884.385 385.806L821.438 465.054C817.973 469.416 817.688 475.504 820.729 480.171L889.55 585.778C895.161 594.388 888.983 605.788 878.707 605.788H840.055C835.621 605.788 831.495 603.517 829.122 599.771L782.684 526.472C777.913 518.942 767.138 518.375 761.604 525.363L752.424 536.953C750.613 539.24 749.628 542.072 749.628 544.989V592.845C749.628 599.993 743.833 605.788 736.685 605.788H704.327ZM966.651 605.788C972.309 605.788 977.31 602.113 979.002 596.714L992.011 555.192H1075.23L1088.27 596.722C1089.96 602.117 1094.96 605.788 1100.62 605.788H1135.69C1144.54 605.788 1150.78 597.096 1147.95 588.707L1075.38 373.618C1073.6 368.356 1068.67 364.813 1063.12 364.813H1004.16C998.607 364.813 993.672 368.356 991.897 373.618L919.325 588.707C916.495 597.096 922.735 605.788 931.589 605.788H966.651ZM1061.34 510.951L1034.8 426.425C1034.63 425.891 1034.14 425.527 1033.58 425.527C1033.02 425.527 1032.52 425.891 1032.36 426.426L1005.87 510.951H1061.34ZM1371.8 364.813C1378.95 364.813 1384.75 370.608 1384.75 377.756V592.845C1384.75 599.993 1378.95 605.788 1371.8 605.788H1342.12C1337.87 605.788 1333.88 603.695 1331.47 600.192L1239.73 467.143C1239.54 466.871 1239.23 466.709 1238.9 466.709C1238.35 466.709 1237.9 467.158 1237.9 467.712V592.845C1237.9 599.993 1232.11 605.788 1224.96 605.788H1192.6C1185.45 605.788 1179.66 599.993 1179.66 592.845V377.756C1179.66 370.608 1185.45 364.813 1192.6 364.813H1222.95C1227.23 364.813 1231.23 366.925 1233.64 370.456L1324.23 503.085C1324.47 503.442 1324.88 503.656 1325.31 503.656C1326.03 503.656 1326.62 503.07 1326.62 502.347V377.756C1326.62 370.608 1332.41 364.813 1339.56 364.813H1371.8ZM311.661 573.426C311.661 569.588 308.55 566.477 304.713 566.477H255.622C248.833 566.477 246.073 557.742 251.63 553.842L308.705 513.779C310.558 512.478 311.661 510.356 311.661 508.092V487.829C311.661 483.991 308.55 480.88 304.713 480.88H163.431C159.593 480.88 156.483 483.991 156.483 487.829L156.483 513.626C156.483 517.463 159.593 520.574 163.431 520.574H212.522C219.311 520.574 222.071 529.309 216.514 533.21L159.439 573.272C157.586 574.573 156.483 576.695 156.483 578.96V599.001C156.483 602.839 159.593 605.95 163.431 605.95H304.713C308.55 605.95 311.661 602.839 311.661 599.001V573.426Z" fill="url(#paint2_linear_45_169)"/>
</g>
<g filter="url(#filter1_i_45_169)">
<path fill-rule="evenodd" clip-rule="evenodd" d="M350.315 211.352C350.315 136.254 289 75.375 213.365 75.375C137.729 75.375 76.4141 136.254 76.4141 211.352C76.4141 246.811 90.0836 279.1 112.476 303.307L112.32 303.244C135.822 330.365 152.267 353.548 163.355 371.838C165.307 375.058 167.117 378.165 168.786 381.151H182.549C183.364 369.1 184.049 355.947 184.337 345.816L184.812 329.097L181.002 327.683C164.403 321.518 153.415 311.536 145.14 295.107C138.298 281.522 136.031 265.655 139.582 256.192C141.719 250.492 146.606 245.535 151.664 243.933C160.182 241.238 168.603 244.426 177.97 253.892C185.407 261.408 189.645 268.548 193.485 280.031C196.078 287.789 197.263 294.918 199.029 313.419L199.449 317.817L205.233 318.357C208.414 318.654 213.619 318.654 216.8 318.357L222.584 317.817L222.972 313.807C225.192 290.871 226.176 285.7 230.387 274.807C236.65 258.61 250.201 245.078 262.113 243.123C270.347 241.772 279.169 247.442 282.451 256.192C286.002 265.655 283.735 281.522 276.893 295.107C268.618 311.536 257.63 321.518 241.031 327.683L237.221 329.097L237.696 345.816C237.984 355.947 238.669 369.1 239.484 381.151H258.563C260.483 377.659 262.602 373.993 264.921 370.167C276.155 351.636 292.89 328.08 316.892 300.495L316.839 300.432C337.693 276.571 350.315 245.425 350.315 211.352ZM290.73 422.813L291.154 422.914C291.717 420.576 295.279 410.926 305.343 394.326C315.077 378.268 330.245 356.78 352.793 330.89L352.732 330.838C380.624 298.794 397.495 257.029 397.495 211.352C397.495 110.383 315.057 28.5305 213.365 28.5305C111.672 28.5305 29.2345 110.383 29.2345 211.352C29.2345 257.845 46.7129 300.283 75.5015 332.544L75.4826 332.561C98.0303 358.45 113.198 379.938 122.933 395.996C130.064 407.758 133.93 416.031 135.778 420.685C135.864 427.007 141.016 432.105 147.358 432.105H279.375C284.988 432.105 289.668 428.113 290.73 422.813ZM196.882 381.151H225.122C224.382 370.345 223.672 357.589 223.032 343.345C222.531 332.187 222.479 331.919 220.85 332.244C216.725 333.068 210.178 333.294 205.063 332.79L199.497 332.241L198.992 343.51C198.388 356.982 197.653 369.924 196.882 381.151ZM169.917 305.097C156.935 293.456 148.054 268.122 153.858 259.289C156.501 255.265 162.705 257.73 169.6 265.543C177.889 274.935 182.428 288.01 184.224 307.664C184.585 311.629 184.478 313.287 183.858 313.287C181.849 313.287 173.734 308.52 169.917 305.097ZM247.016 273.061C249.956 267.859 256.83 260.382 260.187 258.731C263.9 256.906 266.74 257.103 268.175 259.289C273.917 268.03 265.102 293.452 252.368 304.87C248.621 308.23 240.132 313.287 238.238 313.287C237.54 313.287 237.429 311.832 237.809 307.664C239.168 292.789 242.107 281.742 247.016 273.061ZM1702.19 573.417C1700.5 578.816 1695.5 582.49 1689.84 582.49H1654.78C1645.92 582.49 1639.68 573.799 1642.52 565.409L1715.09 350.321C1716.86 345.058 1721.8 341.515 1727.35 341.515H1786.31C1791.86 341.515 1796.79 345.058 1798.57 350.321L1871.14 565.409C1873.97 573.799 1867.73 582.49 1858.88 582.49H1823.81C1818.15 582.49 1813.15 578.819 1811.46 573.424L1798.42 531.895H1715.2L1702.19 573.417ZM1757.99 403.128L1784.53 487.653H1729.06L1755.55 403.128C1755.71 402.594 1756.21 402.23 1756.77 402.23C1757.33 402.23 1757.82 402.593 1757.99 403.128ZM1756.98 318.571C1747.6 318.571 1741.33 308.9 1745.17 300.337L1757.34 273.157C1759.43 268.501 1764.05 265.505 1769.15 265.505H1787.47C1797.82 265.505 1803.99 277.05 1798.23 285.649L1780.03 312.83C1777.63 316.418 1773.59 318.571 1769.27 318.571H1756.98ZM1555.23 411.006C1557.96 416.182 1562.86 420.232 1568.71 420.232H1603.19C1610.94 420.232 1617.04 413.421 1614.91 405.974C1613.01 399.364 1610.35 393.096 1606.92 387.169C1601.12 377.128 1593.55 368.46 1584.22 361.165C1574.96 353.87 1564.29 348.222 1552.21 344.222C1540.21 340.221 1527.23 338.221 1513.26 338.221C1497.18 338.221 1482.16 340.966 1468.2 346.457C1454.31 351.948 1442.08 360.028 1431.49 370.696C1420.98 381.364 1412.78 394.386 1406.9 409.76C1401.01 425.057 1398.07 442.588 1398.07 462.356C1398.07 487.771 1402.94 509.735 1412.66 528.247C1422.39 546.681 1435.96 560.879 1453.37 570.842C1470.79 580.804 1490.99 585.785 1513.97 585.785C1534.68 585.785 1553 581.667 1568.92 573.43C1584.92 565.194 1597.47 553.388 1606.57 538.013C1615.75 522.639 1620.34 504.166 1620.34 482.594V463.65C1620.34 456.502 1614.54 450.707 1607.4 450.707H1529.38C1522.24 450.707 1516.44 456.502 1516.44 463.65V480.241C1516.44 487.389 1522.24 493.184 1529.38 493.184H1572.74C1568 493.756 1564.17 497.82 1563.1 502.713C1562.15 507.032 1560.6 510.994 1558.45 514.598C1554.6 521.031 1548.96 526.012 1541.5 529.542C1534.13 532.993 1525.11 534.719 1514.44 534.719C1502.36 534.719 1492.08 531.856 1483.61 526.129C1475.14 520.403 1468.67 512.088 1464.2 501.185C1459.73 490.281 1457.49 477.103 1457.49 461.65C1457.49 446.275 1459.81 433.215 1464.43 422.468C1469.06 411.643 1475.61 403.406 1484.08 397.759C1492.63 392.111 1502.75 389.287 1514.44 389.287C1520.25 389.287 1525.58 389.993 1530.44 391.405C1535.31 392.738 1539.62 394.739 1543.39 397.406C1547.15 400.073 1550.33 403.328 1552.92 407.172C1553.75 408.388 1554.52 409.666 1555.23 411.006ZM470.02 573.417C468.329 578.816 463.327 582.49 457.669 582.49H422.607C413.753 582.49 407.513 573.799 410.344 565.409L482.915 350.321C484.691 345.058 489.625 341.515 495.179 341.515H554.133C559.687 341.515 564.622 345.058 566.397 350.321L638.969 565.409C641.799 573.799 635.559 582.49 626.705 582.49H591.637C585.982 582.49 580.982 578.819 579.288 573.424L566.249 531.895H483.03L470.02 573.417ZM525.82 403.128L552.359 487.653H496.891L523.374 403.128C523.542 402.594 524.037 402.23 524.598 402.23C525.158 402.23 525.653 402.593 525.82 403.128ZM683.619 582.49C676.471 582.49 670.676 576.695 670.676 569.547V354.458C670.676 347.31 676.471 341.515 683.619 341.515H715.977C723.125 341.515 728.92 347.31 728.92 354.458V441.276C728.92 442.456 729.876 443.412 731.056 443.412C731.713 443.412 732.333 443.109 732.738 442.592L807.868 346.487C810.321 343.349 814.082 341.515 818.065 341.515H853.543C864.375 341.515 870.415 354.027 863.678 362.509L800.73 441.757C797.266 446.118 796.98 452.207 800.021 456.874L868.843 562.481C874.453 571.09 868.275 582.49 857.999 582.49H819.348C814.913 582.49 810.787 580.22 808.414 576.474L761.976 503.174C757.206 495.645 746.43 495.078 740.896 502.065L731.717 513.656C729.905 515.943 728.92 518.774 728.92 521.692V569.547C728.92 576.695 723.125 582.49 715.977 582.49H683.619ZM945.943 582.49C951.601 582.49 956.603 578.816 958.294 573.417L971.304 531.895H1054.52L1067.56 573.424C1069.26 578.819 1074.26 582.49 1079.91 582.49H1114.98C1123.83 582.49 1130.07 573.799 1127.24 565.409L1054.67 350.321C1052.9 345.058 1047.96 341.515 1042.41 341.515H983.453C977.899 341.515 972.964 345.058 971.189 350.321L898.618 565.409C895.787 573.799 902.027 582.49 910.881 582.49H945.943ZM1040.63 487.653L1014.09 403.128C1013.93 402.593 1013.43 402.23 1012.87 402.23C1012.31 402.23 1011.82 402.594 1011.65 403.128L985.165 487.653H1040.63ZM1351.09 341.515C1358.24 341.515 1364.04 347.31 1364.04 354.458V569.547C1364.04 576.695 1358.24 582.49 1351.09 582.49H1321.42C1317.16 582.49 1313.18 580.398 1310.76 576.894L1219.02 443.846C1218.84 443.574 1218.53 443.412 1218.2 443.412C1217.64 443.412 1217.19 443.861 1217.19 444.415V569.547C1217.19 576.695 1211.4 582.49 1204.25 582.49H1171.89C1164.74 582.49 1158.95 576.695 1158.95 569.547V354.458C1158.95 347.31 1164.74 341.515 1171.89 341.515H1202.24C1206.52 341.515 1210.52 343.627 1212.93 347.158L1303.52 479.788C1303.77 480.145 1304.17 480.358 1304.6 480.358C1305.33 480.358 1305.91 479.772 1305.91 479.049V354.458C1305.91 347.31 1311.71 341.515 1318.85 341.515H1351.09ZM290.953 550.128C290.953 546.291 287.842 543.18 284.005 543.18H234.913C228.125 543.18 225.365 534.445 230.922 530.544L287.997 490.482C289.85 489.181 290.953 487.059 290.953 484.795V464.531C290.953 460.694 287.842 457.583 284.005 457.583H142.723C138.885 457.583 135.774 460.694 135.774 464.531V490.328C135.774 494.166 138.885 497.277 142.723 497.277H191.814C198.603 497.277 201.363 506.012 195.806 509.912L138.731 549.975C136.878 551.276 135.774 553.398 135.774 555.662V575.704C135.774 579.541 138.885 582.652 142.723 582.652H284.005C287.842 582.652 290.953 579.541 290.953 575.704V550.128Z" fill="white"/>
</g>
<g style="mix-blend-mode:hard-light" opacity="0.5">
<path fill-rule="evenodd" clip-rule="evenodd" d="M350.315 211.352C350.315 136.254 289 75.375 213.365 75.375C137.729 75.375 76.4141 136.254 76.4141 211.352C76.4141 246.811 90.0836 279.1 112.476 303.307L112.32 303.244C135.822 330.365 152.267 353.548 163.355 371.838C165.307 375.058 167.117 378.165 168.786 381.151H182.549C183.364 369.1 184.049 355.947 184.337 345.816L184.812 329.097L181.002 327.683C164.403 321.518 153.415 311.536 145.14 295.107C138.298 281.522 136.031 265.655 139.582 256.192C141.719 250.492 146.606 245.535 151.664 243.933C160.182 241.238 168.603 244.426 177.97 253.892C185.407 261.408 189.645 268.548 193.485 280.031C196.078 287.789 197.263 294.918 199.029 313.419L199.449 317.817L205.233 318.357C208.414 318.654 213.619 318.654 216.8 318.357L222.584 317.817L222.972 313.807C225.192 290.871 226.176 285.7 230.387 274.807C236.65 258.61 250.201 245.078 262.113 243.123C270.347 241.772 279.169 247.442 282.451 256.192C286.002 265.655 283.735 281.522 276.893 295.107C268.618 311.536 257.63 321.518 241.031 327.683L237.221 329.097L237.696 345.816C237.984 355.947 238.669 369.1 239.484 381.151H258.563C260.483 377.659 262.602 373.993 264.921 370.167C276.155 351.636 292.89 328.08 316.892 300.495L316.839 300.432C337.693 276.571 350.315 245.425 350.315 211.352ZM290.73 422.813L291.154 422.914C291.717 420.576 295.279 410.926 305.343 394.326C315.077 378.268 330.245 356.78 352.793 330.89L352.732 330.838C380.624 298.794 397.495 257.029 397.495 211.352C397.495 110.383 315.057 28.5305 213.365 28.5305C111.672 28.5305 29.2345 110.383 29.2345 211.352C29.2345 257.845 46.7129 300.283 75.5015 332.544L75.4826 332.561C98.0303 358.45 113.198 379.938 122.933 395.996C130.064 407.758 133.93 416.031 135.778 420.685C135.864 427.007 141.016 432.105 147.358 432.105H279.375C284.988 432.105 289.668 428.113 290.73 422.813ZM196.882 381.151H225.122C224.382 370.345 223.672 357.589 223.032 343.345C222.531 332.187 222.479 331.919 220.85 332.244C216.725 333.068 210.178 333.294 205.063 332.79L199.497 332.241L198.992 343.51C198.388 356.982 197.653 369.924 196.882 381.151ZM169.917 305.097C156.935 293.456 148.054 268.122 153.858 259.289C156.501 255.265 162.705 257.73 169.6 265.543C177.889 274.935 182.428 288.01 184.224 307.664C184.585 311.629 184.478 313.287 183.858 313.287C181.849 313.287 173.734 308.52 169.917 305.097ZM247.016 273.061C249.956 267.859 256.83 260.382 260.187 258.731C263.9 256.906 266.74 257.103 268.175 259.289C273.917 268.03 265.102 293.452 252.368 304.87C248.621 308.23 240.132 313.287 238.238 313.287C237.54 313.287 237.429 311.832 237.809 307.664C239.168 292.789 242.107 281.742 247.016 273.061ZM1702.19 573.417C1700.5 578.816 1695.5 582.49 1689.84 582.49H1654.78C1645.92 582.49 1639.68 573.799 1642.52 565.409L1715.09 350.321C1716.86 345.058 1721.8 341.515 1727.35 341.515H1786.31C1791.86 341.515 1796.79 345.058 1798.57 350.321L1871.14 565.409C1873.97 573.799 1867.73 582.49 1858.88 582.49H1823.81C1818.15 582.49 1813.15 578.819 1811.46 573.424L1798.42 531.895H1715.2L1702.19 573.417ZM1757.99 403.128L1784.53 487.653H1729.06L1755.55 403.128C1755.71 402.594 1756.21 402.23 1756.77 402.23C1757.33 402.23 1757.82 402.593 1757.99 403.128ZM1756.98 318.571C1747.6 318.571 1741.33 308.9 1745.17 300.337L1757.34 273.157C1759.43 268.501 1764.05 265.505 1769.15 265.505H1787.47C1797.82 265.505 1803.99 277.05 1798.23 285.649L1780.03 312.83C1777.63 316.418 1773.59 318.571 1769.27 318.571H1756.98ZM1555.23 411.006C1557.96 416.182 1562.86 420.232 1568.71 420.232H1603.19C1610.94 420.232 1617.04 413.421 1614.91 405.974C1613.01 399.364 1610.35 393.096 1606.92 387.169C1601.12 377.128 1593.55 368.46 1584.22 361.165C1574.96 353.87 1564.29 348.222 1552.21 344.222C1540.21 340.221 1527.23 338.221 1513.26 338.221C1497.18 338.221 1482.16 340.966 1468.2 346.457C1454.31 351.948 1442.08 360.028 1431.49 370.696C1420.98 381.364 1412.78 394.386 1406.9 409.76C1401.01 425.057 1398.07 442.588 1398.07 462.356C1398.07 487.771 1402.94 509.735 1412.66 528.247C1422.39 546.681 1435.96 560.879 1453.37 570.842C1470.79 580.804 1490.99 585.785 1513.97 585.785C1534.68 585.785 1553 581.667 1568.92 573.43C1584.92 565.194 1597.47 553.388 1606.57 538.013C1615.75 522.639 1620.34 504.166 1620.34 482.594V463.65C1620.34 456.502 1614.54 450.707 1607.4 450.707H1529.38C1522.24 450.707 1516.44 456.502 1516.44 463.65V480.241C1516.44 487.389 1522.24 493.184 1529.38 493.184H1572.74C1568 493.756 1564.17 497.82 1563.1 502.713C1562.15 507.032 1560.6 510.994 1558.45 514.598C1554.6 521.031 1548.96 526.012 1541.5 529.542C1534.13 532.993 1525.11 534.719 1514.44 534.719C1502.36 534.719 1492.08 531.856 1483.61 526.129C1475.14 520.403 1468.67 512.088 1464.2 501.185C1459.73 490.281 1457.49 477.103 1457.49 461.65C1457.49 446.275 1459.81 433.215 1464.43 422.468C1469.06 411.643 1475.61 403.406 1484.08 397.759C1492.63 392.111 1502.75 389.287 1514.44 389.287C1520.25 389.287 1525.58 389.993 1530.44 391.405C1535.31 392.738 1539.62 394.739 1543.39 397.406C1547.15 400.073 1550.33 403.328 1552.92 407.172C1553.75 408.388 1554.52 409.666 1555.23 411.006ZM470.02 573.417C468.329 578.816 463.327 582.49 457.669 582.49H422.607C413.753 582.49 407.513 573.799 410.344 565.409L482.915 350.321C484.691 345.058 489.625 341.515 495.179 341.515H554.133C559.687 341.515 564.622 345.058 566.397 350.321L638.969 565.409C641.799 573.799 635.559 582.49 626.705 582.49H591.637C585.982 582.49 580.982 578.819 579.288 573.424L566.249 531.895H483.03L470.02 573.417ZM525.82 403.128L552.359 487.653H496.891L523.374 403.128C523.542 402.594 524.037 402.23 524.598 402.23C525.158 402.23 525.653 402.593 525.82 403.128ZM683.619 582.49C676.471 582.49 670.676 576.695 670.676 569.547V354.458C670.676 347.31 676.471 341.515 683.619 341.515H715.977C723.125 341.515 728.92 347.31 728.92 354.458V441.276C728.92 442.456 729.876 443.412 731.056 443.412C731.713 443.412 732.333 443.109 732.738 442.592L807.868 346.487C810.321 343.349 814.082 341.515 818.065 341.515H853.543C864.375 341.515 870.415 354.027 863.678 362.509L800.73 441.757C797.266 446.118 796.98 452.207 800.021 456.874L868.843 562.481C874.453 571.09 868.275 582.49 857.999 582.49H819.348C814.913 582.49 810.787 580.22 808.414 576.474L761.976 503.174C757.206 495.645 746.43 495.078 740.896 502.065L731.717 513.656C729.905 515.943 728.92 518.774 728.92 521.692V569.547C728.92 576.695 723.125 582.49 715.977 582.49H683.619ZM945.943 582.49C951.601 582.49 956.603 578.816 958.294 573.417L971.304 531.895H1054.52L1067.56 573.424C1069.26 578.819 1074.26 582.49 1079.91 582.49H1114.98C1123.83 582.49 1130.07 573.799 1127.24 565.409L1054.67 350.321C1052.9 345.058 1047.96 341.515 1042.41 341.515H983.453C977.899 341.515 972.964 345.058 971.189 350.321L898.618 565.409C895.787 573.799 902.027 582.49 910.881 582.49H945.943ZM1040.63 487.653L1014.09 403.128C1013.93 402.593 1013.43 402.23 1012.87 402.23C1012.31 402.23 1011.82 402.594 1011.65 403.128L985.165 487.653H1040.63ZM1351.09 341.515C1358.24 341.515 1364.04 347.31 1364.04 354.458V569.547C1364.04 576.695 1358.24 582.49 1351.09 582.49H1321.42C1317.16 582.49 1313.18 580.398 1310.76 576.894L1219.02 443.846C1218.84 443.574 1218.53 443.412 1218.2 443.412C1217.64 443.412 1217.19 443.861 1217.19 444.415V569.547C1217.19 576.695 1211.4 582.49 1204.25 582.49H1171.89C1164.74 582.49 1158.95 576.695 1158.95 569.547V354.458C1158.95 347.31 1164.74 341.515 1171.89 341.515H1202.24C1206.52 341.515 1210.52 343.627 1212.93 347.158L1303.52 479.788C1303.77 480.145 1304.17 480.358 1304.6 480.358C1305.33 480.358 1305.91 479.772 1305.91 479.049V354.458C1305.91 347.31 1311.71 341.515 1318.85 341.515H1351.09ZM290.953 550.128C290.953 546.291 287.842 543.18 284.005 543.18H234.913C228.125 543.18 225.365 534.445 230.922 530.544L287.997 490.482C289.85 489.181 290.953 487.059 290.953 484.795V464.531C290.953 460.694 287.842 457.583 284.005 457.583H142.723C138.885 457.583 135.774 460.694 135.774 464.531V490.328C135.774 494.166 138.885 497.277 142.723 497.277H191.814C198.603 497.277 201.363 506.012 195.806 509.912L138.731 549.975C136.878 551.276 135.774 553.398 135.774 555.662V575.704C135.774 579.541 138.885 582.652 142.723 582.652H284.005C287.842 582.652 290.953 579.541 290.953 575.704V550.128Z" fill="url(#paint3_linear_45_169)"/>
</g>
<defs>
<filter id="filter0_f_45_169" x="0.967773" y="0.530518" width="1898.6" height="613.254" filterUnits="userSpaceOnUse" color-interpolation-filters="sRGB">
<feFlood flood-opacity="0" result="BackgroundImageFix"/>
<feBlend mode="normal" in="SourceGraphic" in2="BackgroundImageFix" result="shape"/>
<feGaussianBlur stdDeviation="14" result="effect1_foregroundBlur_45_169"/>
</filter>
<filter id="filter1_i_45_169" x="26.2344" y="24.5305" width="1845.59" height="561.254" filterUnits="userSpaceOnUse" color-interpolation-filters="sRGB">
<feFlood flood-opacity="0" result="BackgroundImageFix"/>
<feBlend mode="normal" in="SourceGraphic" in2="BackgroundImageFix" result="shape"/>
<feColorMatrix in="SourceAlpha" type="matrix" values="0 0 0 0 0 0 0 0 0 0 0 0 0 0 0 0 0 0 127 0" result="hardAlpha"/>
<feOffset dx="-3" dy="-8"/>
<feGaussianBlur stdDeviation="2"/>
<feComposite in2="hardAlpha" operator="arithmetic" k2="-1" k3="1"/>
<feColorMatrix type="matrix" values="0 0 0 0 0 0 0 0 0 0 0 0 0 0 0 0 0 0 0.25 0"/>
<feBlend mode="normal" in2="shape" result="effect1_innerShadow_45_169"/>
</filter>
<linearGradient id="paint0_linear_45_169" x1="950.265" y1="28.5305" x2="950.265" y2="585.785" gradientUnits="userSpaceOnUse">
<stop stop-color="#FF63B9"/>
<stop offset="1" stop-color="#8A05FE"/>
</linearGradient>
<linearGradient id="paint1_linear_45_169" x1="950.265" y1="28.5305" x2="950.265" y2="585.785" gradientUnits="userSpaceOnUse">
<stop stop-color="#FF63B9"/>
<stop offset="1" stop-color="#8A05FE"/>
</linearGradient>
<linearGradient id="paint2_linear_45_169" x1="971.24" y1="51.8281" x2="971.24" y2="609.082" gradientUnits="userSpaceOnUse">
<stop stop-color="#FF63B9"/>
<stop offset="1" stop-color="#8A05FE"/>
</linearGradient>
<linearGradient id="paint3_linear_45_169" x1="950.532" y1="28.5305" x2="950.532" y2="585.785" gradientUnits="userSpaceOnUse">
<stop stop-color="#FF63B9"/>
<stop offset="1" stop-color="#8A05FE"/>
</linearGradient>
</defs>
</svg>
