<svg width="1111" height="1248" viewBox="0 0 1111 1248" fill="none" xmlns="http://www.w3.org/2000/svg">
<g filter="url(#filter0_f_45_161)">
<path fill-rule="evenodd" clip-rule="evenodd" d="M1082.63 557.622C1082.63 756.19 973.305 929.222 811.558 1019.81C927.934 944.688 1004.98 813.865 1004.98 665.049C1004.98 432.017 816.067 243.107 583.035 243.107C542.438 243.107 503.181 248.841 466.027 259.542C453.418 263.174 439.777 257.624 434.035 245.825L360.158 94.0291C353.658 80.6732 359.689 64.539 373.662 59.5001C429.741 39.2766 490.217 28.2539 553.266 28.2539C845.628 28.2539 1082.63 265.26 1082.63 557.622ZM176.311 199.449L310.606 314.09C314.714 317.598 320.83 317.357 324.65 313.537L332.255 305.932C336.038 302.148 336.316 296.105 332.896 291.991L219.892 156.059C215.996 151.373 208.917 151.047 204.608 155.356L175.712 184.252C171.441 188.523 171.717 195.527 176.311 199.449ZM49.3793 428.07L223.003 460.205C228.315 461.188 233.49 457.922 234.889 452.703L237.672 442.315C239.057 437.146 236.276 431.774 231.257 429.921L65.4262 368.702C59.7097 366.592 53.4158 369.85 51.8387 375.736L41.2622 415.208C39.6989 421.042 43.4403 426.97 49.3793 428.07ZM218.823 639.433L52.3931 698.414C46.7003 700.432 40.496 697.168 38.9328 691.334L28.3563 651.862C26.7791 645.976 30.6007 640.008 36.6065 638.977L210.829 609.079C216.103 608.174 221.197 611.436 222.582 616.604L225.366 626.993C226.764 632.211 223.915 637.628 218.823 639.433ZM169.997 908.441L276.523 802.534C280.37 798.71 280.613 792.566 277.081 788.449L273.889 784.728C270.389 780.649 264.349 779.926 259.985 783.065L137.92 870.861C132.994 874.404 132.156 881.404 136.107 886.009L154.838 907.841C158.756 912.408 165.729 912.684 169.997 908.441ZM347.817 929.551L306.419 1016.4C303.821 1021.85 297.126 1023.93 291.895 1020.91L279.079 1013.51C273.802 1010.46 272.284 1003.54 275.802 998.565L331.401 919.93C334.25 915.901 339.699 914.706 343.972 917.174C348.286 919.665 349.961 925.054 347.817 929.551ZM509.836 681.076C501.801 683.62 494.037 691.495 490.641 700.551C485.001 715.583 488.602 740.79 499.471 762.372C512.617 788.472 530.073 804.328 556.443 814.121L562.495 816.369L561.741 842.928C561.283 859.023 560.195 879.918 558.899 899.062H537.036C534.384 894.319 531.509 889.382 528.407 884.266C510.794 855.212 484.669 818.383 447.334 775.298L447.581 775.398C412.008 736.942 390.293 685.648 390.293 629.318C390.293 510.016 487.698 413.302 607.854 413.302C728.01 413.302 825.415 510.016 825.415 629.318C825.415 683.446 805.364 732.925 772.234 770.83L772.32 770.93C734.188 814.753 707.604 852.174 689.757 881.613C686.073 887.69 682.707 893.515 679.657 899.062H649.348C648.053 879.918 646.964 859.023 646.507 842.928L645.752 816.369L651.805 814.121C678.174 804.328 695.631 788.472 708.776 762.372C719.645 740.79 723.246 715.583 717.606 700.551C712.392 686.65 698.377 677.644 685.296 679.79C666.372 682.894 644.845 704.392 634.896 730.123C628.206 747.427 626.644 755.643 623.116 792.078L622.499 798.449L613.312 799.307C608.258 799.779 599.989 799.779 594.936 799.307L585.748 798.449L585.081 791.462C582.274 762.071 580.393 750.745 576.272 738.421C570.173 720.18 563.44 708.838 551.625 696.897C536.745 681.858 523.367 676.795 509.836 681.076ZM464.193 922.645C475.517 941.323 481.659 954.463 484.596 961.859C484.728 971.905 492.914 980.009 502.991 980.009H712.717C721.633 980.009 729.068 973.666 730.755 965.246L731.431 965.406C732.326 961.692 737.984 946.362 753.971 919.991C769.436 894.482 793.532 860.345 829.351 819.217L829.254 819.134C873.564 768.228 900.365 701.881 900.365 629.318C900.365 468.916 769.403 338.884 607.854 338.884C446.304 338.884 315.342 468.916 315.342 629.318C315.342 703.176 343.109 770.594 388.843 821.845L388.813 821.871C424.632 862.999 448.728 897.135 464.193 922.645ZM585.022 839.265C584.062 860.667 582.894 881.226 581.67 899.062H626.533C625.357 881.895 624.229 861.632 623.212 839.003C622.417 821.277 622.333 820.851 619.745 821.368C613.193 822.677 602.792 823.037 594.665 822.234L585.825 821.363L585.022 839.265ZM513.321 705.47C504.101 719.503 518.21 759.749 538.833 778.242C544.897 783.679 557.788 791.252 560.98 791.252C561.964 791.252 562.135 788.618 561.56 782.32C558.708 751.098 551.497 730.326 538.329 715.405C527.376 702.994 517.519 699.079 513.321 705.47ZM682.237 704.584C676.904 707.206 665.984 719.086 661.312 727.349C653.514 741.14 648.846 758.69 646.687 782.32C646.083 788.941 646.26 791.252 647.369 791.252C650.377 791.252 663.863 783.219 669.816 777.881C690.045 759.742 704.049 719.357 694.926 705.47C692.646 701.998 688.135 701.684 682.237 704.584ZM720.074 1156.46C726.17 1156.46 731.112 1161.4 731.112 1167.5V1208.13C731.112 1214.23 726.17 1219.17 720.074 1219.17H495.631C489.535 1219.17 484.593 1214.23 484.593 1208.13V1176.29C484.593 1172.7 486.346 1169.32 489.29 1167.26L579.96 1103.61C588.787 1097.42 584.403 1083.54 573.619 1083.54H495.631C489.535 1083.54 484.593 1078.6 484.593 1072.5V1031.52C484.593 1025.42 489.535 1020.48 495.631 1020.48H720.074C726.17 1020.48 731.112 1025.42 731.112 1031.52V1063.71C731.112 1067.31 729.359 1070.68 726.415 1072.75L635.745 1136.39C626.918 1142.59 631.302 1156.46 642.086 1156.46H720.074Z" fill="url(#paint0_linear_45_161)"/>
</g>
<path fill-rule="evenodd" clip-rule="evenodd" d="M1082.63 557.622C1082.63 756.19 973.305 929.222 811.558 1019.81C927.934 944.688 1004.98 813.865 1004.98 665.049C1004.98 432.017 816.067 243.107 583.035 243.107C542.438 243.107 503.181 248.841 466.027 259.542C453.418 263.174 439.777 257.624 434.035 245.825L360.158 94.0291C353.658 80.6732 359.689 64.539 373.662 59.5001C429.741 39.2766 490.217 28.2539 553.266 28.2539C845.628 28.2539 1082.63 265.26 1082.63 557.622ZM176.311 199.449L310.606 314.09C314.714 317.598 320.83 317.357 324.65 313.537L332.255 305.932C336.038 302.148 336.316 296.105 332.896 291.991L219.892 156.059C215.996 151.373 208.917 151.047 204.608 155.356L175.712 184.252C171.441 188.523 171.717 195.527 176.311 199.449ZM49.3793 428.07L223.003 460.205C228.315 461.188 233.49 457.922 234.889 452.703L237.672 442.315C239.057 437.146 236.276 431.774 231.257 429.921L65.4262 368.702C59.7097 366.592 53.4158 369.85 51.8387 375.736L41.2622 415.208C39.6989 421.042 43.4403 426.97 49.3793 428.07ZM218.823 639.433L52.3931 698.414C46.7003 700.432 40.496 697.168 38.9328 691.334L28.3563 651.862C26.7791 645.976 30.6007 640.008 36.6065 638.977L210.829 609.079C216.103 608.174 221.197 611.436 222.582 616.604L225.366 626.993C226.764 632.211 223.915 637.628 218.823 639.433ZM169.997 908.441L276.523 802.534C280.37 798.71 280.613 792.566 277.081 788.449L273.889 784.728C270.389 780.649 264.349 779.926 259.985 783.065L137.92 870.861C132.994 874.404 132.156 881.404 136.107 886.009L154.838 907.841C158.756 912.408 165.729 912.684 169.997 908.441ZM347.817 929.551L306.419 1016.4C303.821 1021.85 297.126 1023.93 291.895 1020.91L279.079 1013.51C273.802 1010.46 272.284 1003.54 275.802 998.565L331.401 919.93C334.25 915.901 339.699 914.706 343.972 917.174C348.286 919.665 349.961 925.054 347.817 929.551ZM509.836 681.076C501.801 683.62 494.037 691.495 490.641 700.551C485.001 715.583 488.602 740.79 499.471 762.372C512.617 788.472 530.073 804.328 556.443 814.121L562.495 816.369L561.741 842.928C561.283 859.023 560.195 879.918 558.899 899.062H537.036C534.384 894.319 531.509 889.382 528.407 884.266C510.794 855.212 484.669 818.383 447.334 775.298L447.581 775.398C412.008 736.942 390.293 685.648 390.293 629.318C390.293 510.016 487.698 413.302 607.854 413.302C728.01 413.302 825.415 510.016 825.415 629.318C825.415 683.446 805.364 732.925 772.234 770.83L772.32 770.93C734.188 814.753 707.604 852.174 689.757 881.613C686.073 887.69 682.707 893.515 679.657 899.062H649.348C648.053 879.918 646.964 859.023 646.507 842.928L645.752 816.369L651.805 814.121C678.174 804.328 695.631 788.472 708.776 762.372C719.645 740.79 723.246 715.583 717.606 700.551C712.392 686.65 698.377 677.644 685.296 679.79C666.372 682.894 644.845 704.392 634.896 730.123C628.206 747.427 626.644 755.643 623.116 792.078L622.499 798.449L613.312 799.307C608.258 799.779 599.989 799.779 594.936 799.307L585.748 798.449L585.081 791.462C582.274 762.071 580.393 750.745 576.272 738.421C570.173 720.18 563.44 708.838 551.625 696.897C536.745 681.858 523.367 676.795 509.836 681.076ZM464.193 922.645C475.517 941.323 481.659 954.463 484.596 961.859C484.728 971.905 492.914 980.009 502.991 980.009H712.717C721.633 980.009 729.068 973.666 730.755 965.246L731.431 965.406C732.326 961.692 737.984 946.362 753.971 919.991C769.436 894.482 793.532 860.345 829.351 819.217L829.254 819.134C873.564 768.228 900.365 701.881 900.365 629.318C900.365 468.916 769.403 338.884 607.854 338.884C446.304 338.884 315.342 468.916 315.342 629.318C315.342 703.176 343.109 770.594 388.843 821.845L388.813 821.871C424.632 862.999 448.728 897.135 464.193 922.645ZM585.022 839.265C584.062 860.667 582.894 881.226 581.67 899.062H626.533C625.357 881.895 624.229 861.632 623.212 839.003C622.417 821.277 622.333 820.851 619.745 821.368C613.193 822.677 602.792 823.037 594.665 822.234L585.825 821.363L585.022 839.265ZM513.321 705.47C504.101 719.503 518.21 759.749 538.833 778.242C544.897 783.679 557.788 791.252 560.98 791.252C561.964 791.252 562.135 788.618 561.56 782.32C558.708 751.098 551.497 730.326 538.329 715.405C527.376 702.994 517.519 699.079 513.321 705.47ZM682.237 704.584C676.904 707.206 665.984 719.086 661.312 727.349C653.514 741.14 648.846 758.69 646.687 782.32C646.083 788.941 646.26 791.252 647.369 791.252C650.377 791.252 663.863 783.219 669.816 777.881C690.045 759.742 704.049 719.357 694.926 705.47C692.646 701.998 688.135 701.684 682.237 704.584ZM720.074 1156.46C726.17 1156.46 731.112 1161.4 731.112 1167.5V1208.13C731.112 1214.23 726.17 1219.17 720.074 1219.17H495.631C489.535 1219.17 484.593 1214.23 484.593 1208.13V1176.29C484.593 1172.7 486.346 1169.32 489.29 1167.26L579.96 1103.61C588.787 1097.42 584.403 1083.54 573.619 1083.54H495.631C489.535 1083.54 484.593 1078.6 484.593 1072.5V1031.52C484.593 1025.42 489.535 1020.48 495.631 1020.48H720.074C726.17 1020.48 731.112 1025.42 731.112 1031.52V1063.71C731.112 1067.31 729.359 1070.68 726.415 1072.75L635.745 1136.39C626.918 1142.59 631.302 1156.46 642.086 1156.46H720.074Z" fill="url(#paint1_linear_45_161)"/>
<g style="mix-blend-mode:color-burn">
<path fill-rule="evenodd" clip-rule="evenodd" d="M1103.61 580.92C1103.61 779.488 994.279 952.52 832.532 1043.11C948.908 967.986 1025.95 837.163 1025.95 688.346C1025.95 455.315 837.041 266.405 604.009 266.405C563.412 266.405 524.154 272.139 487.001 282.84C474.392 286.472 460.751 280.922 455.008 269.123L381.132 117.327C374.632 103.971 380.663 87.8369 394.636 82.7979C450.715 62.5744 511.19 51.5518 574.24 51.5518C866.602 51.5518 1103.61 288.558 1103.61 580.92ZM197.286 222.747L331.58 337.389C335.689 340.896 341.804 340.655 345.624 336.835L353.23 329.23C357.013 325.447 357.291 319.404 353.87 315.289L240.866 179.357C236.971 174.671 229.891 174.346 225.582 178.655L196.687 207.55C192.416 211.821 192.692 218.826 197.286 222.747ZM70.3529 451.368L243.976 483.503C249.289 484.487 254.464 481.22 255.862 476.002L258.646 465.613C260.031 460.445 257.25 455.073 252.23 453.22L86.3999 392.001C80.6834 389.89 74.3895 393.148 72.8124 399.034L62.2358 438.507C60.6726 444.341 64.414 450.269 70.3529 451.368ZM239.798 662.73L73.3678 721.712C67.6749 723.73 61.4707 720.466 59.9074 714.632L49.3309 675.16C47.7538 669.274 51.5753 663.306 57.5811 662.275L231.804 632.377C237.077 631.472 242.172 634.734 243.557 639.902L246.34 650.291C247.739 655.509 244.89 660.926 239.798 662.73ZM190.971 931.74L297.498 825.833C301.344 822.008 301.588 815.864 298.056 811.747L294.864 808.027C291.364 803.947 285.323 803.224 280.959 806.363L158.894 894.159C153.969 897.702 153.131 904.702 157.082 909.308L175.812 931.139C179.731 935.706 186.704 935.982 190.971 931.74ZM368.792 952.849L327.394 1039.7C324.795 1045.15 318.101 1047.23 312.87 1044.21L300.054 1036.81C294.777 1033.76 293.259 1026.84 296.777 1021.86L352.376 943.228C355.224 939.199 360.673 938.004 364.946 940.471C369.261 942.962 370.935 948.352 368.792 952.849ZM530.809 704.375C522.773 706.919 515.01 714.794 511.614 723.849C505.974 738.882 509.575 764.089 520.444 785.671C533.589 811.77 551.046 827.627 577.415 837.42L583.468 839.667L582.713 866.226C582.256 882.322 581.167 903.217 579.872 922.361H558.009C555.357 917.618 552.481 912.681 549.38 907.565C531.766 878.511 505.642 841.681 468.306 798.597L468.553 798.697C432.981 760.241 411.265 708.947 411.265 652.616C411.265 533.314 508.671 436.601 628.826 436.601C748.982 436.601 846.387 533.314 846.387 652.616C846.387 706.745 826.336 756.223 793.207 794.129L793.292 794.229C755.161 838.051 728.576 875.473 710.729 904.911C707.045 910.989 703.679 916.814 700.629 922.361H670.32C669.025 903.217 667.937 882.322 667.479 866.226L666.725 839.667L672.777 837.42C699.146 827.627 716.603 811.77 729.749 785.671C740.618 764.089 744.219 738.882 738.578 723.849C733.364 709.948 719.349 700.942 706.269 703.088C687.345 706.193 665.818 727.691 655.869 753.422C649.179 770.726 647.616 778.941 644.088 815.376L643.472 821.747L634.284 822.606C629.231 823.078 620.962 823.078 615.908 822.606L606.721 821.747L606.054 814.76C603.247 785.37 601.366 774.044 597.245 761.72C591.145 743.478 584.413 732.136 572.598 720.195C557.718 705.157 544.34 700.093 530.809 704.375ZM485.166 945.943C496.491 964.624 502.633 977.765 505.57 985.16C505.703 995.205 513.888 1003.31 523.965 1003.31H733.69C742.606 1003.31 750.041 996.964 751.728 988.544L752.404 988.705C753.298 984.991 758.956 969.661 774.944 943.29C790.409 917.78 814.504 883.644 850.324 842.516L850.227 842.432C894.536 791.526 921.338 725.179 921.338 652.616C921.338 492.214 790.376 362.183 628.826 362.183C467.277 362.183 336.315 492.214 336.315 652.616C336.315 726.474 364.081 793.893 409.815 845.143L409.785 845.169C445.605 886.297 469.701 920.434 485.166 945.943ZM605.994 862.564C605.034 883.965 603.867 904.525 602.642 922.361H647.505C646.329 905.194 645.201 884.93 644.185 862.301C643.389 844.576 643.305 844.15 640.717 844.667C634.166 845.975 623.765 846.335 615.638 845.533L606.797 844.662L605.994 862.564ZM534.293 728.769C525.073 742.802 539.183 783.048 559.805 801.541C565.869 806.978 578.76 814.551 581.952 814.551C582.937 814.551 583.107 811.917 582.533 805.619C579.681 774.396 572.469 753.624 559.301 738.704C548.348 726.293 538.492 722.377 534.293 728.769ZM703.209 727.883C697.877 730.505 686.957 742.384 682.285 750.648C674.487 764.439 669.819 781.988 667.66 805.619C667.056 812.24 667.232 814.551 668.341 814.551C671.349 814.551 684.836 806.518 690.789 801.18C711.017 783.04 725.021 742.655 715.899 728.769C713.619 725.297 709.108 724.983 703.209 727.883ZM741.046 1179.76C747.143 1179.76 752.085 1184.7 752.085 1190.8V1231.43C752.085 1237.53 747.143 1242.47 741.046 1242.47H516.604C510.508 1242.47 505.566 1237.53 505.566 1231.43V1199.59C505.566 1195.99 507.318 1192.62 510.262 1190.56L600.933 1126.91C609.76 1120.72 605.376 1106.84 594.591 1106.84H516.604C510.508 1106.84 505.566 1101.9 505.566 1095.8V1054.82C505.566 1048.72 510.508 1043.78 516.604 1043.78H741.046C747.143 1043.78 752.085 1048.72 752.085 1054.82V1087.01C752.085 1090.61 750.332 1093.98 747.388 1096.04L656.717 1159.69C647.89 1165.88 652.274 1179.76 663.059 1179.76H741.046Z" fill="url(#paint2_linear_45_161)"/>
</g>
<g filter="url(#filter1_i_45_161)">
<path fill-rule="evenodd" clip-rule="evenodd" d="M1082.9 557.622C1082.9 756.19 973.572 929.222 811.825 1019.81C928.201 944.688 1005.24 813.865 1005.24 665.049C1005.24 432.017 816.333 243.107 583.302 243.107C542.705 243.107 503.447 248.841 466.294 259.542C453.685 263.174 440.044 257.624 434.301 245.825L360.425 94.0291C353.925 80.6732 359.956 64.539 373.929 59.5001C430.008 39.2766 490.483 28.2539 553.533 28.2539C845.895 28.2539 1082.9 265.26 1082.9 557.622ZM176.578 199.449L310.872 314.09C314.981 317.598 321.096 317.357 324.917 313.537L332.522 305.932C336.305 302.148 336.583 296.105 333.162 291.991L220.158 156.059C216.263 151.373 209.183 151.047 204.874 155.356L175.979 184.252C171.708 188.523 171.984 195.527 176.578 199.449ZM49.6459 428.07L223.269 460.205C228.582 461.188 233.757 457.922 235.155 452.703L237.939 442.315C239.324 437.146 236.543 431.774 231.523 429.921L65.6928 368.702C59.9763 366.592 53.6824 369.85 52.1053 375.736L41.5288 415.208C39.9655 421.042 43.7069 426.97 49.6459 428.07ZM219.09 639.433L52.6597 698.414C46.9669 700.432 40.7626 697.168 39.1994 691.334L28.6229 651.862C27.0457 645.976 30.8673 640.008 36.8731 638.977L211.096 609.079C216.369 608.174 221.464 611.436 222.849 616.604L225.632 626.993C227.031 632.211 224.182 637.628 219.09 639.433ZM170.263 908.442L276.79 802.535C280.636 798.711 280.88 792.566 277.348 788.45L274.156 784.729C270.656 780.649 264.615 779.926 260.251 783.065L138.186 870.862C133.261 874.404 132.423 881.405 136.374 886.01L155.104 907.841C159.023 912.408 165.996 912.685 170.263 908.442ZM348.084 929.551L306.686 1016.4C304.087 1021.85 297.393 1023.93 292.162 1020.91L279.346 1013.51C274.069 1010.46 272.551 1003.54 276.069 998.565L331.668 919.93C334.516 915.901 339.965 914.706 344.238 917.174C348.553 919.665 350.227 925.054 348.084 929.551ZM510.103 681.076C502.068 683.621 494.304 691.496 490.908 700.551C485.268 715.583 488.869 740.791 499.738 762.373C512.884 788.472 530.34 804.328 556.71 814.122L562.762 816.369L562.008 842.928C561.55 859.024 560.462 879.919 559.166 899.063H537.303C534.651 894.32 531.776 889.383 528.674 884.267C511.06 855.213 484.936 818.383 447.6 775.298L447.847 775.398C412.275 736.943 390.56 685.648 390.56 629.318C390.56 510.016 487.965 413.303 608.121 413.303C728.276 413.302 825.682 510.016 825.682 629.318C825.682 683.447 805.631 732.925 772.501 770.831L772.586 770.93C734.455 814.753 707.871 852.174 690.024 881.613C686.339 887.691 682.974 893.515 679.924 899.063H649.615C648.319 879.919 647.231 859.024 646.774 842.928L646.019 816.369L652.072 814.122C678.441 804.328 695.898 788.472 709.043 762.373C719.912 740.791 723.513 715.583 717.873 700.551C712.659 686.65 698.644 677.644 685.563 679.79C666.639 682.895 645.112 704.393 635.163 730.124C628.473 747.428 626.911 755.643 623.383 792.078L622.766 798.449L613.578 799.308C608.525 799.78 600.256 799.78 595.203 799.308L586.015 798.449L585.348 791.462C582.541 762.072 580.66 750.746 576.539 738.422C570.44 720.18 563.707 708.838 551.892 696.897C537.012 681.859 523.634 676.795 510.103 681.076ZM464.46 922.645C475.785 941.326 481.927 954.466 484.864 961.862C484.998 971.907 493.182 980.009 503.259 980.009H712.984C721.901 980.009 729.336 973.666 731.023 965.246L731.698 965.407C732.592 961.693 738.251 946.363 754.238 919.992C769.703 894.482 793.799 860.346 829.618 819.218L829.521 819.134C873.831 768.228 900.632 701.881 900.632 629.318C900.632 468.916 769.67 338.885 608.121 338.885C446.571 338.885 315.609 468.916 315.609 629.318C315.609 703.176 343.376 770.595 389.11 821.845L389.08 821.871C424.899 862.999 448.995 897.136 464.46 922.645ZM585.289 839.265C584.329 860.667 583.161 881.227 581.937 899.063H626.8C625.624 881.895 624.496 861.632 623.479 839.003C622.684 821.278 622.6 820.851 620.012 821.369C613.46 822.677 603.059 823.037 594.932 822.235L586.091 821.364L585.289 839.265ZM513.588 705.471C504.368 719.504 518.477 759.75 539.1 778.242C545.164 783.679 558.055 791.253 561.247 791.253C562.231 791.253 562.402 788.619 561.827 782.321C558.975 751.098 551.764 730.326 538.596 715.406C527.643 702.994 517.786 699.079 513.588 705.471ZM682.504 704.585C677.171 707.207 666.251 719.086 661.579 727.349C653.781 741.141 649.113 758.69 646.954 782.321C646.35 788.941 646.527 791.253 647.636 791.253C650.644 791.253 664.13 783.22 670.083 777.881C690.312 759.742 704.316 719.357 695.193 705.471C692.913 701.999 688.402 701.685 682.504 704.585ZM720.342 1156.46C726.438 1156.46 731.38 1161.41 731.38 1167.5V1208.13C731.38 1214.23 726.438 1219.17 720.342 1219.17H495.899C489.803 1219.17 484.861 1214.23 484.861 1208.13V1176.29C484.861 1172.7 486.613 1169.32 489.557 1167.26L580.228 1103.61C589.055 1097.42 584.671 1083.54 573.886 1083.54H495.899C489.803 1083.54 484.861 1078.6 484.861 1072.5V1031.52C484.861 1025.42 489.803 1020.48 495.899 1020.48H720.342C726.438 1020.48 731.38 1025.42 731.38 1031.52V1063.71C731.38 1067.31 729.627 1070.68 726.683 1072.75L636.013 1136.39C627.185 1142.59 631.57 1156.46 642.354 1156.46H720.342Z" fill="white"/>
</g>
<g style="mix-blend-mode:hard-light" opacity="0.5">
<path fill-rule="evenodd" clip-rule="evenodd" d="M1082.9 557.622C1082.9 756.19 973.572 929.222 811.825 1019.81C928.201 944.688 1005.24 813.865 1005.24 665.049C1005.24 432.017 816.333 243.107 583.302 243.107C542.705 243.107 503.447 248.841 466.294 259.542C453.685 263.174 440.044 257.624 434.301 245.825L360.425 94.0291C353.925 80.6732 359.956 64.539 373.929 59.5001C430.008 39.2766 490.483 28.2539 553.533 28.2539C845.895 28.2539 1082.9 265.26 1082.9 557.622ZM176.578 199.449L310.872 314.09C314.981 317.598 321.096 317.357 324.917 313.537L332.522 305.932C336.305 302.148 336.583 296.105 333.162 291.991L220.158 156.059C216.263 151.373 209.183 151.047 204.874 155.356L175.979 184.252C171.708 188.523 171.984 195.527 176.578 199.449ZM49.6459 428.07L223.269 460.205C228.582 461.188 233.757 457.922 235.155 452.703L237.939 442.315C239.324 437.146 236.543 431.774 231.523 429.921L65.6928 368.702C59.9763 366.592 53.6824 369.85 52.1053 375.736L41.5288 415.208C39.9655 421.042 43.7069 426.97 49.6459 428.07ZM219.09 639.433L52.6597 698.414C46.9669 700.432 40.7626 697.168 39.1994 691.334L28.6229 651.862C27.0457 645.976 30.8673 640.008 36.8731 638.977L211.096 609.079C216.369 608.174 221.464 611.436 222.849 616.604L225.632 626.993C227.031 632.211 224.182 637.628 219.09 639.433ZM170.263 908.442L276.79 802.535C280.636 798.711 280.88 792.566 277.348 788.45L274.156 784.729C270.656 780.649 264.615 779.926 260.251 783.065L138.186 870.862C133.261 874.404 132.423 881.405 136.374 886.01L155.104 907.841C159.023 912.408 165.996 912.685 170.263 908.442ZM348.084 929.551L306.686 1016.4C304.087 1021.85 297.393 1023.93 292.162 1020.91L279.346 1013.51C274.069 1010.46 272.551 1003.54 276.069 998.565L331.668 919.93C334.516 915.901 339.965 914.706 344.238 917.174C348.553 919.665 350.227 925.054 348.084 929.551ZM510.103 681.076C502.068 683.621 494.304 691.496 490.908 700.551C485.268 715.583 488.869 740.791 499.738 762.373C512.884 788.472 530.34 804.328 556.71 814.122L562.762 816.369L562.008 842.928C561.55 859.024 560.462 879.919 559.166 899.063H537.303C534.651 894.32 531.776 889.383 528.674 884.267C511.06 855.213 484.936 818.383 447.6 775.298L447.847 775.398C412.275 736.943 390.56 685.648 390.56 629.318C390.56 510.016 487.965 413.303 608.121 413.303C728.276 413.302 825.682 510.016 825.682 629.318C825.682 683.447 805.631 732.925 772.501 770.831L772.586 770.93C734.455 814.753 707.871 852.174 690.024 881.613C686.339 887.691 682.974 893.515 679.924 899.063H649.615C648.319 879.919 647.231 859.024 646.774 842.928L646.019 816.369L652.072 814.122C678.441 804.328 695.898 788.472 709.043 762.373C719.912 740.791 723.513 715.583 717.873 700.551C712.659 686.65 698.644 677.644 685.563 679.79C666.639 682.895 645.112 704.393 635.163 730.124C628.473 747.428 626.911 755.643 623.383 792.078L622.766 798.449L613.578 799.308C608.525 799.78 600.256 799.78 595.203 799.308L586.015 798.449L585.348 791.462C582.541 762.072 580.66 750.746 576.539 738.422C570.44 720.18 563.707 708.838 551.892 696.897C537.012 681.859 523.634 676.795 510.103 681.076ZM464.46 922.645C475.785 941.326 481.927 954.466 484.864 961.862C484.998 971.907 493.182 980.009 503.259 980.009H712.984C721.901 980.009 729.336 973.666 731.023 965.246L731.698 965.407C732.592 961.693 738.251 946.363 754.238 919.992C769.703 894.482 793.799 860.346 829.618 819.218L829.521 819.134C873.831 768.228 900.632 701.881 900.632 629.318C900.632 468.916 769.67 338.885 608.121 338.885C446.571 338.885 315.609 468.916 315.609 629.318C315.609 703.176 343.376 770.595 389.11 821.845L389.08 821.871C424.899 862.999 448.995 897.136 464.46 922.645ZM585.289 839.265C584.329 860.667 583.161 881.227 581.937 899.063H626.8C625.624 881.895 624.496 861.632 623.479 839.003C622.684 821.278 622.6 820.851 620.012 821.369C613.46 822.677 603.059 823.037 594.932 822.235L586.091 821.364L585.289 839.265ZM513.588 705.471C504.368 719.504 518.477 759.75 539.1 778.242C545.164 783.679 558.055 791.253 561.247 791.253C562.231 791.253 562.402 788.619 561.827 782.321C558.975 751.098 551.764 730.326 538.596 715.406C527.643 702.994 517.786 699.079 513.588 705.471ZM682.504 704.585C677.171 707.207 666.251 719.086 661.579 727.349C653.781 741.141 649.113 758.69 646.954 782.321C646.35 788.941 646.527 791.253 647.636 791.253C650.644 791.253 664.13 783.22 670.083 777.881C690.312 759.742 704.316 719.357 695.193 705.471C692.913 701.999 688.402 701.685 682.504 704.585ZM720.342 1156.46C726.438 1156.46 731.38 1161.41 731.38 1167.5V1208.13C731.38 1214.23 726.438 1219.17 720.342 1219.17H495.899C489.803 1219.17 484.861 1214.23 484.861 1208.13V1176.29C484.861 1172.7 486.613 1169.32 489.557 1167.26L580.228 1103.61C589.055 1097.42 584.671 1083.54 573.886 1083.54H495.899C489.803 1083.54 484.861 1078.6 484.861 1072.5V1031.52C484.861 1025.42 489.803 1020.48 495.899 1020.48H720.342C726.438 1020.48 731.38 1025.42 731.38 1031.52V1063.71C731.38 1067.31 729.627 1070.68 726.683 1072.75L636.013 1136.39C627.185 1142.59 631.57 1156.46 642.354 1156.46H720.342Z" fill="url(#paint3_linear_45_161)"/>
</g>
<defs>
<filter id="filter0_f_45_161" x="0" y="0.253906" width="1110.63" height="1246.92" filterUnits="userSpaceOnUse" color-interpolation-filters="sRGB">
<feFlood flood-opacity="0" result="BackgroundImageFix"/>
<feBlend mode="normal" in="SourceGraphic" in2="BackgroundImageFix" result="shape"/>
<feGaussianBlur stdDeviation="14" result="effect1_foregroundBlur_45_161"/>
</filter>
<filter id="filter1_i_45_161" x="25.2666" y="24.2539" width="1057.63" height="1194.92" filterUnits="userSpaceOnUse" color-interpolation-filters="sRGB">
<feFlood flood-opacity="0" result="BackgroundImageFix"/>
<feBlend mode="normal" in="SourceGraphic" in2="BackgroundImageFix" result="shape"/>
<feColorMatrix in="SourceAlpha" type="matrix" values="0 0 0 0 0 0 0 0 0 0 0 0 0 0 0 0 0 0 127 0" result="hardAlpha"/>
<feOffset dx="-3" dy="-8"/>
<feGaussianBlur stdDeviation="2"/>
<feComposite in2="hardAlpha" operator="arithmetic" k2="-1" k3="1"/>
<feColorMatrix type="matrix" values="0 0 0 0 0 0 0 0 0 0 0 0 0 0 0 0 0 0 0.25 0"/>
<feBlend mode="normal" in2="shape" result="effect1_innerShadow_45_161"/>
</filter>
<linearGradient id="paint0_linear_45_161" x1="555.317" y1="28.2539" x2="555.317" y2="1219.17" gradientUnits="userSpaceOnUse">
<stop stop-color="#FF63B9"/>
<stop offset="1" stop-color="#8A05FE"/>
</linearGradient>
<linearGradient id="paint1_linear_45_161" x1="555.317" y1="28.2539" x2="555.317" y2="1219.17" gradientUnits="userSpaceOnUse">
<stop stop-color="#FF63B9"/>
<stop offset="1" stop-color="#8A05FE"/>
</linearGradient>
<linearGradient id="paint2_linear_45_161" x1="576.291" y1="51.5518" x2="576.291" y2="1242.47" gradientUnits="userSpaceOnUse">
<stop stop-color="#FF63B9"/>
<stop offset="1" stop-color="#8A05FE"/>
</linearGradient>
<linearGradient id="paint3_linear_45_161" x1="555.584" y1="28.2539" x2="555.584" y2="1219.17" gradientUnits="userSpaceOnUse">
<stop stop-color="#FF63B9"/>
<stop offset="1" stop-color="#8A05FE"/>
</linearGradient>
</defs>
</svg>
